<?xml version="1.0" encoding="UTF-8" standalone="no"?>
<!-- Generator: Adobe Illustrator 13.0.2, SVG Export Plug-In . SVG Version: 6.00 Build 14948)  -->

<svg
   xmlns:dc="http://purl.org/dc/elements/1.1/"
   xmlns:cc="http://creativecommons.org/ns#"
   xmlns:rdf="http://www.w3.org/1999/02/22-rdf-syntax-ns#"
   xmlns:svg="http://www.w3.org/2000/svg"
   xmlns="http://www.w3.org/2000/svg"
   xmlns:sodipodi="http://sodipodi.sourceforge.net/DTD/sodipodi-0.dtd"
   xmlns:inkscape="http://www.inkscape.org/namespaces/inkscape"
   version="1.1"
   id="Layer_1"
   x="0px"
   y="0px"
   width="123.634"
   height="123.61"
   viewBox="-0.258 -0.548 123.634 123.61"
   xml:space="preserve"
   inkscape:version="0.48.4 r9939"
   sodipodi:docname="accessible_to_disabled.svg"><metadata
   id="metadata19"><rdf:RDF><cc:Work
       rdf:about=""><dc:format>image/svg+xml</dc:format><dc:type
         rdf:resource="http://purl.org/dc/dcmitype/StillImage" /></cc:Work></rdf:RDF></metadata><defs
   id="defs17" /><sodipodi:namedview
   pagecolor="#ffffff"
   bordercolor="#666666"
   borderopacity="1"
   objecttolerance="10"
   gridtolerance="10"
   guidetolerance="10"
   inkscape:pageopacity="0"
   inkscape:pageshadow="2"
   inkscape:window-width="640"
   inkscape:window-height="480"
   id="namedview15"
   showgrid="false"
   fit-margin-top="0"
   fit-margin-left="0"
   fit-margin-right="0"
   fit-margin-bottom="0"
   inkscape:zoom="1.9103279"
   inkscape:cx="60.703499"
   inkscape:cy="61.806499"
   inkscape:window-x="2170"
   inkscape:window-y="159"
   inkscape:window-maximized="0"
   inkscape:current-layer="Layer_1" />
<g
   id="g3"
   transform="translate(-1.07,0.0339978)">
	<path
   style="fill:#231f20"
   d="M 15.578,123.027 C 7.422,123.027 0.812,116.41 0.812,108.23 V 14.184 c 0,-8.148 6.609,-14.766 14.766,-14.766 h 94.102 c 8.156,0 14.766,6.617 14.766,14.766 v 94.047 c 0,8.18 -6.609,14.797 -14.766,14.797 H 15.578 z"
   id="path5"
   inkscape:connector-curvature="0" />
	<path
   style="fill:#ffffff"
   d="M 15.578,1.91 C 8.812,1.91 3.312,7.426 3.312,14.183 v 94.047 c 0,6.758 5.5,12.281 12.266,12.281 h 94.102 c 6.758,0 12.25,-5.523 12.25,-12.281 V 14.184 c 0,-6.758 -5.492,-12.273 -12.25,-12.273 H 15.578 z"
   id="path7"
   inkscape:connector-curvature="0" />
	<path
   style="fill:#231f20"
   d="m 52.766,29.473 c 4.586,0 8.281,-3.734 8.281,-8.281 0,-4.586 -3.695,-8.273 -8.281,-8.273 -4.57,0 -8.281,3.688 -8.281,8.273 -10e-4,4.546 3.71,8.281 8.281,8.281 z"
   id="path9"
   inkscape:connector-curvature="0" />
	<path
   style="fill:#231f20"
   d="m 93.023,91.066 c 1.32,2.148 4.352,3.031 6.641,1.656 2.273,-1.359 2.961,-4.219 1.664,-6.609 L 87.219,61.746 C 86.336,60.277 84.797,59.449 83.211,59.402 H 62.508 l -0.195,-6.25 h 15.039 c 2.055,-0.125 3.734,-1.688 3.734,-3.789 0,-2.07 -1.633,-3.68 -3.734,-3.758 H 61.875 l -0.539,-7.102 c -0.289,-4.344 -4.031,-7.766 -8.43,-7.523 -4.414,0.25 -7.758,4.055 -7.539,8.453 l 1.438,25.117 c 0.367,4.398 4.055,7.547 8.422,7.523 h 26.836 l 10.96,18.993 z"
   id="path11"
   inkscape:connector-curvature="0" />
	<path
   style="fill:#231f20"
   d="M 58.086,100.512 C 44.508,100.512 33.5,89.528 33.5,75.926 33.5,68.481 36.867,61.84 42.117,57.324 L 41.679,49.636 C 32.89,55.128 26.984,64.8 26.984,75.925 c 0,17.164 13.914,31.109 31.102,31.109 12.648,0 23.469,-7.617 28.328,-18.461 l -4.375,-7.57 c -2.344,11.11 -12.133,19.509 -23.953,19.509 z"
   id="path13"
   inkscape:connector-curvature="0" />
</g>
</svg>