<?xml version="1.0" encoding="UTF-8" standalone="no"?>
<!-- Generator: Adobe Illustrator 13.0.2, SVG Export Plug-In . SVG Version: 6.00 Build 14948)  -->

<svg
   xmlns:dc="http://purl.org/dc/elements/1.1/"
   xmlns:cc="http://creativecommons.org/ns#"
   xmlns:rdf="http://www.w3.org/1999/02/22-rdf-syntax-ns#"
   xmlns:svg="http://www.w3.org/2000/svg"
   xmlns="http://www.w3.org/2000/svg"
   xmlns:sodipodi="http://sodipodi.sourceforge.net/DTD/sodipodi-0.dtd"
   xmlns:inkscape="http://www.inkscape.org/namespaces/inkscape"
   version="1.1"
   id="Layer_1"
   x="0px"
   y="0px"
   width="123.634"
   height="123.61"
   viewBox="-0.258 -0.548 123.634 123.61"
   xml:space="preserve"
   inkscape:version="0.48.4 r9939"
   sodipodi:docname="beach_house.svg"><metadata
   id="metadata19"><rdf:RDF><cc:Work
       rdf:about=""><dc:format>image/svg+xml</dc:format><dc:type
         rdf:resource="http://purl.org/dc/dcmitype/StillImage" /><dc:title /></cc:Work></rdf:RDF></metadata><defs
   id="defs17"><inkscape:path-effect
     effect="spiro"
     id="path-effect4095"
     is_visible="true" /><inkscape:path-effect
     effect="spiro"
     id="path-effect4006"
     is_visible="true" /><inkscape:perspective
     sodipodi:type="inkscape:persp3d"
     inkscape:vp_x="0 : 61.805 : 1"
     inkscape:vp_y="0 : 1000 : 0"
     inkscape:vp_z="123.634 : 61.805 : 1"
     inkscape:persp3d-origin="61.817001 : 41.203334 : 1"
     id="perspective3956" /><inkscape:path-effect
     effect="spiro"
     id="path-effect3954"
     is_visible="true" /><inkscape:path-effect
     effect="spiro"
     id="path-effect3950"
     is_visible="true" /><clipPath
     clipPathUnits="userSpaceOnUse"
     id="clipPath954"><path
       inkscape:connector-curvature="0"
       d="m 0,0 1785.827,0 0,841.89 L 0,841.89 0,0 z"
       id="path956" /></clipPath><clipPath
     clipPathUnits="userSpaceOnUse"
     id="clipPath954-4"><path
       inkscape:connector-curvature="0"
       d="m 0,0 1785.827,0 0,841.89 L 0,841.89 0,0 z"
       id="path956-0" /></clipPath><inkscape:path-effect
     effect="spiro"
     id="path-effect4095-4"
     is_visible="true" /></defs><sodipodi:namedview
   pagecolor="#ffffff"
   bordercolor="#666666"
   borderopacity="1"
   objecttolerance="10"
   gridtolerance="10"
   guidetolerance="10"
   inkscape:pageopacity="0"
   inkscape:pageshadow="2"
   inkscape:window-width="1920"
   inkscape:window-height="1017"
   id="namedview15"
   showgrid="false"
   fit-margin-top="0"
   fit-margin-left="0"
   fit-margin-right="0"
   fit-margin-bottom="0"
   inkscape:zoom="2.7016116"
   inkscape:cx="-126.08624"
   inkscape:cy="65.556108"
   inkscape:window-x="1592"
   inkscape:window-y="-8"
   inkscape:window-maximized="1"
   inkscape:current-layer="g3" />
<g
   id="g3"
   transform="translate(-1.07,0.0339978)">
	<path
   style="fill:#000000"
   d="M 15.578,123.027 C 7.422,123.027 0.812,116.41 0.812,108.23 V 14.184 c 0,-8.148 6.609,-14.766 14.766,-14.766 h 94.102 c 8.156,0 14.766,6.617 14.766,14.766 v 94.047 c 0,8.18 -6.609,14.797 -14.766,14.797 H 15.578 z"
   id="path5"
   inkscape:connector-curvature="0" />
	<path
   style="fill:#ffffff"
   d="M 15.578,1.91 C 8.812,1.91 3.312,7.426 3.312,14.183 v 94.047 c 0,6.758 5.5,12.281 12.266,12.281 h 94.102 c 6.758,0 12.25,-5.523 12.25,-12.281 V 14.184 c 0,-6.758 -5.492,-12.273 -12.25,-12.273 H 15.578 z"
   id="path7"
   inkscape:connector-curvature="0" />
	
	
	
<g
   id="g3770"
   transform="translate(0,-4.2064388)"><path
     sodipodi:nodetypes="cccccc"
     inkscape:connector-curvature="0"
     id="rect4158"
     d="m 85.273216,102.25272 c -27.762811,0 -17.525621,0 -45.288432,0 m 0,6 0,-67.604512 c 27.762811,0 17.525621,0 45.288432,0 l 0,67.604512"
     style="fill:none;stroke:#000000;stroke-width:6;stroke-linecap:round;stroke-linejoin:round;stroke-miterlimit:4;stroke-opacity:1;stroke-dasharray:none" /><path
     sodipodi:nodetypes="ccc"
     inkscape:connector-curvature="0"
     id="rect4158-5"
     d="M 29.042464,47.412601 62.629,22.606162 96.215536,47.412601"
     style="fill:none;stroke:#000000;stroke-width:6;stroke-linecap:round;stroke-linejoin:round;stroke-miterlimit:4;stroke-opacity:1;stroke-dasharray:none" /><g
     transform="translate(18.267724,-3.3313449)"
     id="g4256"><rect
       style="fill:#000000;fill-opacity:1;stroke:none"
       id="rect4237"
       width="26.835833"
       height="47.935764"
       x="30.943359"
       y="51.404087" /><path
       sodipodi:type="arc"
       style="fill:#ffffff;fill-opacity:1;stroke:none"
       id="path4250"
       sodipodi:cx="160.18216"
       sodipodi:cy="57.075642"
       sodipodi:rx="3.9791064"
       sodipodi:ry="3.9791064"
       d="m 164.16127,57.075642 c 0,2.197599 -1.78151,3.979106 -3.97911,3.979106 -2.1976,0 -3.97911,-1.781507 -3.97911,-3.979106 0,-2.1976 1.78151,-3.979107 3.97911,-3.979107 2.1976,0 3.97911,1.781507 3.97911,3.979107 z"
       transform="matrix(0.5003423,0,0,0.5003423,-44.386554,48.648778)" /></g></g></g>
</svg>