<?xml version="1.0" encoding="UTF-8" standalone="no"?>
<!-- Generator: Adobe Illustrator 13.0.2, SVG Export Plug-In . SVG Version: 6.00 Build 14948)  -->

<svg
   xmlns:dc="http://purl.org/dc/elements/1.1/"
   xmlns:cc="http://creativecommons.org/ns#"
   xmlns:rdf="http://www.w3.org/1999/02/22-rdf-syntax-ns#"
   xmlns:svg="http://www.w3.org/2000/svg"
   xmlns="http://www.w3.org/2000/svg"
   xmlns:sodipodi="http://sodipodi.sourceforge.net/DTD/sodipodi-0.dtd"
   xmlns:inkscape="http://www.inkscape.org/namespaces/inkscape"
   version="1.1"
   id="Layer_1"
   x="0px"
   y="0px"
   width="123.634"
   height="123.61"
   viewBox="-0.258 -0.548 123.634 123.61"
   xml:space="preserve"
   inkscape:version="0.48.4 r9939"
   sodipodi:docname="water_slide.svg"
   inkscape:export-filename="C:\Users\MaartenPieter\Dropbox\YellowBytes\waterschapp\graphics_app\icons\voorzieningen\hdpi\water_slide.png"
   inkscape:export-xdpi="37.849998"
   inkscape:export-ydpi="37.849998"><metadata
   id="metadata19"><rdf:RDF><cc:Work
       rdf:about=""><dc:format>image/svg+xml</dc:format><dc:type
         rdf:resource="http://purl.org/dc/dcmitype/StillImage" /><dc:title></dc:title></cc:Work></rdf:RDF></metadata><defs
   id="defs17"><inkscape:path-effect
     effect="spiro"
     id="path-effect4095"
     is_visible="true" /><inkscape:path-effect
     effect="spiro"
     id="path-effect4006"
     is_visible="true" /><inkscape:perspective
     sodipodi:type="inkscape:persp3d"
     inkscape:vp_x="0 : 61.805 : 1"
     inkscape:vp_y="0 : 1000 : 0"
     inkscape:vp_z="123.634 : 61.805 : 1"
     inkscape:persp3d-origin="61.817001 : 41.203334 : 1"
     id="perspective3956" /><inkscape:path-effect
     effect="spiro"
     id="path-effect3954"
     is_visible="true" /><inkscape:path-effect
     effect="spiro"
     id="path-effect3950"
     is_visible="true" /><clipPath
     clipPathUnits="userSpaceOnUse"
     id="clipPath954"><path
       inkscape:connector-curvature="0"
       d="m 0,0 1785.827,0 0,841.89 L 0,841.89 0,0 z"
       id="path956" /></clipPath><clipPath
     clipPathUnits="userSpaceOnUse"
     id="clipPath954-4"><path
       inkscape:connector-curvature="0"
       d="m 0,0 1785.827,0 0,841.89 L 0,841.89 0,0 z"
       id="path956-0" /></clipPath><inkscape:path-effect
     effect="spiro"
     id="path-effect4095-4"
     is_visible="true" /></defs><sodipodi:namedview
   pagecolor="#ffffff"
   bordercolor="#666666"
   borderopacity="1"
   objecttolerance="10"
   gridtolerance="10"
   guidetolerance="10"
   inkscape:pageopacity="0"
   inkscape:pageshadow="2"
   inkscape:window-width="1600"
   inkscape:window-height="837"
   id="namedview15"
   showgrid="false"
   fit-margin-top="0"
   fit-margin-left="0"
   fit-margin-right="0"
   fit-margin-bottom="0"
   inkscape:zoom="0.95516395"
   inkscape:cx="-92.589364"
   inkscape:cy="-34.815007"
   inkscape:window-x="-8"
   inkscape:window-y="-8"
   inkscape:window-maximized="1"
   inkscape:current-layer="g3"
   showguides="true"
   inkscape:guide-bbox="true" />
<g
   id="g3"
   transform="translate(-1.07,0.0339978)">
	<path
   style="fill:#000000"
   d="M 15.578,123.027 C 7.422,123.027 0.812,116.41 0.812,108.23 V 14.184 c 0,-8.148 6.609,-14.766 14.766,-14.766 h 94.102 c 8.156,0 14.766,6.617 14.766,14.766 v 94.047 c 0,8.18 -6.609,14.797 -14.766,14.797 H 15.578 z"
   id="path5"
   inkscape:connector-curvature="0" />
	<path
   style="fill:#ffffff"
   d="M 15.578,1.91 C 8.812,1.91 3.312,7.426 3.312,14.183 v 94.047 c 0,6.758 5.5,12.281 12.266,12.281 h 94.102 c 6.758,0 12.25,-5.523 12.25,-12.281 V 14.184 c 0,-6.758 -5.492,-12.273 -12.25,-12.273 H 15.578 z"
   id="path7"
   inkscape:connector-curvature="0" />
	
	
	
<path
   style="fill:none;stroke:#000000;stroke-width:2.70501781;stroke-linecap:round;stroke-linejoin:round;stroke-miterlimit:4;stroke-opacity:1;stroke-dasharray:none"
   d="m -111.99564,84.430435 6.12875,-18.985271 27.866895,0.03795 7.844752,20.487902 -18.523321,0 -16.403116,-19.403389"
   id="path3056"
   inkscape:connector-curvature="0"
   sodipodi:nodetypes="cccccc" /><path
   style="fill:none;stroke:#000000;stroke-width:2.70501781;stroke-linecap:round;stroke-linejoin:round;stroke-miterlimit:4;stroke-opacity:1;stroke-dasharray:none"
   d="M -78.482429,65.66973 -88.919782,85.97101"
   id="path3058"
   inkscape:connector-curvature="0"
   sodipodi:nodetypes="cc" /><path
   style="fill:#000000"
   inkscape:connector-curvature="0"
   id="path3828"
   d="m -126.75025,85.215438 c 0,-8.2153 6.70662,-14.85853 14.94342,-14.85853 8.27066,0 14.968861,6.64323 14.968861,14.85853 0,8.2237 -6.698201,14.875462 -14.968861,14.875462 -8.2368,0 -14.94342,-6.651762 -14.94342,-14.875462 m 14.94342,12.12859 c 6.73219,0 12.197861,-5.42624 12.197861,-12.12859 0,-6.69395 -5.465671,-12.1202 -12.197861,-12.1202 -6.7152,0 -12.17244,5.42625 -12.17244,12.1202 0,6.70235 5.45724,12.12859 12.17244,12.12859" /><path
   style="fill:#000000"
   inkscape:connector-curvature="0"
   id="path3830"
   d="m -84.046639,85.215398 c 0,-8.21523 6.70667,-14.8585 14.94344,-14.8585 8.27057,0 14.96884,6.64327 14.96884,14.8585 0,8.22383 -6.69827,14.875502 -14.96884,14.875502 -8.23677,0 -14.94344,-6.651672 -14.94344,-14.875502 m 14.94344,12.12867 c 6.73224,0 12.19779,-5.42636 12.19779,-12.12867 0,-6.69389 -5.46555,-12.12008 -12.19779,-12.12008 -6.71526,0 -12.1724,5.42619 -12.1724,12.12008 0,6.70231 5.45714,12.12867 12.1724,12.12867" /><path
   sodipodi:nodetypes="cc"
   inkscape:connector-curvature="0"
   id="path3832"
   d="m -78.019742,61.783161 0.01937,2.996794"
   style="fill:none;stroke:#000000;stroke-width:2.70501781;stroke-linecap:round;stroke-linejoin:round;stroke-miterlimit:4;stroke-opacity:1;stroke-dasharray:none" /><path
   style="fill:none;stroke:#000000;stroke-width:2.70501781;stroke-linecap:round;stroke-linejoin:round;stroke-miterlimit:4;stroke-opacity:1;stroke-dasharray:none"
   d="m -103.83766,59.654802 -2.2015,4.569929"
   id="path3834"
   inkscape:connector-curvature="0"
   sodipodi:nodetypes="cc" /><path
   sodipodi:nodetypes="cc"
   inkscape:connector-curvature="0"
   id="path3836"
   d="m -97.915267,59.192115 -7.105983,-1.815148"
   style="fill:none;stroke:#000000;stroke-width:2.70501781;stroke-linecap:round;stroke-linejoin:round;stroke-miterlimit:4;stroke-opacity:1;stroke-dasharray:none" /><path
   style="fill:none;stroke:#000000;stroke-width:2.70501781;stroke-linecap:round;stroke-linejoin:round;stroke-miterlimit:4;stroke-opacity:1;stroke-dasharray:none"
   d="m -74.780927,61.320474 -6.458222,0.128136"
   id="path3838"
   inkscape:connector-curvature="0"
   sodipodi:nodetypes="cc" /><path
   sodipodi:nodetypes="cc"
   inkscape:connector-curvature="0"
   id="path3840"
   d="m -141.36371,98.566189 0.0736,-72.305683"
   style="fill:none;stroke:#000000;stroke-width:4.59137869;stroke-linecap:round;stroke-linejoin:round;stroke-miterlimit:4;stroke-opacity:1;stroke-dasharray:none" /><path
   style="fill:none;stroke:#000000;stroke-width:5.22732115;stroke-linecap:round;stroke-linejoin:round;stroke-miterlimit:4;stroke-opacity:1;stroke-dasharray:none"
   d="m -140.30544,26.7342 45.503031,-0.155718"
   id="path3842"
   inkscape:connector-curvature="0"
   sodipodi:nodetypes="cc" /><path
   sodipodi:nodetypes="cc"
   inkscape:connector-curvature="0"
   id="path3844"
   d="m -140.72582,84.17892 21.17615,-0.06386"
   style="fill:none;stroke:#000000;stroke-width:5.12543011;stroke-linecap:round;stroke-linejoin:round;stroke-miterlimit:4;stroke-opacity:1;stroke-dasharray:none" /><path
   sodipodi:nodetypes="cc"
   inkscape:connector-curvature="0"
   id="path3846"
   d="m -139.56514,43.485251 c 6.08227,-9.24025 10.96015,-12.458609 15.66523,-14.812887"
   style="fill:none;stroke:#000000;stroke-width:5.22732115;stroke-linecap:round;stroke-linejoin:round;stroke-miterlimit:4;stroke-opacity:1;stroke-dasharray:none" /><path
   style="fill:none;stroke:#000000;stroke-width:3.20000005;stroke-linecap:round;stroke-linejoin:round;stroke-miterlimit:4;stroke-opacity:1;stroke-dasharray:none"
   d="m 49.488731,84.855002 6.566116,-21.99 28.555152,0 10.704999,21.99 -20.845213,0 L 56.896092,64.0674"
   id="path3056-5"
   inkscape:connector-curvature="0"
   sodipodi:nodetypes="cccccc" /><path
   style="fill:none;stroke:#000000;stroke-width:3.20000005;stroke-linecap:round;stroke-linejoin:round;stroke-miterlimit:4;stroke-opacity:1;stroke-dasharray:none"
   d="M 83.168798,63.498028 74.211353,83.546791"
   id="path3058-8"
   inkscape:connector-curvature="0"
   sodipodi:nodetypes="cc" /><path
   style="fill:#000000;stroke-width:3.19999998;stroke-miterlimit:4;stroke-dasharray:none"
   inkscape:connector-curvature="0"
   id="path3828-2"
   d="m 33.681187,84.045975 c 0,-8.801569 7.185225,-15.918881 16.009828,-15.918881 8.86088,0 16.037085,7.117312 16.037085,15.918881 0,8.810568 -7.176205,15.93702 -16.037085,15.93702 -8.824603,0 -16.009828,-7.126452 -16.009828,-15.93702 m 16.009828,12.994123 c 7.21262,0 13.068338,-5.813473 13.068338,-12.994123 0,-7.171651 -5.855718,-12.985135 -13.068338,-12.985135 -7.194417,0 -13.041102,5.813484 -13.041102,12.985135 0,7.18065 5.846685,12.994123 13.041102,12.994123" /><path
   style="fill:#000000;stroke-width:3.19999998;stroke-miterlimit:4;stroke-dasharray:none"
   inkscape:connector-curvature="0"
   id="path3830-7"
   d="m 79.432258,84.045932 c 0,-8.801494 7.185279,-15.918848 16.00985,-15.918848 8.860782,0 16.037062,7.117354 16.037062,15.918848 0,8.810707 -7.17628,15.937063 -16.037062,15.937063 -8.824571,0 -16.00985,-7.126356 -16.00985,-15.937063 m 16.00985,12.994209 c 7.212672,0 13.068262,-5.813602 13.068262,-12.994209 0,-7.171587 -5.85559,-12.985006 -13.068262,-12.985006 -7.194482,0 -13.04106,5.813419 -13.04106,12.985006 0,7.180607 5.846578,12.994209 13.04106,12.994209" /><path
   sodipodi:nodetypes="cc"
   inkscape:connector-curvature="0"
   id="path3832-9"
   d="m 85.365783,58.679764 -1.287926,3.341522"
   style="fill:none;stroke:#000000;stroke-width:3.20000005;stroke-linecap:round;stroke-linejoin:round;stroke-miterlimit:4;stroke-opacity:1;stroke-dasharray:none" /><path
   style="fill:none;stroke:#000000;stroke-width:3.20000005;stroke-linecap:round;stroke-linejoin:round;stroke-miterlimit:4;stroke-opacity:1;stroke-dasharray:none"
   d="m 58.621492,57.315592 -2.358605,4.896053"
   id="path3834-6"
   inkscape:connector-curvature="0"
   sodipodi:nodetypes="cc" /><path
   sodipodi:nodetypes="cc"
   inkscape:connector-curvature="0"
   id="path3836-1"
   d="M 64.443054,57.343356 56.829967,55.398673"
   style="fill:none;stroke:#000000;stroke-width:3.20000005;stroke-linecap:round;stroke-linejoin:round;stroke-miterlimit:4;stroke-opacity:1;stroke-dasharray:none" /><path
   style="fill:none;stroke:#000000;stroke-width:3.20000005;stroke-linecap:round;stroke-linejoin:round;stroke-miterlimit:4;stroke-opacity:1;stroke-dasharray:none"
   d="m 88.966597,57.791455 -6.919101,0.13728"
   id="path3838-7"
   inkscape:connector-curvature="0"
   sodipodi:nodetypes="cc" /><path
   sodipodi:nodetypes="cc"
   inkscape:connector-curvature="0"
   id="path3840-7"
   d="m 19.067999,98.458643 0,-72.30564"
   style="fill:none;stroke:#000000;stroke-width:4.59137869;stroke-linecap:round;stroke-linejoin:round;stroke-miterlimit:4;stroke-opacity:1;stroke-dasharray:none" /><path
   style="fill:none;stroke:#000000;stroke-width:5.22732115;stroke-linecap:round;stroke-linejoin:round;stroke-miterlimit:4;stroke-opacity:1;stroke-dasharray:none"
   d="m 19.067999,26.153003 46.561029,0"
   id="path3842-1"
   inkscape:connector-curvature="0"
   sodipodi:nodetypes="cc" /><path
   sodipodi:nodetypes="cc"
   inkscape:connector-curvature="0"
   id="path3844-9"
   d="m 19.705618,84.071002 21.176149,0"
   style="fill:none;stroke:#000000;stroke-width:5.12543011;stroke-linecap:round;stroke-linejoin:round;stroke-miterlimit:4;stroke-opacity:1;stroke-dasharray:none" /><path
   sodipodi:nodetypes="cc"
   inkscape:connector-curvature="0"
   id="path3846-0"
   d="M 19.067999,41.676067 C 25.150268,32.435817 31.574013,28.507281 36.279093,26.153003"
   style="fill:none;stroke:#000000;stroke-width:5.22732114999999990;stroke-linecap:butt;stroke-linejoin:round;stroke-miterlimit:4;stroke-opacity:1;stroke-dasharray:none" /></g>
</svg>