<?xml version="1.0" encoding="UTF-8" standalone="no"?>
<!-- Generator: Adobe Illustrator 13.0.2, SVG Export Plug-In . SVG Version: 6.00 Build 14948)  -->

<svg
   xmlns:dc="http://purl.org/dc/elements/1.1/"
   xmlns:cc="http://creativecommons.org/ns#"
   xmlns:rdf="http://www.w3.org/1999/02/22-rdf-syntax-ns#"
   xmlns:svg="http://www.w3.org/2000/svg"
   xmlns="http://www.w3.org/2000/svg"
   xmlns:sodipodi="http://sodipodi.sourceforge.net/DTD/sodipodi-0.dtd"
   xmlns:inkscape="http://www.inkscape.org/namespaces/inkscape"
   version="1.1"
   id="Layer_1"
   x="0px"
   y="0px"
   width="123.634"
   height="123.61"
   viewBox="-0.258 -0.548 123.634 123.61"
   xml:space="preserve"
   inkscape:version="0.48.4 r9939"
   sodipodi:docname="blue_flag.svg"><metadata
   id="metadata19"><rdf:RDF><cc:Work
       rdf:about=""><dc:format>image/svg+xml</dc:format><dc:type
         rdf:resource="http://purl.org/dc/dcmitype/StillImage" /><dc:title /></cc:Work></rdf:RDF></metadata><defs
   id="defs17" /><sodipodi:namedview
   pagecolor="#ffffff"
   bordercolor="#666666"
   borderopacity="1"
   objecttolerance="10"
   gridtolerance="10"
   guidetolerance="10"
   inkscape:pageopacity="0"
   inkscape:pageshadow="2"
   inkscape:window-width="1920"
   inkscape:window-height="1017"
   id="namedview15"
   showgrid="false"
   fit-margin-top="0"
   fit-margin-left="0"
   fit-margin-right="0"
   fit-margin-bottom="0"
   inkscape:zoom="7.6413116"
   inkscape:cx="74.017519"
   inkscape:cy="55.665077"
   inkscape:window-x="1592"
   inkscape:window-y="-8"
   inkscape:window-maximized="1"
   inkscape:current-layer="g2996" />
<g
   id="g3"
   transform="translate(-1.07,0.0339978)">
	<path
   style="fill:#000000"
   d="M 15.578,123.027 C 7.422,123.027 0.812,116.41 0.812,108.23 V 14.184 c 0,-8.148 6.609,-14.766 14.766,-14.766 h 94.102 c 8.156,0 14.766,6.617 14.766,14.766 v 94.047 c 0,8.18 -6.609,14.797 -14.766,14.797 H 15.578 z"
   id="path5"
   inkscape:connector-curvature="0" />
	<path
   style="fill:#ffffff"
   d="M 15.578,1.91 C 8.812,1.91 3.312,7.426 3.312,14.183 v 94.047 c 0,6.758 5.5,12.281 12.266,12.281 h 94.102 c 6.758,0 12.25,-5.523 12.25,-12.281 V 14.184 c 0,-6.758 -5.492,-12.273 -12.25,-12.273 H 15.578 z"
   id="path7"
   inkscape:connector-curvature="0" />
	
	
	
<g
   id="g2996"
   transform="translate(0.570971,-0.03959714)"><path
     inkscape:connector-curvature="0"
     style="fill:#000000;fill-opacity:1;stroke:none"
     id="path2987"
     d="m 109.06095,61.272295 a 47.002922,47.002922 0 0 1 -94.005842,0 47.002922,47.002922 0 1 1 94.005842,0 z" /><path
     inkscape:connector-curvature="0"
     style="fill:#ffffff;fill-opacity:1;stroke:none"
     id="path3007"
     d="m 59.555161,104.8703 c -4.853586,-0.26275 -9.127697,-1.1356 -13.425242,-2.74172 -1.553397,-0.58052 -4.079898,-1.78319 -5.543287,-2.63868 -0.985839,-0.576287 -2.851717,-1.805108 -3.103528,-2.043881 -0.09419,-0.08932 -0.160656,-0.194296 -0.147698,-0.233277 0.01635,-0.04918 0.329881,-0.07469 1.026499,-0.08354 15.007739,-0.190158 27.49305,-1.380975 35.513237,-3.387225 1.975507,-0.494151 4.059124,-1.143231 5.093719,-1.586717 0.477203,-0.204538 0.604059,-0.168388 1.33691,0.381025 1.273527,0.954637 2.91479,1.97986 4.264996,2.664091 0.939317,0.476038 2.202583,1.038663 2.703191,1.204012 0.310234,0.102433 0.320631,0.113209 0.318337,0.330062 -0.0026,0.250754 0.03452,0.217626 -1.289068,1.148857 -2.330935,1.639927 -5.047708,3.044903 -8.059263,4.167863 -0.873289,0.32567 -2.446248,0.84659 -2.653291,0.87876 -0.0672,0.0104 -0.149675,0.036 -0.183278,0.0568 -0.105801,0.0655 -1.603021,0.4665 -2.810094,0.75262 -1.972674,0.46764 -4.905167,0.89692 -7.30014,1.06867 -1.222749,0.0877 -4.596682,0.12433 -5.742,0.0623 z M 40.953168,94.848868 C 38.632464,94.760137 34.636081,94.477346 33.555074,94.32529 33.347712,94.296069 33.194655,94.192073 32.66928,93.723085 31.108993,92.330193 29.34932,90.324029 27.898438,88.283934 27.496326,87.71854 26.45778,86.143386 26.295763,85.853191 l -0.160623,-0.287714 0.139415,3.37e-4 c 0.07667,1.02e-4 0.594271,0.0542 1.150206,0.120137 7.405326,0.878164 15.699036,1.215454 22.508499,0.915398 11.674932,-0.514452 21.576382,-2.602837 30.025283,-6.332854 0.419988,-0.185428 0.920892,-0.416454 1.113135,-0.5134 0.192234,-0.09695 0.412152,-0.175599 0.488706,-0.17475 0.08892,0 0.415066,0.244596 0.902809,0.674343 0.697689,0.614696 1.656654,1.410504 2.109875,1.750855 0.09953,0.07478 0.318421,0.240583 0.486405,0.368507 1.343261,1.022753 3.675196,2.439105 5.223123,3.172377 2.016263,0.955122 4.265124,1.723006 6.065982,2.071182 l 0.537422,0.103917 -0.03888,0.18961 c -0.05731,0.279141 -0.43317,1.023292 -0.692284,1.370579 -0.866594,1.161494 -2.224023,2.627151 -3.275915,3.537147 -0.706322,0.610993 -2.04538,1.659793 -2.270204,1.778037 -0.301306,0.158468 -2.777672,-0.746681 -4.732483,-1.729854 -1.687389,-0.848681 -4.346393,-2.501063 -5.577317,-3.465939 -0.165597,-0.129792 -0.330867,-0.224565 -0.367239,-0.210622 -0.05473,0.0211 -3.239703,1.051756 -4.18824,1.355455 -0.682039,0.218342 -3.56842,1.022716 -4.699991,1.30975 -6.046799,1.533837 -11.755119,2.441772 -17.475345,2.77952 -3.852366,0.22746 -9.674347,0.326065 -12.614892,0.213659 z m 56.938964,-9.87068 c -1.96027,-0.371327 -3.93281,-0.995379 -5.96014,-1.885547 -0.732159,-0.321481 -2.178021,-1.068692 -2.775146,-1.434172 -0.221993,-0.135883 -0.419357,-0.247047 -0.438586,-0.247047 -0.01921,0 -0.479197,-0.292061 -1.022156,-0.649005 -1.825255,-1.199952 -3.313537,-2.392318 -4.770943,-3.822274 -0.233101,-0.228713 -0.44755,-0.415841 -0.476542,-0.415841 -0.02899,0 -0.525523,0.209062 -1.10341,0.46457 -0.577862,0.255511 -1.531758,0.655197 -2.119734,0.888231 -0.587989,0.233032 -1.137791,0.453108 -1.221783,0.489086 -0.363641,0.155805 -3.237766,1.160743 -4.215149,1.473891 -2.650614,0.849159 -5.944651,1.709369 -8.82737,2.305197 -10.150627,2.098041 -21.090508,2.630482 -32.560476,1.584743 -2.710279,-0.247112 -7.986022,-0.931794 -8.359289,-1.084843 -0.06174,-0.0252 -0.278731,-0.333894 -0.482185,-0.685701 -0.985659,-1.704442 -1.914543,-3.747088 -2.392923,-5.262195 -0.284864,-0.902205 -0.664227,-2.375754 -0.622402,-2.417579 0.01297,-0.01293 1.036693,0.08824 2.274874,0.224975 11.593639,1.280269 21.748424,1.501191 30.993643,0.674308 3.271584,-0.292606 6.822771,-0.794105 10.110234,-1.427817 5.843956,-1.126464 11.488248,-2.89371 16.236047,-5.083459 0.970111,-0.447435 3.051449,-1.483277 3.126146,-1.555842 0.03193,-0.03094 0.155617,-0.05597 0.2749,-0.05546 0.189129,0 0.275456,0.06069 0.675029,0.468378 3.377191,3.445909 8.31376,6.366277 14.111576,8.348128 0.957237,0.327227 2.917513,0.912921 3.818063,1.140749 0.43679,0.110513 0.81419,0.21824 0.8387,0.239388 0.0554,0.04785 -0.24468,1.196247 -0.5016,1.919313 -0.51595,1.452097 -1.25624,2.842402 -2.30425,4.327514 -0.560878,0.79482 -1.292635,1.63915 -1.415313,1.632994 -0.05477,-0.0034 -0.455197,-0.07236 -0.889815,-0.154684 z" /></g></g>
</svg>