<?xml version="1.0" encoding="UTF-8" standalone="no"?>
<!-- Generator: Adobe Illustrator 13.0.2, SVG Export Plug-In . SVG Version: 6.00 Build 14948)  -->

<svg
   xmlns:dc="http://purl.org/dc/elements/1.1/"
   xmlns:cc="http://creativecommons.org/ns#"
   xmlns:rdf="http://www.w3.org/1999/02/22-rdf-syntax-ns#"
   xmlns:svg="http://www.w3.org/2000/svg"
   xmlns="http://www.w3.org/2000/svg"
   xmlns:sodipodi="http://sodipodi.sourceforge.net/DTD/sodipodi-0.dtd"
   xmlns:inkscape="http://www.inkscape.org/namespaces/inkscape"
   version="1.1"
   id="Layer_1"
   x="0px"
   y="0px"
   width="123.634"
   height="123.61"
   viewBox="-0.258 -0.548 123.634 123.61"
   xml:space="preserve"
   inkscape:version="0.48.4 r9939"
   sodipodi:docname="changing_room.svg"><metadata
   id="metadata19"><rdf:RDF><cc:Work
       rdf:about=""><dc:format>image/svg+xml</dc:format><dc:type
         rdf:resource="http://purl.org/dc/dcmitype/StillImage" /><dc:title></dc:title></cc:Work></rdf:RDF></metadata><defs
   id="defs17"><inkscape:path-effect
     effect="spiro"
     id="path-effect4095"
     is_visible="true" /><inkscape:path-effect
     effect="spiro"
     id="path-effect4006"
     is_visible="true" /><inkscape:perspective
     sodipodi:type="inkscape:persp3d"
     inkscape:vp_x="0 : 61.805 : 1"
     inkscape:vp_y="0 : 1000 : 0"
     inkscape:vp_z="123.634 : 61.805 : 1"
     inkscape:persp3d-origin="61.817001 : 41.203334 : 1"
     id="perspective3956" /><inkscape:path-effect
     effect="spiro"
     id="path-effect3954"
     is_visible="true" /><inkscape:path-effect
     effect="spiro"
     id="path-effect3950"
     is_visible="true" /><clipPath
     clipPathUnits="userSpaceOnUse"
     id="clipPath954"><path
       inkscape:connector-curvature="0"
       d="m 0,0 1785.827,0 0,841.89 L 0,841.89 0,0 z"
       id="path956" /></clipPath><clipPath
     clipPathUnits="userSpaceOnUse"
     id="clipPath954-4"><path
       inkscape:connector-curvature="0"
       d="m 0,0 1785.827,0 0,841.89 L 0,841.89 0,0 z"
       id="path956-0" /></clipPath><inkscape:path-effect
     effect="spiro"
     id="path-effect4095-4"
     is_visible="true" /></defs><sodipodi:namedview
   pagecolor="#ffffff"
   bordercolor="#666666"
   borderopacity="1"
   objecttolerance="10"
   gridtolerance="10"
   guidetolerance="10"
   inkscape:pageopacity="0"
   inkscape:pageshadow="2"
   inkscape:window-width="1600"
   inkscape:window-height="837"
   id="namedview15"
   showgrid="false"
   fit-margin-top="0"
   fit-margin-left="0"
   fit-margin-right="0"
   fit-margin-bottom="0"
   inkscape:zoom="1.3508058"
   inkscape:cx="-62.717993"
   inkscape:cy="40.41573"
   inkscape:window-x="-8"
   inkscape:window-y="-8"
   inkscape:window-maximized="1"
   inkscape:current-layer="g3" />
<g
   id="g3"
   transform="translate(-1.07,0.0339978)">
	<path
   style="fill:#000000"
   d="M 15.578,123.027 C 7.422,123.027 0.812,116.41 0.812,108.23 V 14.184 c 0,-8.148 6.609,-14.766 14.766,-14.766 h 94.102 c 8.156,0 14.766,6.617 14.766,14.766 v 94.047 c 0,8.18 -6.609,14.797 -14.766,14.797 H 15.578 z"
   id="path5"
   inkscape:connector-curvature="0" />
	<path
   style="fill:#ffffff"
   d="M 15.578,1.91 C 8.812,1.91 3.312,7.426 3.312,14.183 v 94.047 c 0,6.758 5.5,12.281 12.266,12.281 h 94.102 c 6.758,0 12.25,-5.523 12.25,-12.281 V 14.184 c 0,-6.758 -5.492,-12.273 -12.25,-12.273 H 15.578 z"
   id="path7"
   inkscape:connector-curvature="0" />
	
	
	
<path
   style="fill:#000000;fill-opacity:1;fill-rule:nonzero;stroke:none"
   d="m 63.099116,26.52692 c -9.241475,-0.0066 -11.900627,9.032974 -11.890686,11.885501 -0.01,2.162635 0.332296,4.157284 1.642416,6.419414 2.282022,3.872166 6.80671,4.475862 6.813183,7.010056 l 0,2.585375 -41.329832,24.226938 c -4.099373,2.428248 -4.838865,7.551616 -3.932475,10.642045 0.837006,3.035203 3.866862,6.631258 9.3053,6.616289 0,0 70.223147,0.01474 77.292018,0 6.10742,0.01474 8.8894,-3.481854 9.75088,-6.517859 0.88136,-3.08943 0.87722,-7.903555 -3.83405,-10.792277 l -40.930871,-24.175136 0,-4.124169 C 65.982199,45.649538 60.9075,43.634989 60.9075,43.634989 57.595887,42.016485 57.876539,38.56267 57.876539,38.56267 c 0.0174,-4.068141 3.652695,-5.373816 5.2692,-5.372834 2.729167,-9.73e-4 5.403256,1.509578 5.673336,4.97389 0.454615,5.407603 6.593417,4.035926 6.6163,-0.295321 C 75.412435,33.735114 71.659652,26.519959 63.099116,26.52692 z m -0.549206,34.117708 40.09153,23.429036 c 2.50935,1.749018 1.16033,5.063967 -1.54396,5.07232 l -77.245386,0 c -2.534936,0.09516 -4.088239,-3.427906 -1.590605,-4.973873 L 62.54991,60.644628 z"
   id="path3595"
   inkscape:connector-curvature="0" /></g>
</svg>