<?xml version="1.0" encoding="UTF-8" standalone="no"?>
<!-- Generator: Adobe Illustrator 13.0.2, SVG Export Plug-In . SVG Version: 6.00 Build 14948)  -->

<svg
   xmlns:dc="http://purl.org/dc/elements/1.1/"
   xmlns:cc="http://creativecommons.org/ns#"
   xmlns:rdf="http://www.w3.org/1999/02/22-rdf-syntax-ns#"
   xmlns:svg="http://www.w3.org/2000/svg"
   xmlns="http://www.w3.org/2000/svg"
   xmlns:sodipodi="http://sodipodi.sourceforge.net/DTD/sodipodi-0.dtd"
   xmlns:inkscape="http://www.inkscape.org/namespaces/inkscape"
   version="1.1"
   id="Layer_1"
   x="0px"
   y="0px"
   width="123.548"
   height="123.555"
   viewBox="-0.258 -0.548 123.548 123.555"
   xml:space="preserve"
   inkscape:version="0.48.4 r9939"
   sodipodi:docname="danger.svg"
   inkscape:export-filename="C:\Users\MaartenPieter\Dropbox\YellowBytes\waterschapp\graphics_app\icons\voorzieningen\hdpi\kite_surfing.png"
   inkscape:export-xdpi="37.880001"
   inkscape:export-ydpi="37.880001"><metadata
   id="metadata21"><rdf:RDF><cc:Work
       rdf:about=""><dc:format>image/svg+xml</dc:format><dc:type
         rdf:resource="http://purl.org/dc/dcmitype/StillImage" /><dc:title /></cc:Work></rdf:RDF></metadata><defs
   id="defs19"><inkscape:path-effect
     effect="spiro"
     id="path-effect2994"
     is_visible="true" /></defs><sodipodi:namedview
   pagecolor="#ffffff"
   bordercolor="#666666"
   borderopacity="1"
   objecttolerance="10"
   gridtolerance="10"
   guidetolerance="10"
   inkscape:pageopacity="0"
   inkscape:pageshadow="2"
   inkscape:window-width="1920"
   inkscape:window-height="1017"
   id="namedview17"
   showgrid="false"
   fit-margin-top="0"
   fit-margin-left="0"
   fit-margin-right="0"
   fit-margin-bottom="0"
   inkscape:zoom="1.9103279"
   inkscape:cx="-143.87061"
   inkscape:cy="-31.126351"
   inkscape:window-x="3512"
   inkscape:window-y="-8"
   inkscape:window-maximized="1"
   inkscape:current-layer="flowRoot3782" />
<g
   id="g3"
   transform="translate(-1.117,-0.7000022)">
	<path
   style="fill:#000000"
   d="m 109.641,123.707 c 8.156,0 14.766,-6.617 14.766,-14.766 V 14.918 c 0,-8.148 -6.609,-14.766 -14.766,-14.766 H 15.617 C 7.461,0.152 0.859,6.769 0.859,14.918 v 94.023 c 0,8.148 6.602,14.766 14.758,14.766 h 94.024 z"
   id="path5"
   inkscape:connector-curvature="0" />
	<path
   style="fill:#ffffff"
   d="M 15.617,2.637 C 8.859,2.637 3.359,8.16 3.359,14.918 v 94.023 c 0,6.758 5.5,12.25 12.258,12.25 h 94.023 c 6.758,0 12.25,-5.492 12.25,-12.25 V 14.918 C 121.89,8.16 116.398,2.637 109.64,2.637 H 15.617 z"
   id="path7"
   inkscape:connector-curvature="0" />
	
	
	
	
<g
   transform="matrix(0.61760393,0,0,0.61760393,44.589664,-43.678554)"
   id="g3045"><path
     sodipodi:nodetypes="sssssss"
     inkscape:connector-curvature="0"
     id="path4014-8-4-9"
     d="m 34.423569,105.11454 72.919381,125.06393 c 1.73618,2.9777 -1.7362,8.93309 -5.20859,8.93309 l -145.838653,0 c -3.47236,0 -6.944721,-5.95539 -5.208529,-8.93309 L 24.006547,105.11454 c 1.736203,-2.9777 8.680795,-2.9777 10.417022,0 z"
     inkscape:transform-center-y="-20.402994"
     inkscape:transform-center-x="-1.6477732e-005"
     style="fill:#ffffff;fill-opacity:1;stroke:#000000;stroke-width:9.14463424999999930;stroke-linecap:butt;stroke-linejoin:miter;stroke-miterlimit:4;stroke-opacity:1;stroke-dasharray:none;stroke-dashoffset:0" /><g
     transform="matrix(2.9252425,0,0,2.9252425,-100.95823,-43.525301)"
     style="font-size:40px;font-style:normal;font-weight:normal;line-height:125%;letter-spacing:0px;word-spacing:0px;fill:#000000;fill-opacity:1;stroke:none;font-family:Sans"
     id="flowRoot3782"><path
       d="m 42.957031,84.696377 -1.425781,-14.53125 0,-6.71875 5.9375,0 0,6.71875 -1.40625,14.53125 z m -1.191406,7.382812 0,-5.488281 5.488281,0 0,5.488281 z"
       style="font-weight:bold"
       id="path2992" /></g></g></g>
</svg>