<?xml version="1.0" encoding="UTF-8" standalone="no"?>
<!-- Generator: Adobe Illustrator 13.0.2, SVG Export Plug-In . SVG Version: 6.00 Build 14948)  -->

<svg
   xmlns:dc="http://purl.org/dc/elements/1.1/"
   xmlns:cc="http://creativecommons.org/ns#"
   xmlns:rdf="http://www.w3.org/1999/02/22-rdf-syntax-ns#"
   xmlns:svg="http://www.w3.org/2000/svg"
   xmlns="http://www.w3.org/2000/svg"
   xmlns:sodipodi="http://sodipodi.sourceforge.net/DTD/sodipodi-0.dtd"
   xmlns:inkscape="http://www.inkscape.org/namespaces/inkscape"
   version="1.1"
   id="Layer_1"
   x="0px"
   y="0px"
   width="123.547px"
   height="123.539px"
   viewBox="-0.258 -0.548 123.547 123.539"
   style="enable-background:new -0.258 -0.548 123.547 123.539;"
   xml:space="preserve"
   inkscape:version="0.48.4 r9939"
   sodipodi:docname="dogs_allowed.svg"><metadata
   id="metadata19"><rdf:RDF><cc:Work
       rdf:about=""><dc:format>image/svg+xml</dc:format><dc:type
         rdf:resource="http://purl.org/dc/dcmitype/StillImage" /></cc:Work></rdf:RDF></metadata><defs
   id="defs17" /><sodipodi:namedview
   pagecolor="#ffffff"
   bordercolor="#666666"
   borderopacity="1"
   objecttolerance="10"
   gridtolerance="10"
   guidetolerance="10"
   inkscape:pageopacity="0"
   inkscape:pageshadow="2"
   inkscape:window-width="1172"
   inkscape:window-height="935"
   id="namedview15"
   showgrid="false"
   inkscape:zoom="1.9103279"
   inkscape:cx="-0.78120772"
   inkscape:cy="61.769501"
   inkscape:window-x="2072"
   inkscape:window-y="0"
   inkscape:window-maximized="0"
   inkscape:current-layer="g3" />
<g
   id="g3"
   transform="translate(-1.121,-0.607)">
	<path
   style="fill:#231f20"
   d="m 109.648,123.598 c 8.148,0 14.766,-6.594 14.766,-14.75 V 14.832 c 0,-8.156 -6.617,-14.773 -14.766,-14.773 H 15.617 C 7.476,0.059 0.859,6.676 0.859,14.832 v 94.016 c 0,8.156 6.617,14.75 14.758,14.75 h 94.031 z"
   id="path5"
   inkscape:connector-curvature="0" />
	<path
   style="fill:#ffffff"
   d="m 15.621,2.563 c -6.75,0 -12.25,5.516 -12.25,12.281 v 94.016 c 0,6.742 5.5,12.234 12.25,12.234 h 94.031 c 6.758,0 12.25,-5.492 12.25,-12.234 V 14.844 c 0,-6.766 -5.492,-12.281 -12.25,-12.281 H 15.621 z"
   id="path7"
   inkscape:connector-curvature="0" />
	
	
	<g
   id="g2996"
   transform="translate(-2.129,-2.4765)"><polygon
     id="polygon9"
     points="20.086,23.059 73.414,48.621 71.703,52.48 20.086,27.941 "
     style="fill:#231f20" /><path
     inkscape:connector-curvature="0"
     id="path11"
     d="m 54.07,79.434 h 22.594 v 20.164 c 0,3.297 2.656,5.953 5.953,5.953 l 0,0 c 3.297,0 5.984,-2.656 5.984,-5.953 V 79.434 c 1.781,0 1.953,-1.172 1.953,-2.547 V 61.855 L 71.68,52.621 H 31.562 l -5.18,-2.93 c -1.656,-0.953 -3.766,-0.367 -4.711,1.297 l 0,0 c -0.938,1.656 -0.367,3.758 1.297,4.711 l 8.18,4.688 v 39.211 c 0,3.297 2.672,5.953 5.969,5.953 l 0,0 c 3.297,0 5.969,-2.656 5.969,-5.953 l -0.016,-15.36 10.82,18.266 c 1.68,2.828 5.336,3.758 8.195,2.07 l 0,0 c 2.805,-1.68 3.734,-5.367 2.047,-8.203 L 54.07,79.434 z"
     style="fill:#231f20" /><polygon
     id="polygon13"
     points="73.539,48.52 90.531,56.605 90.531,53.426 104.367,53.402 109.445,42.488 73.539,25.379 "
     style="fill:#231f20" /></g>
</g>
</svg>