<?xml version="1.0" encoding="UTF-8" standalone="no"?>
<!-- Generator: Adobe Illustrator 13.0.2, SVG Export Plug-In . SVG Version: 6.00 Build 14948)  -->

<svg
   xmlns:dc="http://purl.org/dc/elements/1.1/"
   xmlns:cc="http://creativecommons.org/ns#"
   xmlns:rdf="http://www.w3.org/1999/02/22-rdf-syntax-ns#"
   xmlns:svg="http://www.w3.org/2000/svg"
   xmlns="http://www.w3.org/2000/svg"
   xmlns:sodipodi="http://sodipodi.sourceforge.net/DTD/sodipodi-0.dtd"
   xmlns:inkscape="http://www.inkscape.org/namespaces/inkscape"
   version="1.1"
   id="Layer_1"
   x="0px"
   y="0px"
   width="123.634"
   height="123.61"
   viewBox="-0.258 -0.548 123.634 123.61"
   xml:space="preserve"
   inkscape:version="0.48.4 r9939"
   sodipodi:docname="bike_parking_v2.svg"
   inkscape:export-filename="C:\Users\MaartenPieter\Dropbox\YellowBytes\waterschapp\graphics_app\icons\voorzieningen\hdpi\bike_parking_v2.png"
   inkscape:export-xdpi="37.849998"
   inkscape:export-ydpi="37.849998"><metadata
   id="metadata19"><rdf:RDF><cc:Work
       rdf:about=""><dc:format>image/svg+xml</dc:format><dc:type
         rdf:resource="http://purl.org/dc/dcmitype/StillImage" /><dc:title></dc:title></cc:Work></rdf:RDF></metadata><defs
   id="defs17"><inkscape:path-effect
     effect="spiro"
     id="path-effect4095"
     is_visible="true" /><inkscape:path-effect
     effect="spiro"
     id="path-effect4006"
     is_visible="true" /><inkscape:perspective
     sodipodi:type="inkscape:persp3d"
     inkscape:vp_x="0 : 61.805 : 1"
     inkscape:vp_y="0 : 1000 : 0"
     inkscape:vp_z="123.634 : 61.805 : 1"
     inkscape:persp3d-origin="61.817001 : 41.203334 : 1"
     id="perspective3956" /><inkscape:path-effect
     effect="spiro"
     id="path-effect3954"
     is_visible="true" /><inkscape:path-effect
     effect="spiro"
     id="path-effect3950"
     is_visible="true" /><clipPath
     clipPathUnits="userSpaceOnUse"
     id="clipPath954"><path
       inkscape:connector-curvature="0"
       d="m 0,0 1785.827,0 0,841.89 L 0,841.89 0,0 z"
       id="path956" /></clipPath><clipPath
     clipPathUnits="userSpaceOnUse"
     id="clipPath954-4"><path
       inkscape:connector-curvature="0"
       d="m 0,0 1785.827,0 0,841.89 L 0,841.89 0,0 z"
       id="path956-0" /></clipPath><inkscape:path-effect
     effect="spiro"
     id="path-effect4095-4"
     is_visible="true" /></defs><sodipodi:namedview
   pagecolor="#ffffff"
   bordercolor="#666666"
   borderopacity="1"
   objecttolerance="10"
   gridtolerance="10"
   guidetolerance="10"
   inkscape:pageopacity="0"
   inkscape:pageshadow="2"
   inkscape:window-width="1417"
   inkscape:window-height="771"
   id="namedview15"
   showgrid="false"
   fit-margin-top="0"
   fit-margin-left="0"
   fit-margin-right="0"
   fit-margin-bottom="0"
   inkscape:zoom="0.67540291"
   inkscape:cx="-115.74433"
   inkscape:cy="-220.16803"
   inkscape:window-x="26"
   inkscape:window-y="26"
   inkscape:window-maximized="0"
   inkscape:current-layer="g3"
   showguides="true"
   inkscape:guide-bbox="true" />
<g
   id="g3"
   transform="translate(-1.07,0.0339978)">
	<path
   style="fill:#000000"
   d="M 15.578,123.027 C 7.422,123.027 0.812,116.41 0.812,108.23 V 14.184 c 0,-8.148 6.609,-14.766 14.766,-14.766 h 94.102 c 8.156,0 14.766,6.617 14.766,14.766 v 94.047 c 0,8.18 -6.609,14.797 -14.766,14.797 H 15.578 z"
   id="path5"
   inkscape:connector-curvature="0" />
	<path
   style="fill:#ffffff"
   d="M 15.578,1.91 C 8.812,1.91 3.312,7.426 3.312,14.183 v 94.047 c 0,6.758 5.5,12.281 12.266,12.281 h 94.102 c 6.758,0 12.25,-5.523 12.25,-12.281 V 14.184 c 0,-6.758 -5.492,-12.273 -12.25,-12.273 H 15.578 z"
   id="path7"
   inkscape:connector-curvature="0" />
	
	
	
<g
   id="g3924"
   transform="translate(-2.3796635,-20.424617)"><path
     sodipodi:nodetypes="cc"
     inkscape:connector-curvature="0"
     id="path3899"
     d="m 29.397521,81.549442 c 37.252857,-24.670596 53.944095,-11.412618 71.440089,0"
     style="fill:none;stroke:#000000;stroke-width:5.82510996;stroke-linecap:butt;stroke-linejoin:miter;stroke-miterlimit:4;stroke-opacity:1;stroke-dasharray:none" /><path
     style="fill:none;stroke:#000000;stroke-width:5.82510996;stroke-linecap:round;stroke-linejoin:miter;stroke-miterlimit:4;stroke-opacity:1;stroke-dasharray:none"
     d="m 29.397521,81.549442 c 37.252857,-24.670596 53.944095,-11.412618 71.440089,0"
     id="path3903"
     inkscape:connector-curvature="0"
     sodipodi:nodetypes="cc" /><path
     sodipodi:nodetypes="cc"
     inkscape:connector-curvature="0"
     id="path3905"
     d="m 29.179717,81.745797 c 37.25285,24.670593 53.944095,11.412618 71.440093,0"
     style="fill:none;stroke:#000000;stroke-width:5.82510996;stroke-linecap:round;stroke-linejoin:miter;stroke-miterlimit:4;stroke-opacity:1;stroke-dasharray:none" /><path
     transform="matrix(0.39818338,0,0,0.39818338,173.32082,2.263623)"
     d="m -235.41503,198.01004 c 0,19.01179 -15.4121,34.4239 -34.4239,34.4239 -19.01179,0 -34.4239,-15.41211 -34.4239,-34.4239 0,-19.01179 15.41211,-34.4239 34.4239,-34.4239 19.0118,0 34.4239,15.41211 34.4239,34.4239 z"
     sodipodi:ry="34.423897"
     sodipodi:rx="34.423897"
     sodipodi:cy="198.01004"
     sodipodi:cx="-269.83893"
     id="path3909"
     style="fill:#000000;fill-opacity:1;stroke:none"
     sodipodi:type="arc" /><path
     sodipodi:type="arc"
     style="fill:#ffffff;fill-opacity:1;stroke:none"
     id="path3911"
     sodipodi:cx="-269.83893"
     sodipodi:cy="198.01004"
     sodipodi:rx="34.423897"
     sodipodi:ry="34.423897"
     d="m -235.41503,198.01004 c 0,19.01179 -15.4121,34.4239 -34.4239,34.4239 -19.01179,0 -34.4239,-15.41211 -34.4239,-34.4239 0,-19.01179 15.41211,-34.4239 34.4239,-34.4239 19.0118,0 34.4239,15.41211 34.4239,34.4239 z"
     transform="matrix(0.10737529,0,0,0.13869309,100.20252,54.914768)" /></g></g>
</svg>