<?xml version="1.0" encoding="UTF-8" standalone="no"?>
<!-- Generator: Adobe Illustrator 13.0.2, SVG Export Plug-In . SVG Version: 6.00 Build 14948)  -->

<svg
   xmlns:dc="http://purl.org/dc/elements/1.1/"
   xmlns:cc="http://creativecommons.org/ns#"
   xmlns:rdf="http://www.w3.org/1999/02/22-rdf-syntax-ns#"
   xmlns:svg="http://www.w3.org/2000/svg"
   xmlns="http://www.w3.org/2000/svg"
   xmlns:sodipodi="http://sodipodi.sourceforge.net/DTD/sodipodi-0.dtd"
   xmlns:inkscape="http://www.inkscape.org/namespaces/inkscape"
   version="1.1"
   id="Layer_1"
   x="0px"
   y="0px"
   width="123.53899"
   height="123.554"
   viewBox="-0.258 -0.548 123.539 123.554"
   xml:space="preserve"
   inkscape:version="0.48.4 r9939"
   sodipodi:docname="first_aid.svg"
   inkscape:export-filename="C:\Users\MaartenPieter\Dropbox\YellowBytes\waterschapp\graphics_app\icons\voorzieningen\hdpi\first_aid.png"
   inkscape:export-xdpi="37.880001"
   inkscape:export-ydpi="37.880001"><metadata
   id="metadata15"><rdf:RDF><cc:Work
       rdf:about=""><dc:format>image/svg+xml</dc:format><dc:type
         rdf:resource="http://purl.org/dc/dcmitype/StillImage" /><dc:title></dc:title></cc:Work></rdf:RDF></metadata><defs
   id="defs13" /><sodipodi:namedview
   pagecolor="#ffffff"
   bordercolor="#666666"
   borderopacity="1"
   objecttolerance="10"
   gridtolerance="10"
   guidetolerance="10"
   inkscape:pageopacity="0"
   inkscape:pageshadow="2"
   inkscape:window-width="683"
   inkscape:window-height="480"
   id="namedview11"
   showgrid="false"
   fit-margin-top="0"
   fit-margin-left="0"
   fit-margin-right="0"
   fit-margin-bottom="0"
   inkscape:zoom="1.9103279"
   inkscape:cx="141.07867"
   inkscape:cy="61.758499"
   inkscape:window-x="0"
   inkscape:window-y="0"
   inkscape:window-maximized="0"
   inkscape:current-layer="Layer_1" />
<g
   id="g3"
   transform="translate(-1.571,0.0259978)">
	<path
   style="fill:#231f20"
   d="m 110.102,122.98 c 8.156,0 14.75,-6.617 14.75,-14.773 V 14.199 c 0,-8.156 -6.594,-14.773 -14.75,-14.773 H 16.086 C 7.93,-0.574 1.313,6.043 1.313,14.199 v 94.008 c 0,8.156 6.617,14.773 14.773,14.773 h 94.016 z"
   id="path5"
   inkscape:connector-curvature="0" />
	<path
   style="fill:#ffffff"
   d="M 16.086,1.926 C 9.313,1.926 3.813,7.434 3.813,14.199 v 94.008 c 0,6.766 5.5,12.281 12.273,12.281 h 94.016 c 6.75,0 12.242,-5.516 12.242,-12.281 V 14.199 c 0,-6.766 -5.492,-12.273 -12.242,-12.273 H 16.086 z"
   id="path7"
   inkscape:connector-curvature="0" />
	<polygon
   style="fill:#231f20"
   points="100.219,73.793 100.219,48.449 74.875,48.449 74.898,23.152 49.578,23.152 49.602,48.449 24.266,48.449 24.266,73.793 49.602,73.793 49.578,99.074 74.898,99.074 74.875,73.793 "
   id="polygon9" />
</g>
</svg>