<?xml version="1.0" encoding="UTF-8" standalone="no"?>
<!-- Generator: Adobe Illustrator 13.0.2, SVG Export Plug-In . SVG Version: 6.00 Build 14948)  -->

<svg
   xmlns:dc="http://purl.org/dc/elements/1.1/"
   xmlns:cc="http://creativecommons.org/ns#"
   xmlns:rdf="http://www.w3.org/1999/02/22-rdf-syntax-ns#"
   xmlns:svg="http://www.w3.org/2000/svg"
   xmlns="http://www.w3.org/2000/svg"
   xmlns:sodipodi="http://sodipodi.sourceforge.net/DTD/sodipodi-0.dtd"
   xmlns:inkscape="http://www.inkscape.org/namespaces/inkscape"
   version="1.1"
   id="Layer_1"
   x="0px"
   y="0px"
   width="123.547px"
   height="123.539px"
   viewBox="-0.258 -0.548 123.547 123.539"
   style="enable-background:new -0.258 -0.548 123.547 123.539;"
   xml:space="preserve"
   inkscape:version="0.48.4 r9939"
   sodipodi:docname="generic.svg"><metadata
   id="metadata17"><rdf:RDF><cc:Work
       rdf:about=""><dc:format>image/svg+xml</dc:format><dc:type
         rdf:resource="http://purl.org/dc/dcmitype/StillImage" /></cc:Work></rdf:RDF></metadata><defs
   id="defs15" /><sodipodi:namedview
   pagecolor="#ffffff"
   bordercolor="#666666"
   borderopacity="1"
   objecttolerance="10"
   gridtolerance="10"
   guidetolerance="10"
   inkscape:pageopacity="0"
   inkscape:pageshadow="2"
   inkscape:window-width="1920"
   inkscape:window-height="1017"
   id="namedview13"
   showgrid="false"
   inkscape:zoom="1.3508058"
   inkscape:cx="-230.17345"
   inkscape:cy="67.141199"
   inkscape:window-x="3512"
   inkscape:window-y="-8"
   inkscape:window-maximized="1"
   inkscape:current-layer="text2994" />
<g
   id="g3">
	<path
   style="fill:#231f20"
   d="m 108.5235,122.983 c 8.156,0 14.758,-6.586 14.758,-14.742 V 14.218 c 0,-8.156 -6.602,-14.758 -14.758,-14.758 h -94.016 c -8.156,0 -14.758,6.602 -14.758,14.758 v 94.023 c 0,8.156 6.602,14.742 14.758,14.742 h 94.016 z"
   id="path5"
   inkscape:connector-curvature="0" />
	<path
   style="fill:#ffffff"
   d="m 14.5075,1.956 c -6.758,0 -12.258,5.5 -12.258,12.258 v 94.023 c 0,6.758 5.5,12.25 12.258,12.25 h 94.016 c 6.766,0 12.258,-5.492 12.258,-12.25 V 14.214 c 0,-6.758 -5.492,-12.258 -12.258,-12.258 h -94.016 z"
   id="path7"
   inkscape:connector-curvature="0" />
	
	
<g
   style="font-size:40px;font-style:normal;font-weight:normal;line-height:125%;letter-spacing:0px;word-spacing:0px;fill:#000000;fill-opacity:1;stroke:none;font-family:Sans"
   id="text2994"><path
     d="m 58.31628,74.739075 c -0.02345,-0.843737 -0.03517,-1.476549 -0.03516,-1.898438 -1.6e-5,-2.484358 0.351546,-4.628887 1.054688,-6.433594 0.515606,-1.359352 1.347637,-2.730445 2.496093,-4.113281 0.843729,-1.007786 2.361306,-2.478488 4.552735,-4.412109 2.191379,-1.933562 3.615206,-3.474577 4.271484,-4.623047 0.656221,-1.148402 0.984345,-2.402307 0.984375,-3.761719 -3e-5,-2.460897 -0.960966,-4.623004 -2.882812,-6.486328 -1.9219,-1.863235 -4.277367,-2.794875 -7.066407,-2.794922 -2.695329,4.7e-5 -4.945327,0.843797 -6.75,2.53125 -1.804699,1.687543 -2.988291,4.324259 -3.550781,7.910156 l -6.503906,-0.773437 c 0.585934,-4.804645 2.326166,-8.484329 5.220703,-11.039063 2.89452,-2.554636 6.720688,-3.831978 11.478516,-3.832031 5.039037,5.3e-5 9.058564,1.371145 12.058593,4.113281 2.999965,2.742234 4.499964,6.058636 4.5,9.949219 -3.6e-5,2.250036 -0.527379,4.324253 -1.582031,6.222656 -1.054721,1.898468 -3.117219,4.20706 -6.1875,6.925782 -2.062526,1.828148 -3.410181,3.175803 -4.042969,4.042968 -0.632836,0.867208 -1.101586,1.863301 -1.40625,2.988282 -0.30471,1.125017 -0.480491,2.95314 -0.527343,5.484375 z m -0.386718,12.691406 0,-7.207031 7.207031,0 0,7.207031 z"
     style="font-size:72px"
     id="path2987" /></g>

</g>
</svg>