<?xml version="1.0" encoding="UTF-8" standalone="no"?>
<!-- Generator: Adobe Illustrator 13.0.2, SVG Export Plug-In . SVG Version: 6.00 Build 14948)  -->

<svg
   xmlns:dc="http://purl.org/dc/elements/1.1/"
   xmlns:cc="http://creativecommons.org/ns#"
   xmlns:rdf="http://www.w3.org/1999/02/22-rdf-syntax-ns#"
   xmlns:svg="http://www.w3.org/2000/svg"
   xmlns="http://www.w3.org/2000/svg"
   xmlns:sodipodi="http://sodipodi.sourceforge.net/DTD/sodipodi-0.dtd"
   xmlns:inkscape="http://www.inkscape.org/namespaces/inkscape"
   version="1.1"
   id="Layer_1"
   x="0px"
   y="0px"
   width="123.634"
   height="123.61"
   viewBox="-0.258 -0.548 123.634 123.61"
   xml:space="preserve"
   inkscape:version="0.48.4 r9939"
   sodipodi:docname="information_sign.svg"><metadata
   id="metadata19"><rdf:RDF><cc:Work
       rdf:about=""><dc:format>image/svg+xml</dc:format><dc:type
         rdf:resource="http://purl.org/dc/dcmitype/StillImage" /><dc:title /></cc:Work></rdf:RDF></metadata><defs
   id="defs17"><inkscape:path-effect
     effect="spiro"
     id="path-effect4006"
     is_visible="true" /><inkscape:perspective
     sodipodi:type="inkscape:persp3d"
     inkscape:vp_x="0 : 61.805 : 1"
     inkscape:vp_y="0 : 1000 : 0"
     inkscape:vp_z="123.634 : 61.805 : 1"
     inkscape:persp3d-origin="61.817001 : 41.203334 : 1"
     id="perspective3956" /><inkscape:path-effect
     effect="spiro"
     id="path-effect3954"
     is_visible="true" /><inkscape:path-effect
     effect="spiro"
     id="path-effect3950"
     is_visible="true" /><clipPath
     clipPathUnits="userSpaceOnUse"
     id="clipPath954"><path
       inkscape:connector-curvature="0"
       d="m 0,0 1785.827,0 0,841.89 L 0,841.89 0,0 z"
       id="path956" /></clipPath><clipPath
     clipPathUnits="userSpaceOnUse"
     id="clipPath954-4"><path
       inkscape:connector-curvature="0"
       d="m 0,0 1785.827,0 0,841.89 L 0,841.89 0,0 z"
       id="path956-0" /></clipPath></defs><sodipodi:namedview
   pagecolor="#ffffff"
   bordercolor="#666666"
   borderopacity="1"
   objecttolerance="10"
   gridtolerance="10"
   guidetolerance="10"
   inkscape:pageopacity="0"
   inkscape:pageshadow="2"
   inkscape:window-width="1920"
   inkscape:window-height="1017"
   id="namedview15"
   showgrid="false"
   fit-margin-top="0"
   fit-margin-left="0"
   fit-margin-right="0"
   fit-margin-bottom="0"
   inkscape:zoom="2.8284271"
   inkscape:cx="-71.15503"
   inkscape:cy="54.366133"
   inkscape:window-x="1592"
   inkscape:window-y="-8"
   inkscape:window-maximized="1"
   inkscape:current-layer="g3" />
<g
   id="g3"
   transform="translate(-1.07,0.0339978)">
	<path
   style="fill:#000000"
   d="M 15.578,123.027 C 7.422,123.027 0.812,116.41 0.812,108.23 V 14.184 c 0,-8.148 6.609,-14.766 14.766,-14.766 h 94.102 c 8.156,0 14.766,6.617 14.766,14.766 v 94.047 c 0,8.18 -6.609,14.797 -14.766,14.797 H 15.578 z"
   id="path5"
   inkscape:connector-curvature="0" />
	<path
   style="fill:#ffffff"
   d="M 15.578,1.91 C 8.812,1.91 3.312,7.426 3.312,14.183 v 94.047 c 0,6.758 5.5,12.281 12.266,12.281 h 94.102 c 6.758,0 12.25,-5.523 12.25,-12.281 V 14.184 c 0,-6.758 -5.492,-12.273 -12.25,-12.273 H 15.578 z"
   id="path7"
   inkscape:connector-curvature="0" />
	
	
	
<g
   id="g3786"
   transform="translate(1.4853539,-4.5856168)" /><g
   transform="matrix(3.5585555,0,0,3.5585555,-118.51677,-116.05038)"
   style="font-size:40px;font-style:normal;font-variant:normal;font-weight:normal;font-stretch:normal;line-height:125%;letter-spacing:0px;word-spacing:0px;fill:#000000;fill-opacity:1;stroke:none;font-family:FrankRuehl;-inkscape-font-specification:FrankRuehl"
   id="flowRoot3793"><path
     d="m 53.023437,38.854874 c -7e-6,0.5469 -0.192064,1.01565 -0.576171,1.40625 -0.384122,0.390649 -0.849616,0.585961 -1.396485,0.585937 -0.54688,2.4e-5 -1.01563,-0.195288 -1.40625,-0.585937 -0.390629,-0.3906 -0.585941,-0.85935 -0.585937,-1.40625 -4e-6,-0.55987 0.192053,-1.028619 0.576172,-1.40625 0.384109,-0.377577 0.856114,-0.566379 1.416015,-0.566407 0.546869,2.8e-5 1.012363,0.192085 1.396485,0.576172 0.384107,0.384142 0.576164,0.849636 0.576171,1.396485 z M 55.386719,62.75 l -8.691407,0 0,-0.703125 c 1.315102,10e-7 2.141924,-0.364582 2.480469,-1.09375 0.169267,-0.390623 0.253902,-1.13932 0.253906,-2.246094 l 0,-6.894531 c -4e-6,-1.953112 -0.0586,-3.209621 -0.175781,-3.769531 -0.156254,-0.742172 -0.566409,-1.113266 -1.230469,-1.113282 -0.364585,1.6e-5 -0.807293,0.09767 -1.328125,0.292969 l -0.273437,-0.703125 5.390625,-2.1875 0.859375,0 0,14.375 c -7e-6,1.67969 0.325513,2.701825 0.976562,3.066406 0.312492,0.182293 0.891918,0.273439 1.738282,0.273438 z"
     style="font-family:FrankRuehl;-inkscape-font-specification:FrankRuehl;fill:#000000"
     id="path3802"
     inkscape:connector-curvature="0"
     sodipodi:nodetypes="cccccccccccccssccccccsccc" /></g></g>
</svg>