<?xml version="1.0" encoding="UTF-8" standalone="no"?>
<!-- Created with Inkscape (http://www.inkscape.org/) -->

<svg
   xmlns:dc="http://purl.org/dc/elements/1.1/"
   xmlns:cc="http://creativecommons.org/ns#"
   xmlns:rdf="http://www.w3.org/1999/02/22-rdf-syntax-ns#"
   xmlns:svg="http://www.w3.org/2000/svg"
   xmlns="http://www.w3.org/2000/svg"
   xmlns:sodipodi="http://sodipodi.sourceforge.net/DTD/sodipodi-0.dtd"
   xmlns:inkscape="http://www.inkscape.org/namespaces/inkscape"
   id="svg18076"
   sodipodi:version="0.32"
   inkscape:version="0.48.4 r9939"
   width="695.4527"
   height="695.53711"
   sodipodi:docname="jetski.svg"
   inkscape:output_extension="org.inkscape.output.svg.inkscape"
   version="1.1">
  <metadata
     id="metadata18081">
    <rdf:RDF>
      <cc:Work
         rdf:about="">
        <dc:format>image/svg+xml</dc:format>
        <dc:type
           rdf:resource="http://purl.org/dc/dcmitype/StillImage" />
        <dc:rights>
          <cc:Agent>
            <dc:title>Public Domain</dc:title>
          </cc:Agent>
        </dc:rights>
        <dc:publisher>
          <cc:Agent>
            <dc:title>clker.com</dc:title>
          </cc:Agent>
        </dc:publisher>
        <dc:creator>
          <cc:Agent>
            <dc:title>Mohamed Ibrahim</dc:title>
          </cc:Agent>
        </dc:creator>
        <cc:license
           rdf:resource="http://creativecommons.org/licenses/publicdomain/" />
        <dc:title>map symbols</dc:title>
        <dc:subject>
          <rdf:Bag>
            <rdf:li>map symbols</rdf:li>
          </rdf:Bag>
        </dc:subject>
      </cc:Work>
      <cc:License
         rdf:about="http://creativecommons.org/licenses/publicdomain/">
        <cc:permits
           rdf:resource="http://creativecommons.org/ns#Reproduction" />
        <cc:permits
           rdf:resource="http://creativecommons.org/ns#Distribution" />
        <cc:permits
           rdf:resource="http://creativecommons.org/ns#DerivativeWorks" />
      </cc:License>
    </rdf:RDF>
  </metadata>
  <defs
     id="defs18079">
    <inkscape:perspective
       sodipodi:type="inkscape:persp3d"
       inkscape:vp_x="0 : 526.18109 : 1"
       inkscape:vp_y="0 : 1000 : 0"
       inkscape:vp_z="744.09448 : 526.18109 : 1"
       inkscape:persp3d-origin="372.04724 : 350.78739 : 1"
       id="perspective18083" />
    <inkscape:perspective
       id="perspective18071"
       inkscape:persp3d-origin="372.04724 : 350.78739 : 1"
       inkscape:vp_z="744.09448 : 526.18109 : 1"
       inkscape:vp_y="0 : 1000 : 0"
       inkscape:vp_x="0 : 526.18109 : 1"
       sodipodi:type="inkscape:persp3d" />
    <inkscape:perspective
       id="perspective21220"
       inkscape:persp3d-origin="372.04724 : 350.78739 : 1"
       inkscape:vp_z="744.09448 : 526.18109 : 1"
       inkscape:vp_y="0 : 1000 : 0"
       inkscape:vp_x="0 : 526.18109 : 1"
       sodipodi:type="inkscape:persp3d" />
    <inkscape:perspective
       id="perspective21262"
       inkscape:persp3d-origin="372.04724 : 350.78739 : 1"
       inkscape:vp_z="744.09448 : 526.18109 : 1"
       inkscape:vp_y="0 : 1000 : 0"
       inkscape:vp_x="0 : 526.18109 : 1"
       sodipodi:type="inkscape:persp3d" />
    <inkscape:perspective
       id="perspective21289"
       inkscape:persp3d-origin="372.04724 : 350.78739 : 1"
       inkscape:vp_z="744.09448 : 526.18109 : 1"
       inkscape:vp_y="0 : 1000 : 0"
       inkscape:vp_x="0 : 526.18109 : 1"
       sodipodi:type="inkscape:persp3d" />
    <inkscape:perspective
       id="perspective21316"
       inkscape:persp3d-origin="372.04724 : 350.78739 : 1"
       inkscape:vp_z="744.09448 : 526.18109 : 1"
       inkscape:vp_y="0 : 1000 : 0"
       inkscape:vp_x="0 : 526.18109 : 1"
       sodipodi:type="inkscape:persp3d" />
    <inkscape:perspective
       id="perspective21355"
       inkscape:persp3d-origin="372.04724 : 350.78739 : 1"
       inkscape:vp_z="744.09448 : 526.18109 : 1"
       inkscape:vp_y="0 : 1000 : 0"
       inkscape:vp_x="0 : 526.18109 : 1"
       sodipodi:type="inkscape:persp3d" />
    <inkscape:perspective
       id="perspective21394"
       inkscape:persp3d-origin="372.04724 : 350.78739 : 1"
       inkscape:vp_z="744.09448 : 526.18109 : 1"
       inkscape:vp_y="0 : 1000 : 0"
       inkscape:vp_x="0 : 526.18109 : 1"
       sodipodi:type="inkscape:persp3d" />
    <inkscape:perspective
       id="perspective21430"
       inkscape:persp3d-origin="372.04724 : 350.78739 : 1"
       inkscape:vp_z="744.09448 : 526.18109 : 1"
       inkscape:vp_y="0 : 1000 : 0"
       inkscape:vp_x="0 : 526.18109 : 1"
       sodipodi:type="inkscape:persp3d" />
    <inkscape:perspective
       id="perspective21466"
       inkscape:persp3d-origin="372.04724 : 350.78739 : 1"
       inkscape:vp_z="744.09448 : 526.18109 : 1"
       inkscape:vp_y="0 : 1000 : 0"
       inkscape:vp_x="0 : 526.18109 : 1"
       sodipodi:type="inkscape:persp3d" />
    <inkscape:perspective
       id="perspective21499"
       inkscape:persp3d-origin="372.04724 : 350.78739 : 1"
       inkscape:vp_z="744.09448 : 526.18109 : 1"
       inkscape:vp_y="0 : 1000 : 0"
       inkscape:vp_x="0 : 526.18109 : 1"
       sodipodi:type="inkscape:persp3d" />
    <inkscape:perspective
       id="perspective21532"
       inkscape:persp3d-origin="372.04724 : 350.78739 : 1"
       inkscape:vp_z="744.09448 : 526.18109 : 1"
       inkscape:vp_y="0 : 1000 : 0"
       inkscape:vp_x="0 : 526.18109 : 1"
       sodipodi:type="inkscape:persp3d" />
    <inkscape:perspective
       id="perspective21568"
       inkscape:persp3d-origin="372.04724 : 350.78739 : 1"
       inkscape:vp_z="744.09448 : 526.18109 : 1"
       inkscape:vp_y="0 : 1000 : 0"
       inkscape:vp_x="0 : 526.18109 : 1"
       sodipodi:type="inkscape:persp3d" />
    <inkscape:perspective
       id="perspective21604"
       inkscape:persp3d-origin="372.04724 : 350.78739 : 1"
       inkscape:vp_z="744.09448 : 526.18109 : 1"
       inkscape:vp_y="0 : 1000 : 0"
       inkscape:vp_x="0 : 526.18109 : 1"
       sodipodi:type="inkscape:persp3d" />
    <inkscape:perspective
       id="perspective21631"
       inkscape:persp3d-origin="372.04724 : 350.78739 : 1"
       inkscape:vp_z="744.09448 : 526.18109 : 1"
       inkscape:vp_y="0 : 1000 : 0"
       inkscape:vp_x="0 : 526.18109 : 1"
       sodipodi:type="inkscape:persp3d" />
    <inkscape:perspective
       id="perspective21658"
       inkscape:persp3d-origin="372.04724 : 350.78739 : 1"
       inkscape:vp_z="744.09448 : 526.18109 : 1"
       inkscape:vp_y="0 : 1000 : 0"
       inkscape:vp_x="0 : 526.18109 : 1"
       sodipodi:type="inkscape:persp3d" />
    <inkscape:perspective
       id="perspective21700"
       inkscape:persp3d-origin="372.04724 : 350.78739 : 1"
       inkscape:vp_z="744.09448 : 526.18109 : 1"
       inkscape:vp_y="0 : 1000 : 0"
       inkscape:vp_x="0 : 526.18109 : 1"
       sodipodi:type="inkscape:persp3d" />
    <inkscape:perspective
       id="perspective21742"
       inkscape:persp3d-origin="372.04724 : 350.78739 : 1"
       inkscape:vp_z="744.09448 : 526.18109 : 1"
       inkscape:vp_y="0 : 1000 : 0"
       inkscape:vp_x="0 : 526.18109 : 1"
       sodipodi:type="inkscape:persp3d" />
    <inkscape:perspective
       id="perspective21769"
       inkscape:persp3d-origin="372.04724 : 350.78739 : 1"
       inkscape:vp_z="744.09448 : 526.18109 : 1"
       inkscape:vp_y="0 : 1000 : 0"
       inkscape:vp_x="0 : 526.18109 : 1"
       sodipodi:type="inkscape:persp3d" />
    <inkscape:perspective
       id="perspective21796"
       inkscape:persp3d-origin="372.04724 : 350.78739 : 1"
       inkscape:vp_z="744.09448 : 526.18109 : 1"
       inkscape:vp_y="0 : 1000 : 0"
       inkscape:vp_x="0 : 526.18109 : 1"
       sodipodi:type="inkscape:persp3d" />
    <inkscape:perspective
       id="perspective21829"
       inkscape:persp3d-origin="372.04724 : 350.78739 : 1"
       inkscape:vp_z="744.09448 : 526.18109 : 1"
       inkscape:vp_y="0 : 1000 : 0"
       inkscape:vp_x="0 : 526.18109 : 1"
       sodipodi:type="inkscape:persp3d" />
    <inkscape:perspective
       id="perspective21862"
       inkscape:persp3d-origin="372.04724 : 350.78739 : 1"
       inkscape:vp_z="744.09448 : 526.18109 : 1"
       inkscape:vp_y="0 : 1000 : 0"
       inkscape:vp_x="0 : 526.18109 : 1"
       sodipodi:type="inkscape:persp3d" />
    <inkscape:perspective
       id="perspective21904"
       inkscape:persp3d-origin="372.04724 : 350.78739 : 1"
       inkscape:vp_z="744.09448 : 526.18109 : 1"
       inkscape:vp_y="0 : 1000 : 0"
       inkscape:vp_x="0 : 526.18109 : 1"
       sodipodi:type="inkscape:persp3d" />
  </defs>
  <sodipodi:namedview
     inkscape:window-height="710"
     inkscape:window-width="1280"
     inkscape:pageshadow="2"
     inkscape:pageopacity="0.0"
     guidetolerance="10.0"
     gridtolerance="10.0"
     objecttolerance="10.0"
     borderopacity="1.0"
     bordercolor="#666666"
     pagecolor="#ffffff"
     id="base"
     showgrid="false"
     inkscape:zoom="0.31042861"
     inkscape:cx="-252.54052"
     inkscape:cy="191.28717"
     inkscape:window-x="1757"
     inkscape:window-y="118"
     inkscape:current-layer="svg18076"
     fit-margin-top="0"
     fit-margin-left="0"
     fit-margin-right="0"
     fit-margin-bottom="0"
     inkscape:window-maximized="0" />
  <g
     id="g3"
     transform="matrix(5.629418,0,0,5.629418,-7.3914258,3.2312859)">
    <path
       style="fill:#231f20"
       d="m 110.102,122.98 c 8.156,0 14.75,-6.617 14.75,-14.773 V 14.199 c 0,-8.156 -6.594,-14.773 -14.75,-14.773 H 16.086 C 7.93,-0.574 1.313,6.043 1.313,14.199 v 94.008 c 0,8.156 6.617,14.773 14.773,14.773 h 94.016 z"
       id="path5"
       inkscape:connector-curvature="0" />
    <path
       style="fill:#ffffff"
       d="M 16.086,1.926 C 9.313,1.926 3.813,7.434 3.813,14.199 v 94.008 c 0,6.766 5.5,12.281 12.273,12.281 h 94.016 c 6.75,0 12.242,-5.516 12.242,-12.281 V 14.199 c 0,-6.766 -5.492,-12.273 -12.242,-12.273 H 16.086 z"
       id="path7"
       inkscape:connector-curvature="0" />
  </g>
  <path
     d="m 249.90339,189.55973 c 26.31363,-3.11666 45.016,-27.03843 41.89855,-53.35206 -3.11667,-26.31363 -27.03844,-45.016003 -53.35207,-41.899333 -26.3861,3.26242 -45.016,27.039223 -41.89933,53.352853 3.26242,26.31363 26.96596,45.016 53.35285,41.89854"
     style="fill:#231f20;fill-opacity:1;fill-rule:nonzero;stroke:none"
     id="path8616"
     inkscape:connector-curvature="0" />
  <path
     d="M 644.46443,415.801 C 641.92761,414.56804 446.2779,315.18446 446.2779,315.18446 l -49.72803,-64.00829 -0.57984,-0.72481 c -6.74149,-6.23412 -17.25276,-5.65428 -23.48689,1.15969 l 0,0.14496 c -4.34962,5.07444 -5.21939,12.61321 -1.81201,18.70237 l 36.8249,47.55361 0.14496,0.43489 -30.59078,70.02497 -81.11609,-20.22446 -3.55234,-28.9962 66.69087,-8.11862 c 2.97171,-0.14496 6.08916,-0.94225 8.91591,-2.53682 11.01863,-5.79924 15.29578,-19.49966 9.49654,-30.59078 -4.56707,-8.48181 -13.62794,-12.97561 -22.54464,-12.03336 l -67.99473,8.26358 -6.01668,-50.45284 c -3.26242,-26.16866 -27.18418,-45.016 -53.42533,-41.89933 -26.24115,3.26242 -45.08848,27.18418 -41.97181,53.57029 L 199.668,371.94469 c 1.73953,14.86011 10.58296,27.76324 22.3264,35.22954 L 115.28949,419.9324 82.016926,502.35314 c 1.30465,-0.57984 2.68179,-0.72481 3.84227,-1.30465 13.77289,-6.37909 28.995414,-9.78568 44.001264,-9.78568 15.07756,0 30.22759,3.40659 43.78304,9.64072 8.62678,3.98722 18.12253,5.9442 27.32915,5.9442 9.27831,0 18.62989,-1.95698 27.11092,-5.79924 13.70041,-6.37909 28.85123,-9.78568 44.00127,-9.78568 15.00585,0 30.15589,3.40659 43.63886,9.64072 8.77095,3.98722 18.26749,5.9442 27.47332,5.9442 9.35158,0 18.55741,-1.95698 27.18419,-5.79924 13.70041,-6.37909 28.99541,-9.78568 44.00127,-9.78568 15.00507,0 30.15589,3.40659 43.63886,9.64072 3.26163,1.44961 6.81397,2.39186 10.29304,3.40738 54.51255,-14.28106 151.06859,-41.89934 177.16557,-65.24126 7.61125,-6.81397 9.06087,-18.26749 -1.01552,-23.26865"
     style="fill:#231f20;fill-opacity:1;fill-rule:nonzero;stroke:none"
     id="path8618"
     inkscape:connector-curvature="0" />
  <path
     d="m 58.675008,603.11409 c 12.468248,0 24.501608,-2.82675 35.085358,-7.61126 10.946164,-5.07443 23.268654,-8.04614 36.100094,-8.04614 12.90314,0 25.08067,2.97171 36.17179,8.04614 10.58375,4.78451 22.47215,7.61126 34.9404,7.61126 12.39577,0 24.28417,-2.82675 35.01209,-7.61126 10.94616,-5.07443 23.26944,-8.04614 36.1001,-8.04614 12.75817,0 25.08145,2.97171 36.10009,8.04614 10.65623,4.78451 22.54384,7.61126 35.01209,7.61126 12.46825,0 24.35665,-2.82675 35.08536,-7.61126 10.94616,-5.07443 23.26945,-8.04614 36.1001,-8.04614 12.75817,0 25.08145,2.97171 35.95513,8.04614 10.8004,4.78451 22.68881,7.61126 35.15705,7.61126 12.46825,0 24.35665,-2.82675 34.9404,-7.61126 11.09033,-5.07443 23.34114,-8.04614 36.09931,-8.04614 12.90313,0 25.22642,2.97171 36.10009,8.04614 10.65623,4.78451 22.6896,7.61126 35.15784,7.61126 l 0,-52.4823 c -12.46824,0 -24.50161,-2.82674 -35.15784,-7.68373 -10.87367,-5.07444 -23.19696,-7.90197 -36.10009,-7.90197 -12.75817,0 -25.00898,2.82753 -36.09931,7.90197 -10.58375,4.85699 -22.47215,7.68373 -34.9404,7.68373 -12.46824,0 -24.35665,-2.82674 -35.15705,-7.68373 -10.87368,-5.07444 -23.19696,-7.90197 -35.95513,-7.90197 -12.83065,0 -25.15394,2.82753 -36.1001,7.90197 -10.72871,4.85699 -22.61711,7.68373 -35.08536,7.68373 -12.46825,0 -24.35586,-2.82674 -35.01209,-7.68373 -11.01864,-5.07444 -23.34192,-7.90197 -36.10009,-7.90197 -12.83066,0 -25.15394,2.82753 -36.1001,7.90197 -10.72792,4.85699 -22.61632,7.68373 -35.01209,7.68373 -12.46825,0 -24.35665,-2.82674 -34.9404,-7.68373 -11.09112,-5.07444 -23.26865,-7.90197 -36.17179,-7.90197 -12.83144,0 -25.15393,2.82753 -36.100094,7.90197 -10.58375,4.85699 -22.61711,7.68373 -35.085358,7.68373 l 0,52.4823 z"
     style="fill:#231f20;fill-opacity:1;fill-rule:nonzero;stroke:none"
     id="path8620"
     inkscape:connector-curvature="0" />
</svg>
