<?xml version="1.0" encoding="UTF-8" standalone="no"?>
<!-- Generator: Adobe Illustrator 13.0.2, SVG Export Plug-In . SVG Version: 6.00 Build 14948)  -->

<svg
   xmlns:dc="http://purl.org/dc/elements/1.1/"
   xmlns:cc="http://creativecommons.org/ns#"
   xmlns:rdf="http://www.w3.org/1999/02/22-rdf-syntax-ns#"
   xmlns:svg="http://www.w3.org/2000/svg"
   xmlns="http://www.w3.org/2000/svg"
   xmlns:sodipodi="http://sodipodi.sourceforge.net/DTD/sodipodi-0.dtd"
   xmlns:inkscape="http://www.inkscape.org/namespaces/inkscape"
   version="1.1"
   id="Layer_1"
   x="0px"
   y="0px"
   width="123.548"
   height="123.555"
   viewBox="-0.258 -0.548 123.548 123.555"
   xml:space="preserve"
   inkscape:version="0.48.4 r9939"
   sodipodi:docname="kite_surfing.svg"
   inkscape:export-filename="C:\Users\MaartenPieter\Dropbox\YellowBytes\waterschapp\graphics_app\icons\voorzieningen\hdpi\kite_surfing.png"
   inkscape:export-xdpi="37.880001"
   inkscape:export-ydpi="37.880001"><metadata
   id="metadata21"><rdf:RDF><cc:Work
       rdf:about=""><dc:format>image/svg+xml</dc:format><dc:type
         rdf:resource="http://purl.org/dc/dcmitype/StillImage" /><dc:title></dc:title></cc:Work></rdf:RDF></metadata><defs
   id="defs19"><inkscape:path-effect
     effect="spiro"
     id="path-effect2994"
     is_visible="true" /></defs><sodipodi:namedview
   pagecolor="#ffffff"
   bordercolor="#666666"
   borderopacity="1"
   objecttolerance="10"
   gridtolerance="10"
   guidetolerance="10"
   inkscape:pageopacity="0"
   inkscape:pageshadow="2"
   inkscape:window-width="1920"
   inkscape:window-height="1017"
   id="namedview17"
   showgrid="false"
   fit-margin-top="0"
   fit-margin-left="0"
   fit-margin-right="0"
   fit-margin-bottom="0"
   inkscape:zoom="3.8206558"
   inkscape:cx="-5.854084"
   inkscape:cy="19.010917"
   inkscape:window-x="1592"
   inkscape:window-y="-8"
   inkscape:window-maximized="1"
   inkscape:current-layer="g3" />
<g
   id="g3"
   transform="translate(-1.117,-0.7000022)">
	<path
   style="fill:#000000"
   d="m 109.641,123.707 c 8.156,0 14.766,-6.617 14.766,-14.766 V 14.918 c 0,-8.148 -6.609,-14.766 -14.766,-14.766 H 15.617 C 7.461,0.152 0.859,6.769 0.859,14.918 v 94.023 c 0,8.148 6.602,14.766 14.758,14.766 h 94.024 z"
   id="path5"
   inkscape:connector-curvature="0" />
	<path
   style="fill:#ffffff"
   d="M 15.617,2.637 C 8.859,2.637 3.359,8.16 3.359,14.918 v 94.023 c 0,6.758 5.5,12.25 12.258,12.25 h 94.023 c 6.758,0 12.25,-5.492 12.25,-12.25 V 14.918 C 121.89,8.16 116.398,2.637 109.64,2.637 H 15.617 z"
   id="path7"
   inkscape:connector-curvature="0" />
	<path
   style="fill:#000000"
   d="m 111.961,112.676 c -2.125,0 -4.203,-0.492 -6.031,-1.32 -1.883,-0.883 -4.008,-1.391 -6.227,-1.391 -2.195,0 -4.32,0.508 -6.203,1.391 -1.852,0.828 -3.906,1.32 -6.055,1.32 -2.149,0 -4.195,-0.492 -6.031,-1.32 -1.875,-0.883 -4,-1.391 -6.227,-1.391 -2.195,0 -4.32,0.508 -6.219,1.391 -1.836,0.828 -3.883,1.32 -6.031,1.32 -2.148,0 -4.203,-0.492 -6.039,-1.32 -1.891,-0.883 -4.008,-1.391 -6.227,-1.391 -2.211,0 -4.32,0.508 -6.211,1.391 -1.844,0.828 -3.898,1.32 -6.047,1.32 -2.149,0 -4.195,-0.492 -6.039,-1.32 -1.883,-0.883 -4.008,-1.391 -6.211,-1.391 -2.227,0 -4.336,0.508 -6.219,1.391 -1.844,0.828 -3.891,1.32 -6.039,1.32 v -9.062 c 2.148,0 4.195,-0.484 6.039,-1.312 1.883,-0.859 3.992,-1.367 6.219,-1.367 2.203,0 4.328,0.508 6.211,1.367 1.844,0.828 3.891,1.312 6.039,1.312 2.148,0 4.203,-0.484 6.047,-1.312 1.891,-0.859 4,-1.367 6.211,-1.367 2.219,0 4.336,0.508 6.227,1.367 1.836,0.828 3.891,1.312 6.039,1.312 2.148,0 4.195,-0.484 6.031,-1.312 1.898,-0.859 4.023,-1.367 6.219,-1.367 2.227,0 4.352,0.508 6.227,1.367 1.836,0.828 3.883,1.312 6.031,1.312 2.148,0 4.203,-0.484 6.055,-1.312 1.883,-0.859 4.008,-1.367 6.203,-1.367 2.219,0 4.344,0.508 6.227,1.367 1.828,0.828 3.906,1.312 6.031,1.312 v 9.062 z"
   id="path9"
   inkscape:connector-curvature="0" />
	
	<path
   style="fill:#000000"
   d="m 25.649363,52.028718 c 3.209302,0.682159 6.368964,-1.36975 7.049667,-4.572205 0.680703,-3.202455 -1.372869,-6.354292 -4.582171,-7.03645 -3.201477,-0.680495 -6.360454,1.36338 -7.041157,4.565835 -0.680703,3.202455 1.371206,6.362117 4.573661,7.04282 z"
   id="path11"
   inkscape:connector-curvature="0" /><path
   style="fill:#000000"
   d="M 45.590419,83.790774 28.969736,80.257939 c -2.445369,-0.51978 -4.26919,-2.424598 -4.77706,-4.729559 L 21.029553,60.199763 c -0.02164,-0.499413 0.01924,-0.994738 0.124649,-1.490659 0.716256,-3.369718 4.02272,-5.511059 7.377766,-4.797922 l 13.50811,2.847724 10.155476,-2.234385 c 0.165973,-0.069 0.567764,-0.07867 0.972717,0.0074 1.58949,0.337857 2.609037,1.928594 2.274507,3.502434 -0.207912,0.978147 -0.893179,1.75873 -1.745224,2.121507 l -11.044521,2.396075 c -0.777205,0.385841 -2.060416,0.18465 -2.060416,0.18465 l -6.067449,-1.289676 2.688545,12.376435 11.233047,2.387658 0,0 c 1.108241,0.235564 1.806531,0.783725 2.358063,1.531741 l 8.789825,12.795111 0,0 c 1.222444,1.761657 0.810544,4.190085 -0.948277,5.437668 -1.784154,1.217663 -4.220408,0.8041 -5.444515,-0.949732 l 0,0 -7.611437,-11.235019 z"
   id="path13"
   inkscape:connector-curvature="0" /><path
   inkscape:connector-curvature="0"
   id="path3764"
   d="M 45.590419,83.790774 28.969736,80.257939 c -2.445369,-0.51978 -4.26919,-2.424598 -4.77706,-4.729559 L 21.029553,60.199763 c -0.02164,-0.499413 0.01924,-0.994738 0.124649,-1.490659 0.716256,-3.369718 4.02272,-5.511059 7.377766,-4.797922 l 13.50811,2.847724 10.155476,-2.234385 c 0.165973,-0.069 0.567764,-0.07867 0.972717,0.0074 1.58949,0.337857 2.609037,1.928594 2.274507,3.502434 -0.207912,0.978147 -0.893179,1.75873 -1.745224,2.121507 l -11.044521,2.396075 c -0.777205,0.385841 -2.060416,0.18465 -2.060416,0.18465 l -6.067449,-1.289676 2.688545,12.376435 11.233047,2.387658 0,0 c 1.108241,0.235564 1.806531,0.783725 2.358063,1.531741 l 8.789825,12.795111 0,0 c 1.222444,1.761657 0.810544,4.190085 -0.948277,5.437668 -1.784154,1.217663 -4.220408,0.8041 -5.444515,-0.949732 l 0,0 -7.611437,-11.235019 z"
   style="fill:#000000" />
	<path
   style="fill:#000000"
   d="m 107.55599,75.25619 c 0,0 -11.445335,-16.801724 -20.22843,-28.874603 -6.35078,-8.729519 -36.78572,-31.73597 -36.839524,-31.762872 0,0 10.145609,-5.7942628 19.921766,-5.5084178 28.061292,0.820494 44.520778,19.5535568 46.722998,34.5791118 1.65787,11.311578 -9.57681,31.566781 -9.57681,31.566781 z"
   id="path15"
   inkscape:connector-curvature="0"
   sodipodi:nodetypes="cscssc" />
<path
   style="fill:none;stroke:#000000;stroke-width:3;stroke-linecap:round;stroke-linejoin:miter;stroke-miterlimit:4;stroke-opacity:1;stroke-dasharray:none"
   d="m 44.389761,43.397566 2.681379,8.256566"
   id="path2992"
   inkscape:connector-curvature="0" /><path
   inkscape:connector-curvature="0"
   id="path3772"
   d="m 50.389761,63.397566 2.681379,8.256566"
   style="fill:none;stroke:#000000;stroke-width:3;stroke-linecap:round;stroke-linejoin:miter;stroke-miterlimit:4;stroke-opacity:1;stroke-dasharray:none" /><path
   style="fill:none;stroke:#000000;stroke-width:2.00000006;stroke-linecap:round;stroke-linejoin:miter;stroke-opacity:1;stroke-miterlimit:4;stroke-dasharray:none"
   d="M 47.844897,40.816609 50.482105,17.821183"
   id="path3774"
   inkscape:connector-curvature="0" /><path
   style="fill:none;stroke:#000000;stroke-width:2.00000006;stroke-linecap:round;stroke-linejoin:miter;stroke-opacity:1;stroke-miterlimit:4;stroke-dasharray:none"
   d="m 57.558236,72.659454 45.158224,2.405972"
   id="path3776"
   inkscape:connector-curvature="0"
   transform="translate(0.859,0.15200031)"
   sodipodi:nodetypes="cc" /><path
   style="fill:none;stroke:#000000;stroke-width:2.00000006;stroke-linecap:round;stroke-linejoin:miter;stroke-opacity:1;stroke-miterlimit:4;stroke-dasharray:none"
   d="M 50.710472,48.414666 69.403018,34.348988"
   id="path3778"
   inkscape:connector-curvature="0"
   transform="translate(0.859,0.15200031)"
   sodipodi:nodetypes="cc" /><path
   style="fill:none;stroke:#000000;stroke-width:2.00000006;stroke-linecap:round;stroke-linejoin:miter;stroke-opacity:1;stroke-miterlimit:4;stroke-dasharray:none"
   d="M 54.411966,63.775868 89.576161,55.63258"
   id="path3780"
   inkscape:connector-curvature="0"
   transform="translate(0.859,0.15200031)"
   sodipodi:nodetypes="cc" /></g>
</svg>