<?xml version="1.0" encoding="UTF-8" standalone="no"?>
<!-- Generator: Adobe Illustrator 13.0.2, SVG Export Plug-In . SVG Version: 6.00 Build 14948)  -->

<svg
   xmlns:dc="http://purl.org/dc/elements/1.1/"
   xmlns:cc="http://creativecommons.org/ns#"
   xmlns:rdf="http://www.w3.org/1999/02/22-rdf-syntax-ns#"
   xmlns:svg="http://www.w3.org/2000/svg"
   xmlns="http://www.w3.org/2000/svg"
   xmlns:sodipodi="http://sodipodi.sourceforge.net/DTD/sodipodi-0.dtd"
   xmlns:inkscape="http://www.inkscape.org/namespaces/inkscape"
   version="1.1"
   id="Layer_1"
   x="0px"
   y="0px"
   width="123.634"
   height="123.61"
   viewBox="-0.258 -0.548 123.634 123.61"
   xml:space="preserve"
   inkscape:version="0.48.4 r9939"
   sodipodi:docname="lifeguard.svg"><metadata
   id="metadata19"><rdf:RDF><cc:Work
       rdf:about=""><dc:format>image/svg+xml</dc:format><dc:type
         rdf:resource="http://purl.org/dc/dcmitype/StillImage" /><dc:title /></cc:Work></rdf:RDF></metadata><defs
   id="defs17"><clipPath
     clipPathUnits="userSpaceOnUse"
     id="clipPath954"><path
       inkscape:connector-curvature="0"
       d="m 0,0 1785.827,0 0,841.89 L 0,841.89 0,0 z"
       id="path956" /></clipPath><clipPath
     clipPathUnits="userSpaceOnUse"
     id="clipPath954-4"><path
       inkscape:connector-curvature="0"
       d="m 0,0 1785.827,0 0,841.89 L 0,841.89 0,0 z"
       id="path956-0" /></clipPath></defs><sodipodi:namedview
   pagecolor="#ffffff"
   bordercolor="#666666"
   borderopacity="1"
   objecttolerance="10"
   gridtolerance="10"
   guidetolerance="10"
   inkscape:pageopacity="0"
   inkscape:pageshadow="2"
   inkscape:window-width="1920"
   inkscape:window-height="1017"
   id="namedview15"
   showgrid="false"
   fit-margin-top="0"
   fit-margin-left="0"
   fit-margin-right="0"
   fit-margin-bottom="0"
   inkscape:zoom="3.8206558"
   inkscape:cx="-34.431032"
   inkscape:cy="24.088386"
   inkscape:window-x="1592"
   inkscape:window-y="-8"
   inkscape:window-maximized="1"
   inkscape:current-layer="g3" />
<g
   id="g3"
   transform="translate(-1.07,0.0339978)">
	<path
   style="fill:#000000"
   d="M 15.578,123.027 C 7.422,123.027 0.812,116.41 0.812,108.23 V 14.184 c 0,-8.148 6.609,-14.766 14.766,-14.766 h 94.102 c 8.156,0 14.766,6.617 14.766,14.766 v 94.047 c 0,8.18 -6.609,14.797 -14.766,14.797 H 15.578 z"
   id="path5"
   inkscape:connector-curvature="0" />
	<path
   style="fill:#ffffff"
   d="M 15.578,1.91 C 8.812,1.91 3.312,7.426 3.312,14.183 v 94.047 c 0,6.758 5.5,12.281 12.266,12.281 h 94.102 c 6.758,0 12.25,-5.523 12.25,-12.281 V 14.184 c 0,-6.758 -5.492,-12.273 -12.25,-12.273 H 15.578 z"
   id="path7"
   inkscape:connector-curvature="0" />
	
	
	
<g
   transform="matrix(3.9014612,0,0,-3.9014612,-250.57504,224.64224)"
   id="g952"
   clip-path="url(#clipPath954-4)"
   style="fill:#000000"><g
     id="g958"
     transform="translate(75.2953,37.3805)"
     style="fill:#000000"><path
       inkscape:connector-curvature="0"
       d="m 0,0 -4.429,0 c 0.551,-4.26 3.924,-7.633 8.184,-8.184 l 0,4.43 C 1.908,-3.301 0.454,-1.848 0,0"
       style="fill:#000000;fill-opacity:1;fill-rule:nonzero;stroke:none"
       id="path960" /></g><g
     id="g962"
     transform="translate(80.3637,52.2301)"
     style="fill:#000000"><path
       inkscape:connector-curvature="0"
       d="m 0,0 c -0.045,-0.045 -0.119,-0.045 -0.165,0 l -1.074,1.074 c -0.045,0.045 -0.045,0.119 0,0.164 l 1.074,1.075 c 0.046,0.045 0.12,0.045 0.165,0 L 1.074,1.238 c 0.044,-0.045 0.045,-0.119 0,-0.164 L 0,0 z"
       style="fill:#000000;fill-opacity:1;fill-rule:nonzero;stroke:none"
       id="path964" /></g><g
     id="g966"
     transform="translate(84.3153,47.5309)"
     style="fill:#000000"><path
       inkscape:connector-curvature="0"
       d="m 0,0 c -0.064,-0.025 -0.126,-0.035 -0.216,-0.035 l -0.002,0 c -0.221,-0.018 -0.414,0.098 -0.543,0.17 -0.13,0.073 -0.29,0.143 -0.456,0.143 -0.165,0 -0.355,-0.081 -0.455,-0.143 -0.207,-0.128 -0.276,-0.17 -0.46,-0.17 -0.221,-0.018 -0.414,0.098 -0.542,0.17 -0.129,0.073 -0.29,0.143 -0.456,0.143 -0.166,0 -0.355,-0.081 -0.455,-0.143 -0.207,-0.128 -0.276,-0.17 -0.461,-0.17 -0.184,0 -0.252,0.042 -0.459,0.17 -0.101,0.062 -0.291,0.143 -0.456,0.143 -0.165,0 -0.326,-0.07 -0.456,-0.143 -0.129,-0.072 -0.321,-0.188 -0.542,-0.17 -0.184,0 -0.253,0.042 -0.46,0.17 -0.101,0.062 -0.289,0.143 -0.455,0.143 -0.166,0 -0.327,-0.07 -0.456,-0.143 -0.129,-0.072 -0.322,-0.188 -0.543,-0.17 l -0.002,0 c -0.089,0 -0.152,0.01 -0.217,0.035 l -1.523,2.174 c -0.394,0.563 -0.257,1.342 0.306,1.735 0.565,0.396 1.342,0.259 1.736,-0.306 l 1.266,-1.806 c 0.336,0.083 0.675,0.145 1.015,0.19 l 0,0.979 c 0,0.688 0.559,1.246 1.246,1.246 0.689,0 1.247,-0.558 1.247,-1.246 l 0,-0.971 c 0.341,-0.046 0.682,-0.107 1.018,-0.189 l 1.262,1.797 C -0.124,4.168 0.653,4.305 1.217,3.909 1.781,3.516 1.917,2.737 1.523,2.174 L 0,0 z"
       style="fill:#000000;fill-opacity:1;fill-rule:nonzero;stroke:none"
       id="path968" /></g><g
     id="g970"
     transform="translate(78.3739,46.6783)"
     style="fill:#000000"><path
       inkscape:connector-curvature="0"
       d="m 0,0 c -0.182,0 -0.251,0.042 -0.456,0.17 -0.1,0.061 -0.287,0.141 -0.452,0.141 -0.164,0 -0.323,-0.07 -0.451,-0.141 C -1.487,0.098 -1.679,-0.018 -1.898,0 L -1.9,0 c -0.182,0 -0.251,0.042 -0.455,0.17 -0.062,0.038 -0.157,0.08 -0.258,0.11 -2.62,-1.423 -4.496,-4.038 -4.895,-7.12 l 4.429,0 c 0.454,1.848 1.908,3.301 3.755,3.754 l 0,3.323 C 0.627,0.216 0.58,0.194 0.538,0.17 0.41,0.098 0.219,-0.018 0,0"
       style="fill:#000000;fill-opacity:1;fill-rule:nonzero;stroke:none"
       id="path972" /></g><g
     id="g974"
     transform="translate(84.7924,46.9605)"
     style="fill:#000000"><path
       inkscape:connector-curvature="0"
       d="m 0,0 c -0.105,-0.029 -0.204,-0.073 -0.268,-0.112 -0.205,-0.129 -0.274,-0.17 -0.456,-0.17 l -0.002,0 c -0.219,-0.017 -0.41,0.096 -0.538,0.17 -0.128,0.071 -0.288,0.142 -0.451,0.142 -0.165,0 -0.353,-0.081 -0.452,-0.142 -0.206,-0.129 -0.274,-0.17 -0.457,-0.17 -0.218,-0.017 -0.409,0.096 -0.537,0.17 -0.039,0.021 -0.08,0.042 -0.124,0.06 l 0,-3.316 c 1.848,-0.454 3.301,-1.907 3.755,-3.754 l 4.429,0 C 4.5,-4.038 2.622,-1.42 0,0"
       style="fill:#000000;fill-opacity:1;fill-rule:nonzero;stroke:none"
       id="path976" /></g><g
     transform="matrix(-1,0,0,1,85.262341,37.3805)"
     id="g3051"
     style="fill:#000000"><path
       id="path3053"
       style="fill:#000000;fill-opacity:1;fill-rule:nonzero;stroke:none"
       d="m 0,0 -4.429,0 c 0.551,-4.26 3.924,-7.633 8.184,-8.184 l 0,4.43 C 1.908,-3.301 0.454,-1.848 0,0"
       inkscape:connector-curvature="0" /></g></g></g>
</svg>