<?xml version="1.0" encoding="UTF-8" standalone="no"?>
<!-- Generator: Adobe Illustrator 13.0.2, SVG Export Plug-In . SVG Version: 6.00 Build 14948)  -->

<svg
   xmlns:dc="http://purl.org/dc/elements/1.1/"
   xmlns:cc="http://creativecommons.org/ns#"
   xmlns:rdf="http://www.w3.org/1999/02/22-rdf-syntax-ns#"
   xmlns:svg="http://www.w3.org/2000/svg"
   xmlns="http://www.w3.org/2000/svg"
   xmlns:sodipodi="http://sodipodi.sourceforge.net/DTD/sodipodi-0.dtd"
   xmlns:inkscape="http://www.inkscape.org/namespaces/inkscape"
   version="1.1"
   id="Layer_1"
   x="0px"
   y="0px"
   width="123.548"
   height="123.555"
   viewBox="-0.258 -0.548 123.548 123.555"
   xml:space="preserve"
   inkscape:version="0.48.4 r9939"
   sodipodi:docname="nude_beach_v2.svg"><metadata
   id="metadata21"><rdf:RDF><cc:Work
       rdf:about=""><dc:format>image/svg+xml</dc:format><dc:type
         rdf:resource="http://purl.org/dc/dcmitype/StillImage" /><dc:title /></cc:Work></rdf:RDF></metadata><defs
   id="defs19" /><sodipodi:namedview
   pagecolor="#ffffff"
   bordercolor="#666666"
   borderopacity="1"
   objecttolerance="10"
   gridtolerance="10"
   guidetolerance="10"
   inkscape:pageopacity="0"
   inkscape:pageshadow="2"
   inkscape:window-width="1920"
   inkscape:window-height="1017"
   id="namedview17"
   showgrid="false"
   inkscape:zoom="2.7016116"
   inkscape:cx="28.745279"
   inkscape:cy="95.752628"
   inkscape:window-x="1592"
   inkscape:window-y="-8"
   inkscape:window-maximized="1"
   inkscape:current-layer="g3"
   fit-margin-top="0"
   fit-margin-left="0"
   fit-margin-right="0"
   fit-margin-bottom="0" />
<g
   id="g3"
   transform="translate(-1.117,-0.7000022)">
	<path
   style="fill:#000000"
   d="m 109.641,123.707 c 8.156,0 14.766,-6.617 14.766,-14.766 V 14.918 c 0,-8.148 -6.609,-14.766 -14.766,-14.766 H 15.617 C 7.461,0.152 0.859,6.769 0.859,14.918 v 94.023 c 0,8.148 6.602,14.766 14.758,14.766 h 94.024 z"
   id="path5"
   inkscape:connector-curvature="0" />
	<path
   style="fill:#ffffff"
   d="M 15.617,2.637 C 8.859,2.637 3.359,8.16 3.359,14.918 v 94.023 c 0,6.758 5.5,12.25 12.258,12.25 h 94.023 c 6.758,0 12.25,-5.492 12.25,-12.25 V 14.918 C 121.89,8.16 116.398,2.637 109.64,2.637 H 15.617 z"
   id="path7"
   inkscape:connector-curvature="0" />
	
	
	<path
   style="fill:#231f20"
   d="M 48.117,81.170748 z"
   id="path3024"
   inkscape:connector-curvature="0" /><path
   style="fill:#231f20"
   d="m 40.96075,74.983248 1,-0.34375"
   id="path3020"
   inkscape:connector-curvature="0" />
	
<path
   style="fill:#000000"
   d="m 25.392003,68.862932 c 5.23969,-1.804169 8.02915,-7.523411 6.228831,-12.75192 -1.800322,-5.228503 -7.515162,-8.005192 -12.754848,-6.20102 -5.226914,1.799769 -8.02237,7.506783 -6.22205,12.735292 1.800319,5.228507 7.519561,8.017968 12.748067,6.217648 z"
   id="path11"
   inkscape:connector-curvature="0" /><path
   style="fill:#000000"
   d="m 49.491334,81.064248 c 0,0 -2.970205,-6.870333 -6.081197,-8.932785 -3.145645,-2.085425 -6.628424,-4.71654 -12.140091,-3.105248 -5.56052,1.625573 -8.391353,7.848962 -6.497004,13.350549 0.278796,0.809669 0.643481,1.553907 1.109245,2.258105 l 17.906374,19.451401 c 2.740357,2.8952 7.020766,4.06859 11.013213,2.69388 l 27.136873,-9.349354 20.798333,9.666274 c 3.29787,1.47427 7.19173,-0.0525 8.7155,-3.36735 1.46108,-3.33619 -0.0651,-7.228453 -3.36735,-8.715492 L 84.236468,84.159478 C 82.787291,83.556313 81.291949,83.378006 79.482563,84.001015 L 58.090345,91.824974 C 56.54426,90.175385 51.005756,82.445773 49.491334,81.064248 z"
   id="path3022"
   inkscape:connector-curvature="0"
   sodipodi:nodetypes="csssccccccccccc" /><path
   style="fill:#000000;stroke:none"
   d="m 42.088048,70.55675 c 0,0 9.106292,-0.105536 12.147741,3.530066 3.366404,4.024035 0.380349,6.275123 -1.265247,7.199577 -2.679728,1.505403 -10.239362,0.01432 -10.239362,0.01432 -6.986975,-4.96592 -16.228506,-17.197785 -0.643132,-10.743964 z"
   id="path3026-1"
   inkscape:connector-curvature="0"
   sodipodi:nodetypes="csscc" /><path
   style="fill:#000000;stroke:#ffffff;stroke-width:2.24185419000000020;stroke-miterlimit:4;stroke-opacity:1;stroke-dasharray:none"
   d="m 41.051341,109.20023 c 0.415492,-0.5539 0.696839,-1.19217 0.87021,-1.90388 0.176728,-0.72526 0.190466,-1.4582 0.07496,-1.76102 L 38.53245,87.130274 c 0,0 3.399297,-8.46403 -0.0875,-12.1312 -2.789932,-2.934259 -5.369579,-3.179284 -8.307109,-0.392796 -2.380591,2.258186 -2.320722,9.566288 -2.320722,9.566288 0,0 -0.447979,2.329163 0.205991,3.750478 l 3.727012,20.031166 c 0.608429,1.55493 1.98843,2.82808 3.740257,3.25495 2.114029,0.51511 4.314585,-0.3472 5.560959,-2.00893 z"
   id="path3026"
   inkscape:connector-curvature="0"
   sodipodi:nodetypes="ccccsscccsc" /><path
   id="path5-6"
   d="m -59.0826,-25.893076 c 0,0 4.299361,3.012492 7.398406,1.496448 0,0 2.65104,-3.961857 -0.17582,-8.499649 l -3.79529,-7.577502 3.3549,7.401129 c 0,0 -4.095775,0.617305 -7.398956,5.636856 l -0.808376,-0.04355 0.104521,1.586267 h 1.320619 z"
   inkscape:connector-curvature="0"
   style="stroke:#010101;stroke-width:0.54436076" /><path
   style="stroke:#010101;stroke-width:0.44086897"
   d="m -69.983894,-15.178344 -0.3125,3.4375 c 0,0 1.356449,0.864583 4.59375,2.3750003 3.285515,2.628251 3.778373,6.718395 3.84375,7.437252 l 0,0.281625 c 0.833333,0 1.666667,-1.27e-4 2.5,-1.27e-4 l 0,-0.281498 c 0.06285,-0.783087 1.13259,-5.343452 3.75,-7.437252 3.236863,-1.5104173 4.59375,-2.3750003 4.59375,-2.3750003 l -0.3125,-3.4375 c -6.310165,0.700765 -12.288117,0.623213 -18.65625,0 z"
   id="path7-7"
   inkscape:connector-curvature="0"
   sodipodi:nodetypes="ccccccccccc" /><path
   id="path9"
   d="m -68.918654,-33.073194 3.354895,-7.401129 -3.795282,7.577502 c -2.826866,4.537791 -0.175829,8.499648 -0.175829,8.499648 3.098501,1.516045 7.398406,-1.496448 7.398406,-1.496448 h 1.320619 l 0.104522,-1.586267 -0.808376,0.04355 c -3.303184,-5.019551 -7.398955,-5.636856 -7.398955,-5.636856 z"
   inkscape:connector-curvature="0"
   style="stroke:#010101;stroke-width:0.54436076" /><path
   id="path5-6-9"
   d="m 91.405375,26.87424 c 0,0 5.078375,3.558339 8.738965,1.767597 0,0 3.13139,-4.679723 -0.207683,-10.039738 0.02849,0.172932 -0.01935,-0.399467 -0.520189,-0.208331 0,0 -4.837913,0.729157 -8.739606,6.658223 l -0.954849,-0.05144 0.12346,1.873689 z"
   inkscape:connector-curvature="0"
   style="stroke:#010101;stroke-width:0.64299583"
   sodipodi:nodetypes="cccccccc" /><path
   style="stroke:#010101;stroke-width:0.52075189"
   d="m 78.52883,39.530422 -0.369124,4.060355 c 0,0 1.60223,1.021241 5.426111,2.805337 3.880831,3.104475 4.462993,7.935729 4.540216,8.78484 l 0,0.332654 c 0.984328,0 1.968658,-1.51e-4 2.952985,-1.51e-4 l 0,-0.332503 c 0.07424,-0.924979 1.33781,-6.311656 4.429479,-8.78484 3.823367,-1.784096 5.426123,-2.805337 5.426123,-2.805337 l -0.36913,-4.060355 c -7.453542,0.82774 -14.514658,0.736136 -22.03666,0 z"
   id="path7-7-8"
   inkscape:connector-curvature="0"
   sodipodi:nodetypes="ccccccccccc" /><path
   sodipodi:nodetypes="cccccccc"
   style="stroke:#010101;stroke-width:0.64299583"
   inkscape:connector-curvature="0"
   d="m 87.74484,26.87424 c 0,0 -5.078378,3.558339 -8.738958,1.767597 0,0 -3.131393,-4.679723 0.207677,-10.039738 -0.02843,0.172932 0.0194,-0.399467 0.520187,-0.208331 0,0 4.837908,0.729157 8.739607,6.658223 l 0.954848,-0.05144 -0.123459,1.873689 z"
   id="path3877" /><path
   inkscape:connector-curvature="0"
   d="M 106.83945,52.435766 C 91.563394,37.1597 86.21919,31.815502 70.943123,16.539437 m 42.842957,17.948165 c 0,13.749016 -11.14577,24.894794 -24.894796,24.894794 -13.749009,0 -24.894787,-11.145778 -24.894787,-24.894794 0,-13.749014 11.145778,-24.8947944 24.894787,-24.8947944 13.749026,0 24.894796,11.1457804 24.894796,24.8947944 z"
   style="fill:none;stroke:#c90000;stroke-width:3.10370874;stroke-linecap:butt;stroke-linejoin:miter;stroke-miterlimit:4;stroke-opacity:1;stroke-dasharray:none"
   id="path4234-4" /><path
   id="path5-6-4"
   d="m -143.13883,-17.725318 c 0,0 4.29936,3.012492 7.39841,1.496448 0,0 2.65104,-3.961857 -0.17582,-8.499649 l -3.79529,-7.577502 3.3549,7.401129 c 0,0 -4.09578,0.617305 -7.39896,5.636856 l -0.80838,-0.04355 0.10453,1.586267 h 1.32061 z"
   inkscape:connector-curvature="0"
   style="stroke:#010101;stroke-width:0.54436076" /><path
   style="stroke:#010101;stroke-width:0.44086897"
   d="m -154.04012,-7.0105857 -0.3125,3.4375 c 0,0 1.35645,0.864583 4.59375,2.375001 3.28551,2.628251 3.77837,6.718395 3.84375,7.437252 l 0,0.281625 c 0.83333,0 1.66666,-1.27e-4 2.5,-1.27e-4 l 0,-0.281498 c 0.0628,-0.783087 1.13259,-5.34345199 3.75,-7.437252 3.23686,-1.510418 4.59375,-2.375001 4.59375,-2.375001 l -0.3125,-3.4375 c -6.31017,0.700765 -12.28812,0.623213 -18.65625,0 z"
   id="path7-7-6"
   inkscape:connector-curvature="0"
   sodipodi:nodetypes="ccccccccccc" /><path
   id="path9-3"
   d="m -152.97488,-24.905436 3.35489,-7.401129 -3.79528,7.577502 c -2.82687,4.537791 -0.17583,8.499648 -0.17583,8.499648 3.0985,1.516045 7.39841,-1.496448 7.39841,-1.496448 h 1.32062 l 0.10452,-1.586267 -0.80838,0.04355 c -3.30318,-5.019551 -7.39895,-5.636856 -7.39895,-5.636856 z"
   inkscape:connector-curvature="0"
   style="stroke:#010101;stroke-width:0.54436076" /><path
   inkscape:connector-curvature="0"
   d="m -127.24107,5.0294056 c -15.27605,-15.2760666 -20.62026,-20.6202646 -35.89632,-35.8963296 m 42.84295,17.948165 c 0,13.74901561 -11.14577,24.894795 -24.89479,24.894795 -13.74901,0 -24.89479,-11.14577939 -24.89479,-24.894795 0,-13.749014 11.14578,-24.894797 24.89479,-24.894797 13.74902,0 24.89479,11.145783 24.89479,24.894797 z"
   style="fill:none;stroke:#c90000;stroke-width:3.10370874;stroke-linecap:butt;stroke-linejoin:miter;stroke-miterlimit:4;stroke-opacity:1;stroke-dasharray:none"
   id="path4234-4-1" /></g>
</svg>