<?xml version="1.0" encoding="UTF-8" standalone="no"?>
<!-- Generator: Adobe Illustrator 13.0.2, SVG Export Plug-In . SVG Version: 6.00 Build 14948)  -->

<svg
   xmlns:dc="http://purl.org/dc/elements/1.1/"
   xmlns:cc="http://creativecommons.org/ns#"
   xmlns:rdf="http://www.w3.org/1999/02/22-rdf-syntax-ns#"
   xmlns:svg="http://www.w3.org/2000/svg"
   xmlns="http://www.w3.org/2000/svg"
   xmlns:sodipodi="http://sodipodi.sourceforge.net/DTD/sodipodi-0.dtd"
   xmlns:inkscape="http://www.inkscape.org/namespaces/inkscape"
   version="1.1"
   id="Layer_1"
   x="0px"
   y="0px"
   width="123.634"
   height="123.61"
   viewBox="-0.258 -0.548 123.634 123.61"
   xml:space="preserve"
   inkscape:version="0.48.4 r9939"
   sodipodi:docname="paid_entrance.svg"><metadata
   id="metadata19"><rdf:RDF><cc:Work
       rdf:about=""><dc:format>image/svg+xml</dc:format><dc:type
         rdf:resource="http://purl.org/dc/dcmitype/StillImage" /><dc:title /></cc:Work></rdf:RDF></metadata><defs
   id="defs17"><clipPath
     clipPathUnits="userSpaceOnUse"
     id="clipPath954"><path
       inkscape:connector-curvature="0"
       d="m 0,0 1785.827,0 0,841.89 L 0,841.89 0,0 z"
       id="path956" /></clipPath><clipPath
     clipPathUnits="userSpaceOnUse"
     id="clipPath954-4"><path
       inkscape:connector-curvature="0"
       d="m 0,0 1785.827,0 0,841.89 L 0,841.89 0,0 z"
       id="path956-0" /></clipPath></defs><sodipodi:namedview
   pagecolor="#ffffff"
   bordercolor="#666666"
   borderopacity="1"
   objecttolerance="10"
   gridtolerance="10"
   guidetolerance="10"
   inkscape:pageopacity="0"
   inkscape:pageshadow="2"
   inkscape:window-width="1920"
   inkscape:window-height="1017"
   id="namedview15"
   showgrid="false"
   fit-margin-top="0"
   fit-margin-left="0"
   fit-margin-right="0"
   fit-margin-bottom="0"
   inkscape:zoom="3.8206558"
   inkscape:cx="-8.2727927"
   inkscape:cy="89.004398"
   inkscape:window-x="1592"
   inkscape:window-y="-8"
   inkscape:window-maximized="1"
   inkscape:current-layer="g3" />
<g
   id="g3"
   transform="translate(-1.07,0.0339978)">
	<path
   style="fill:#000000"
   d="M 15.578,123.027 C 7.422,123.027 0.812,116.41 0.812,108.23 V 14.184 c 0,-8.148 6.609,-14.766 14.766,-14.766 h 94.102 c 8.156,0 14.766,6.617 14.766,14.766 v 94.047 c 0,8.18 -6.609,14.797 -14.766,14.797 H 15.578 z"
   id="path5"
   inkscape:connector-curvature="0" />
	<path
   style="fill:#ffffff"
   d="M 15.578,1.91 C 8.812,1.91 3.312,7.426 3.312,14.183 v 94.047 c 0,6.758 5.5,12.281 12.266,12.281 h 94.102 c 6.758,0 12.25,-5.523 12.25,-12.281 V 14.184 c 0,-6.758 -5.492,-12.273 -12.25,-12.273 H 15.578 z"
   id="path7"
   inkscape:connector-curvature="0" />
	
	
	
<g
   transform="translate(382.3263,-59.762509)"
   style="font-size:40px;font-style:normal;font-variant:normal;font-weight:bold;font-stretch:normal;line-height:125%;letter-spacing:0px;word-spacing:0px;fill:#000000;fill-opacity:1;stroke:none;font-family:Arial;-inkscape-font-specification:Arial Bold"
   id="flowRoot3119"><path
     d="m -304.23828,96.481603 -2.07422,9.738277 c -1.99222,-1.99214 -4.89847,-2.98823 -8.71875,-2.98828 -3.82034,5e-5 -6.91408,1.37114 -9.28125,4.11328 -1.33595,1.54692 -2.28517,3.48051 -2.84766,5.80079 l 19.33594,0 -1.125,5.44921 -18.91406,0 c -0.0235,0.53909 -0.0352,1.2305 -0.0352,2.07422 -10e-6,0.82034 0.0234,1.67581 0.0703,2.56641 l 17.89453,0 -1.125,5.44922 -16.03125,0 c 0.58592,2.50783 1.48826,4.47657 2.70703,5.90625 2.34373,2.76563 5.3906,4.14844 9.14062,4.14844 4.49997,0 8.08591,-1.38281 10.75782,-4.14844 l 0,10.75781 c -3.04691,1.52344 -6.59769,2.28516 -10.65235,2.28516 -6.84377,0 -12.46876,-2.34375 -16.875,-7.03125 -3.00001,-3.18749 -4.98047,-7.16015 -5.9414,-11.91797 l -5.20313,0 1.125,-5.44922 3.44531,0 c -0.0234,-0.56248 -0.0352,-1.16013 -0.0351,-1.79297 -10e-6,-1.0781 0.0234,-2.02732 0.0703,-2.84766 l -4.60547,0 1.125,-5.44921 4.18359,0 c 0.98437,-4.66403 2.9414,-8.56637 5.8711,-11.70704 4.42967,-4.734321 10.25388,-7.101506 17.47265,-7.101558 3.93747,5.2e-5 7.35934,0.714895 10.26563,2.144531 z"
     style="font-size:72px;font-family:Arial;-inkscape-font-specification:Arial Bold"
     id="path3900"
     inkscape:connector-curvature="0" /></g><path
   style="fill:none;stroke:#000000;stroke-width:4.79324865;stroke-miterlimit:4;stroke-opacity:1"
   d="m 107.28016,61.223007 c 0,24.660153 -19.991011,44.651153 -44.651164,44.651153 -24.660153,0 -44.651155,-19.991 -44.651155,-44.651153 0,-24.660156 19.991002,-44.651159 44.651155,-44.651159 24.660153,0 44.651164,19.991003 44.651164,44.651159 z"
   id="path3129"
   inkscape:connector-curvature="0" /></g>
</svg>