<?xml version="1.0" encoding="UTF-8" standalone="no"?>
<!-- Generator: Adobe Illustrator 13.0.2, SVG Export Plug-In . SVG Version: 6.00 Build 14948)  -->

<svg
   xmlns:dc="http://purl.org/dc/elements/1.1/"
   xmlns:cc="http://creativecommons.org/ns#"
   xmlns:rdf="http://www.w3.org/1999/02/22-rdf-syntax-ns#"
   xmlns:svg="http://www.w3.org/2000/svg"
   xmlns="http://www.w3.org/2000/svg"
   xmlns:sodipodi="http://sodipodi.sourceforge.net/DTD/sodipodi-0.dtd"
   xmlns:inkscape="http://www.inkscape.org/namespaces/inkscape"
   version="1.1"
   id="Layer_1"
   x="0px"
   y="0px"
   width="123.634"
   height="123.61"
   viewBox="-0.258 -0.548 123.634 123.61"
   xml:space="preserve"
   inkscape:version="0.48.4 r9939"
   sodipodi:docname="changing_room.svg"><metadata
   id="metadata19"><rdf:RDF><cc:Work
       rdf:about=""><dc:format>image/svg+xml</dc:format><dc:type
         rdf:resource="http://purl.org/dc/dcmitype/StillImage" /><dc:title></dc:title></cc:Work></rdf:RDF></metadata><defs
   id="defs17"><inkscape:path-effect
     effect="spiro"
     id="path-effect4095"
     is_visible="true" /><inkscape:path-effect
     effect="spiro"
     id="path-effect4006"
     is_visible="true" /><inkscape:perspective
     sodipodi:type="inkscape:persp3d"
     inkscape:vp_x="0 : 61.805 : 1"
     inkscape:vp_y="0 : 1000 : 0"
     inkscape:vp_z="123.634 : 61.805 : 1"
     inkscape:persp3d-origin="61.817001 : 41.203334 : 1"
     id="perspective3956" /><inkscape:path-effect
     effect="spiro"
     id="path-effect3954"
     is_visible="true" /><inkscape:path-effect
     effect="spiro"
     id="path-effect3950"
     is_visible="true" /><clipPath
     clipPathUnits="userSpaceOnUse"
     id="clipPath954"><path
       inkscape:connector-curvature="0"
       d="m 0,0 1785.827,0 0,841.89 L 0,841.89 0,0 z"
       id="path956" /></clipPath><clipPath
     clipPathUnits="userSpaceOnUse"
     id="clipPath954-4"><path
       inkscape:connector-curvature="0"
       d="m 0,0 1785.827,0 0,841.89 L 0,841.89 0,0 z"
       id="path956-0" /></clipPath><inkscape:path-effect
     effect="spiro"
     id="path-effect4095-4"
     is_visible="true" /></defs><sodipodi:namedview
   pagecolor="#ffffff"
   bordercolor="#666666"
   borderopacity="1"
   objecttolerance="10"
   gridtolerance="10"
   guidetolerance="10"
   inkscape:pageopacity="0"
   inkscape:pageshadow="2"
   inkscape:window-width="1920"
   inkscape:window-height="1017"
   id="namedview15"
   showgrid="false"
   fit-margin-top="0"
   fit-margin-left="0"
   fit-margin-right="0"
   fit-margin-bottom="0"
   inkscape:zoom="1.3508058"
   inkscape:cx="-306.25238"
   inkscape:cy="-55.996245"
   inkscape:window-x="1592"
   inkscape:window-y="-8"
   inkscape:window-maximized="1"
   inkscape:current-layer="g3" />
<g
   id="g3"
   transform="translate(-1.07,0.0339978)">
	<path
   style="fill:#231f20"
   d="M 15.578,123.027 C 7.422,123.027 0.812,116.41 0.812,108.23 V 14.184 c 0,-8.148 6.609,-14.766 14.766,-14.766 h 94.102 c 8.156,0 14.766,6.617 14.766,14.766 v 94.047 c 0,8.18 -6.609,14.797 -14.766,14.797 H 15.578 z"
   id="path5"
   inkscape:connector-curvature="0" />
	<path
   style="fill:#ffffff"
   d="M 15.578,1.91 C 8.812,1.91 3.312,7.426 3.312,14.183 v 94.047 c 0,6.758 5.5,12.281 12.266,12.281 h 94.102 c 6.758,0 12.25,-5.523 12.25,-12.281 V 14.184 c 0,-6.758 -5.492,-12.273 -12.25,-12.273 H 15.578 z"
   id="path7"
   inkscape:connector-curvature="0" />
	
	
	
<g
   id="g3783"
   transform="matrix(2.0185699,0,0,2.0185699,-5.5404822,-118.3457)"><path
     transform="matrix(1.2380278,0,0,1.2380278,133.78539,74.433421)"
     d="m -66.81197,11.732334 c 0,7.717153 -6.255988,13.973141 -13.97314,13.973141 -7.717153,0 -13.973141,-6.255988 -13.973141,-13.973141 0,-7.7171524 6.255988,-13.9731406 13.973141,-13.9731406 7.717152,0 13.97314,6.2559882 13.97314,13.9731406 z"
     sodipodi:ry="13.973141"
     sodipodi:rx="13.973141"
     sodipodi:cy="11.732334"
     sodipodi:cx="-80.78511"
     id="path3013"
     style="fill:#ffffff;fill-opacity:1;stroke:#000000;stroke-width:1.21160448;stroke-miterlimit:4;stroke-opacity:1;stroke-dasharray:none"
     sodipodi:type="arc" /><path
     sodipodi:nodetypes="ccscccsscccsssscccscscsssccccccccssscc"
     id="path2411"
     d="m 32.247335,71.825448 c -0.111626,0.0019 -0.222165,0.0065 -0.335871,0.01294 -4.322573,0.244171 -8.040289,1.9583 -11.17415,5.182736 -2.58046,2.655045 -4.13307,5.801891 -4.616926,9.280361 l -0.113679,0.586483 0.30745,-0.395298 c 0.179541,-0.21183 0.575297,-0.590196 0.881015,-0.839672 3.755324,-3.06459 9.583833,-4.262605 17.390336,-3.573145 2.018314,0.178251 4.716788,0.560741 6.1981,0.878428 l 0.387542,0.08267 0.05942,0.467635 c 0.117212,0.938136 0.393635,1.566384 1.14971,2.617207 0.08443,0.117345 -0.371351,0.823844 -1.604426,2.488027 -3.211331,4.334064 -7.068549,8.166194 -10.789191,10.71943 -2.226399,1.52784 -4.625071,2.75638 -6.828504,3.49564 -0.456341,0.1531 -0.671029,0.24214 -0.689826,0.26094 -0.05223,0.0522 0.982915,0.7695 1.816284,1.2944 6.187262,3.66833 13.057936,3.43416 18.919837,-0.4418 1.223846,-0.83044 1.50933,-1.03988 1.780114,-1.76978 0.983629,-2.651377 0.950438,-4.911104 0.950772,-7.812865 2.48e-4,-2.423338 -0.109005,-3.58856 -0.532226,-5.642621 -0.133731,-0.649051 -0.245255,-1.220665 -0.245444,-1.271144 -1.66e-4,-0.05045 0.205635,-0.113809 0.454717,-0.139513 0.780751,-0.08058 1.769913,-0.783055 1.914461,-1.358984 0.06367,-0.253646 0.17969,-0.23858 0.878431,0.111094 0.858169,0.42946 1.594707,0.938688 2.198659,1.516584 l 0.289365,0.276448 0.01808,-0.418544 C 50.667298,84.576339 49.347047,81.233333 47.4881,78.814165 l -0.648488,-0.782841 c -0.202743,0.820703 -0.406277,1.757755 -0.764752,2.578457 l -0.191187,0.431459 c -0.951733,-0.528343 -1.940412,-0.640552 -2.940158,-0.527065 -0.01939,-0.01936 -0.304757,-0.508537 -0.632986,-1.085118 -1.022166,-1.795598 -1.929835,-2.997154 -3.309616,-4.379233 -0.717067,-0.718265 -1.491972,-1.407541 -1.834369,-1.632851 -1.784651,-1.174342 -3.244814,-1.624422 -4.919209,-1.591509 z"
     style="fill:#000000"
     inkscape:connector-curvature="0" /></g></g>
</svg>