<?xml version="1.0" encoding="UTF-8" standalone="no"?>
<!-- Generator: Adobe Illustrator 13.0.2, SVG Export Plug-In . SVG Version: 6.00 Build 14948)  -->

<svg
   xmlns:dc="http://purl.org/dc/elements/1.1/"
   xmlns:cc="http://creativecommons.org/ns#"
   xmlns:rdf="http://www.w3.org/1999/02/22-rdf-syntax-ns#"
   xmlns:svg="http://www.w3.org/2000/svg"
   xmlns="http://www.w3.org/2000/svg"
   xmlns:sodipodi="http://sodipodi.sourceforge.net/DTD/sodipodi-0.dtd"
   xmlns:inkscape="http://www.inkscape.org/namespaces/inkscape"
   version="1.1"
   id="Layer_1"
   x="0px"
   y="0px"
   width="123.634"
   height="123.61"
   viewBox="-0.258 -0.548 123.634 123.61"
   xml:space="preserve"
   inkscape:version="0.48.4 r9939"
   sodipodi:docname="parking_v2.svg"><metadata
   id="metadata19"><rdf:RDF><cc:Work
       rdf:about=""><dc:format>image/svg+xml</dc:format><dc:type
         rdf:resource="http://purl.org/dc/dcmitype/StillImage" /><dc:title></dc:title></cc:Work></rdf:RDF></metadata><defs
   id="defs17"><clipPath
     clipPathUnits="userSpaceOnUse"
     id="clipPath954"><path
       inkscape:connector-curvature="0"
       d="m 0,0 1785.827,0 0,841.89 L 0,841.89 0,0 z"
       id="path956" /></clipPath><clipPath
     clipPathUnits="userSpaceOnUse"
     id="clipPath954-4"><path
       inkscape:connector-curvature="0"
       d="m 0,0 1785.827,0 0,841.89 L 0,841.89 0,0 z"
       id="path956-0" /></clipPath></defs><sodipodi:namedview
   pagecolor="#ffffff"
   bordercolor="#666666"
   borderopacity="1"
   objecttolerance="10"
   gridtolerance="10"
   guidetolerance="10"
   inkscape:pageopacity="0"
   inkscape:pageshadow="2"
   inkscape:window-width="1600"
   inkscape:window-height="837"
   id="namedview15"
   showgrid="false"
   fit-margin-top="0"
   fit-margin-left="0"
   fit-margin-right="0"
   fit-margin-bottom="0"
   inkscape:zoom="1.3508058"
   inkscape:cx="322.90189"
   inkscape:cy="102.2107"
   inkscape:window-x="-8"
   inkscape:window-y="-8"
   inkscape:window-maximized="1"
   inkscape:current-layer="g3"
   showguides="true"
   inkscape:guide-bbox="true" />
<g
   id="g3"
   transform="translate(-1.07,0.0339978)">
	<path
   style="fill:#000000"
   d="M 15.578,123.027 C 7.422,123.027 0.812,116.41 0.812,108.23 V 14.184 c 0,-8.148 6.609,-14.766 14.766,-14.766 h 94.102 c 8.156,0 14.766,6.617 14.766,14.766 v 94.047 c 0,8.18 -6.609,14.797 -14.766,14.797 H 15.578 z"
   id="path5"
   inkscape:connector-curvature="0"
   inkscape:export-filename="C:\Users\MaartenPieter\Dropbox\YellowBytes\waterschapp\graphics_app\icons\voorzieningen\hdpi\parking_v2.png"
   inkscape:export-xdpi="37.849998"
   inkscape:export-ydpi="37.849998" />
	<path
   style="fill:#ffffff"
   d="M 15.578,1.91 C 8.812,1.91 3.312,7.426 3.312,14.183 l 0,94.047 c 0,6.758 5.5,12.281 12.266,12.281 l 94.102,0 c 6.758,0 12.25,-5.523 12.25,-12.281 l 0,-94.046 c 0,-6.758 -5.492,-12.273 -12.25,-12.273 l -73.795488,0 -20.306512,0 z"
   id="path7"
   inkscape:connector-curvature="0"
   sodipodi:nodetypes="csssssssccc" />
	
	
	
<path
   d="m 99.129714,26.314007 c -1.09629,-5.453322 -4.581916,-7.631837 -9.824413,-9.810354 -5.242496,-2.192572 -17.512477,-4.792738 -26.662246,-4.792738 -9.16383,0 -21.4338,2.600166 -26.676307,4.792738 -5.242496,2.178517 -8.72812,4.357032 -9.824407,9.810354 l -3.935385,30.246261 0,41.672937 6.788535,0 0,6.535555 c 0,7.95511 11.66561,7.95511 11.66561,0 l 0,-6.535555 43.977949,0 0,6.535555 c 0,7.95511 11.637508,7.95511 11.637508,0 l 0,-6.535555 6.774482,0 0,-41.672937 z m -54.786206,-7.926992 36.570993,0 c 3.598066,0 3.598066,6.816652 0,6.816652 l -36.570993,0 c -3.584015,0 -3.584015,-6.816652 0,-6.816652 m -9.529264,67.337283 c -3.387241,0 -6.14201,-2.740718 -6.14201,-6.156073 0,-3.387242 2.754769,-6.142022 6.14201,-6.142022 3.401305,0 6.156073,2.75478 6.156073,6.142022 0,3.415355 -2.754768,6.156073 -6.156073,6.156073 m 55.64356,0 c -3.401293,0 -6.170123,-2.740718 -6.170123,-6.156073 0,-3.387242 2.76883,-6.142022 6.170123,-6.142022 3.37319,0 6.12796,2.75478 6.12796,6.142022 0,3.415355 -2.75477,6.156073 -6.12796,6.156073 m 2.41745,-25.973559 -60.394129,0 c -1.756873,0 -3.218582,-1.461716 -3.218582,-3.218583 0,-0.295154 0.05618,-0.576256 0.112432,-0.843298 l 3.218593,-23.851253 c 0.267041,-1.489825 1.588215,-2.642332 3.148304,-2.642332 l 53.858584,0 c 1.5601,0 2.881263,1.152507 3.162355,2.642332 l 3.204531,23.851253 c 0.05618,0.267045 0.112443,0.548144 0.112443,0.843298 0,1.756867 -1.447657,3.218583 -3.204531,3.218583"
   style="fill:#000000;fill-opacity:1;fill-rule:nonzero;stroke:none"
   id="path6764"
   inkscape:connector-curvature="0" /></g>
</svg>