<?xml version="1.0" encoding="UTF-8" standalone="no"?>
<!-- Generator: Adobe Illustrator 13.0.2, SVG Export Plug-In . SVG Version: 6.00 Build 14948)  -->

<svg
   xmlns:dc="http://purl.org/dc/elements/1.1/"
   xmlns:cc="http://creativecommons.org/ns#"
   xmlns:rdf="http://www.w3.org/1999/02/22-rdf-syntax-ns#"
   xmlns:svg="http://www.w3.org/2000/svg"
   xmlns="http://www.w3.org/2000/svg"
   xmlns:sodipodi="http://sodipodi.sourceforge.net/DTD/sodipodi-0.dtd"
   xmlns:inkscape="http://www.inkscape.org/namespaces/inkscape"
   version="1.1"
   id="Layer_1"
   x="0px"
   y="0px"
   width="123.634"
   height="123.61"
   viewBox="-0.258 -0.548 123.634 123.61"
   xml:space="preserve"
   inkscape:version="0.48.4 r9939"
   sodipodi:docname="beach.svg"><metadata
   id="metadata19"><rdf:RDF><cc:Work
       rdf:about=""><dc:format>image/svg+xml</dc:format><dc:type
         rdf:resource="http://purl.org/dc/dcmitype/StillImage" /><dc:title></dc:title></cc:Work></rdf:RDF></metadata><defs
   id="defs17"><inkscape:path-effect
     effect="spiro"
     id="path-effect4006"
     is_visible="true" /><inkscape:perspective
     sodipodi:type="inkscape:persp3d"
     inkscape:vp_x="0 : 61.805 : 1"
     inkscape:vp_y="0 : 1000 : 0"
     inkscape:vp_z="123.634 : 61.805 : 1"
     inkscape:persp3d-origin="61.817001 : 41.203334 : 1"
     id="perspective3956" /><inkscape:path-effect
     effect="spiro"
     id="path-effect3954"
     is_visible="true" /><inkscape:path-effect
     effect="spiro"
     id="path-effect3950"
     is_visible="true" /><clipPath
     clipPathUnits="userSpaceOnUse"
     id="clipPath954"><path
       inkscape:connector-curvature="0"
       d="m 0,0 1785.827,0 0,841.89 L 0,841.89 0,0 z"
       id="path956" /></clipPath><clipPath
     clipPathUnits="userSpaceOnUse"
     id="clipPath954-4"><path
       inkscape:connector-curvature="0"
       d="m 0,0 1785.827,0 0,841.89 L 0,841.89 0,0 z"
       id="path956-0" /></clipPath></defs><sodipodi:namedview
   pagecolor="#ffffff"
   bordercolor="#666666"
   borderopacity="1"
   objecttolerance="10"
   gridtolerance="10"
   guidetolerance="10"
   inkscape:pageopacity="0"
   inkscape:pageshadow="2"
   inkscape:window-width="1104"
   inkscape:window-height="660"
   id="namedview15"
   showgrid="false"
   fit-margin-top="0"
   fit-margin-left="0"
   fit-margin-right="0"
   fit-margin-bottom="0"
   inkscape:zoom="4.0000001"
   inkscape:cx="80.128842"
   inkscape:cy="63.357109"
   inkscape:window-x="1922"
   inkscape:window-y="166"
   inkscape:window-maximized="0"
   inkscape:current-layer="g3" />
<g
   id="g3"
   transform="translate(-1.07,0.0339978)">
	<path
   style="fill:#000000"
   d="M 15.578,123.027 C 7.422,123.027 0.812,116.41 0.812,108.23 V 14.184 c 0,-8.148 6.609,-14.766 14.766,-14.766 h 94.102 c 8.156,0 14.766,6.617 14.766,14.766 v 94.047 c 0,8.18 -6.609,14.797 -14.766,14.797 H 15.578 z"
   id="path5"
   inkscape:connector-curvature="0"
   inkscape:export-filename="C:\Users\MaartenPieter\Dropbox\YellowBytes\waterschapp\graphics_app\icons\voorzieningen\hdpi\sand_beach.png"
   inkscape:export-xdpi="37.849998"
   inkscape:export-ydpi="37.849998" />
	<path
   style="fill:#ffffff"
   d="M 15.578,1.91 C 8.812,1.91 3.312,7.426 3.312,14.183 v 94.047 c 0,6.758 5.5,12.281 12.266,12.281 h 94.102 c 6.758,0 12.25,-5.523 12.25,-12.281 V 14.184 c 0,-6.758 -5.492,-12.273 -12.25,-12.273 H 15.578 z"
   id="path7"
   inkscape:connector-curvature="0" />
	
	
	
<g
   id="g3786"
   transform="translate(1.4853539,-4.5856168)"><path
     inkscape:connector-curvature="0"
     id="path4084"
     d="m 21.265974,76.238849 c -2.266803,0 -4.47078,0.486687 -6.40453,1.383137 -1.869684,0.85794 -3.99141,1.353069 -6.1940518,1.35307 l 0,9.291078 c 2.2026408,3e-6 4.3243288,-0.50784 6.1940518,-1.353069 1.933744,-0.896433 4.137723,-1.413205 6.40453,-1.413207 2.27947,2e-6 4.415105,0.516755 6.374461,1.413207 1.869727,0.845231 3.961339,1.35307 6.163984,1.353069 2.189839,0 4.298857,-0.507842 6.194052,-1.353069 1.933762,-0.896479 4.107798,-1.413208 6.374462,-1.413207 2.253863,-5e-6 4.427907,0.516759 6.374461,1.413207 0.941266,0.422616 1.941089,0.761753 2.976753,0.992251 3.87902,-3.192864 7.860477,-6.138274 11.305649,-8.028214 2.380457,-1.305862 5.047626,-2.396442 7.847804,-3.277435 -1.083699,-0.245268 -2.220505,-0.360818 -3.36764,-0.360818 -2.266663,-3e-6 -4.440716,0.486688 -6.374462,1.383137 -1.895342,0.858046 -3.99141,1.353072 -6.194052,1.35307 -2.20264,-2e-6 -4.311524,-0.495032 -6.194052,-1.35307 -1.946557,-0.896449 -4.120603,-1.383136 -6.374461,-1.383137 -2.266667,10e-7 -4.440714,0.486688 -6.374462,1.383137 -1.895188,0.858019 -4.004214,1.35307 -6.194052,1.35307 -2.202642,1e-6 -4.294256,-0.495035 -6.163984,-1.35307 -1.959358,-0.896452 -4.094991,-1.383137 -6.374461,-1.383137 z m 0,15.394925 c -2.266803,0 -4.470781,0.486688 -6.40453,1.383138 -1.869684,0.85794 -3.99141,1.353069 -6.1940518,1.35307 l 0,9.291068 c 2.2026398,1e-5 4.3243298,-0.50784 6.1940518,-1.35307 1.933744,-0.89642 4.137724,-1.41319 6.40453,-1.4132 2.279471,1e-5 4.415106,0.51675 6.374461,1.4132 1.869727,0.84523 3.961338,1.35307 6.163984,1.35307 2.189838,0 4.298857,-0.50784 6.194052,-1.35307 1.635477,-1.64937 5.408386,-5.392667 10.644148,-10.042773 -1.365901,-0.39897 -2.794964,-0.631431 -4.269686,-0.631433 -2.266667,2e-6 -4.440714,0.486689 -6.374462,1.383138 -1.895188,0.858019 -4.004214,1.35307 -6.194052,1.35307 -2.202642,1e-6 -4.294255,-0.495037 -6.163984,-1.35307 -1.959358,-0.896452 -4.094991,-1.383137 -6.374461,-1.383138 z"
     style="fill:#000000;fill-opacity:1;fill-rule:nonzero;stroke:none" /><path
     style="fill:#000000;fill-opacity:1;stroke:none"
     d="M 70.874329,79.868134 C 86.320624,71.394662 113.6199,72.723331 113.6199,72.723331 l 0,30.929539 -71.12755,0 c 0,0 17.104541,-17.598201 28.381979,-23.784736 z"
     id="rect2996"
     inkscape:connector-curvature="0"
     sodipodi:nodetypes="scccs" /><path
     inkscape:connector-curvature="0"
     id="path2838"
     style="fill:#000000;fill-opacity:1;fill-rule:nonzero;stroke:none"
     d="m 67.29898,53.438956 c 2.997102,-3.535721 8.468666,-6.015528 13.156295,-5.236919 0.522634,-6.436828 -0.207982,-12.463019 3.00243,-18.393218 -9.961883,0.655947 -14.585512,15.870748 -16.158725,23.630137" /><path
     inkscape:connector-curvature="0"
     id="path2840"
     style="fill:#000000;fill-opacity:1;fill-rule:nonzero;stroke:none"
     d="m 102.60818,42.143846 c 2.09584,-2.49047 7.03946,-3.765038 9.63658,-1.429222 -6.77279,-9.455251 -15.145462,-15.52944 -27.04852,-11.487091 9.305935,2.831777 15.82808,11.513757 17.41194,12.916313" /><path
     inkscape:connector-curvature="0"
     id="path2842"
     style="fill:#000000;fill-opacity:1;fill-rule:nonzero;stroke:none"
     d="M 100.731,42.527815 C 97.477939,37.984176 87.24408,30.731412 84.98825,31.184712 c -2.405135,0.479961 -3.066421,14.100222 -2.847769,17.027989 1.42922,-2.677124 3.61038,-4.698295 6.132849,-5.951532 L 98.661833,70.520278 100.07505,70.162971 89.601226,41.690547 c 3.46639,-1.290562 7.444735,-1.173241 11.129774,0.837268" /></g></g>
</svg>