<?xml version="1.0" encoding="UTF-8" standalone="no"?>
<!-- Generator: Adobe Illustrator 13.0.2, SVG Export Plug-In . SVG Version: 6.00 Build 14948)  -->

<svg
   xmlns:dc="http://purl.org/dc/elements/1.1/"
   xmlns:cc="http://creativecommons.org/ns#"
   xmlns:rdf="http://www.w3.org/1999/02/22-rdf-syntax-ns#"
   xmlns:svg="http://www.w3.org/2000/svg"
   xmlns="http://www.w3.org/2000/svg"
   xmlns:sodipodi="http://sodipodi.sourceforge.net/DTD/sodipodi-0.dtd"
   xmlns:inkscape="http://www.inkscape.org/namespaces/inkscape"
   version="1.1"
   id="Layer_1"
   x="0px"
   y="0px"
   width="123.634"
   height="123.61"
   viewBox="-0.258 -0.548 123.634 123.61"
   xml:space="preserve"
   inkscape:version="0.48.4 r9939"
   sodipodi:docname="slope.svg"
   inkscape:export-filename="C:\Users\MaartenPieter\Dropbox\YellowBytes\waterschapp\graphics_app\icons\voorzieningen\hdpi\tidal_water.png"
   inkscape:export-xdpi="37.849998"
   inkscape:export-ydpi="37.849998"><metadata
   id="metadata19"><rdf:RDF><cc:Work
       rdf:about=""><dc:format>image/svg+xml</dc:format><dc:type
         rdf:resource="http://purl.org/dc/dcmitype/StillImage" /><dc:title /></cc:Work></rdf:RDF></metadata><defs
   id="defs17"><inkscape:path-effect
     effect="spiro"
     id="path-effect4006"
     is_visible="true" /><inkscape:perspective
     sodipodi:type="inkscape:persp3d"
     inkscape:vp_x="0 : 61.805 : 1"
     inkscape:vp_y="0 : 1000 : 0"
     inkscape:vp_z="123.634 : 61.805 : 1"
     inkscape:persp3d-origin="61.817001 : 41.203334 : 1"
     id="perspective3956" /><inkscape:path-effect
     effect="spiro"
     id="path-effect3954"
     is_visible="true" /><inkscape:path-effect
     effect="spiro"
     id="path-effect3950"
     is_visible="true" /><clipPath
     clipPathUnits="userSpaceOnUse"
     id="clipPath954"><path
       inkscape:connector-curvature="0"
       d="m 0,0 1785.827,0 0,841.89 L 0,841.89 0,0 z"
       id="path956" /></clipPath><clipPath
     clipPathUnits="userSpaceOnUse"
     id="clipPath954-4"><path
       inkscape:connector-curvature="0"
       d="m 0,0 1785.827,0 0,841.89 L 0,841.89 0,0 z"
       id="path956-0" /></clipPath></defs><sodipodi:namedview
   pagecolor="#ffffff"
   bordercolor="#666666"
   borderopacity="1"
   objecttolerance="10"
   gridtolerance="10"
   guidetolerance="10"
   inkscape:pageopacity="0"
   inkscape:pageshadow="2"
   inkscape:window-width="1807"
   inkscape:window-height="807"
   id="namedview15"
   showgrid="false"
   fit-margin-top="0"
   fit-margin-left="0"
   fit-margin-right="0"
   fit-margin-bottom="0"
   inkscape:zoom="0.5"
   inkscape:cx="-266.02125"
   inkscape:cy="181.2644"
   inkscape:window-x="1652"
   inkscape:window-y="52"
   inkscape:window-maximized="0"
   inkscape:current-layer="Layer_1"
   showguides="true"
   inkscape:guide-bbox="true" />
<g
   id="g3"
   transform="translate(-1.07,0.0339978)">
	<path
   style="fill:#000000"
   d="M 15.578,123.027 C 7.422,123.027 0.812,116.41 0.812,108.23 V 14.184 c 0,-8.148 6.609,-14.766 14.766,-14.766 h 94.102 c 8.156,0 14.766,6.617 14.766,14.766 v 94.047 c 0,8.18 -6.609,14.797 -14.766,14.797 H 15.578 z"
   id="path5"
   inkscape:connector-curvature="0" />
	<path
   style="fill:#ffffff"
   d="M 15.578,1.91 C 8.812,1.91 3.312,7.426 3.312,14.183 v 94.047 c 0,6.758 5.5,12.281 12.266,12.281 h 94.102 c 6.758,0 12.25,-5.523 12.25,-12.281 V 14.184 c 0,-6.758 -5.492,-12.273 -12.25,-12.273 H 15.578 z"
   id="path7"
   inkscape:connector-curvature="0" />
	
	
	
<path
   inkscape:connector-curvature="0"
   id="path8620"
   style="fill:#000000;fill-opacity:1;fill-rule:nonzero;stroke:none"
   d="m 10.383038,39.471766 c 2.289212,3e-6 4.498581,-0.519002 6.441791,-1.397452 2.009747,-0.931665 4.272205,-1.477299 6.628105,-1.477301 2.369062,1e-6 4.6049,0.545617 6.641266,1.477302 1.943214,0.878451 4.125966,1.397452 6.415183,1.397451 2.275907,-1e-6 4.458659,-0.519002 6.428341,-1.397451 2.009765,-0.931712 4.272349,-1.477301 6.6281,-1.477298 2.342447,-6e-6 4.605043,0.545616 6.628103,1.477298 1.956522,0.878453 4.139129,1.397453 6.428344,1.397454 2.289215,-5e-6 4.471964,-0.519 6.441793,-1.397455 2.00977,-0.931714 4.272353,-1.477297 6.628102,-1.477299 2.342446,1e-6 4.605045,0.545616 6.601485,1.477303 1.982992,0.878451 4.165747,1.397455 6.45496,1.397446 2.289214,2e-6 4.471967,-0.519 6.415184,-1.397455 2.036316,-0.931889 4.285507,-1.477291 6.627955,-1.477291 2.36906,-2e-6 4.63166,0.545612 6.6281,1.477299 1.95653,0.878447 4.1659,1.397449 6.4551,1.397454 l 0,-9.635937 c -2.28921,2e-6 -4.49858,-0.518993 -6.4551,-1.410755 -1.99645,-0.931684 -4.25904,-1.450831 -6.6281,-1.450829 -2.342443,-3e-6 -4.591735,0.519142 -6.627961,1.450824 -1.94317,0.891662 -4.125961,1.410758 -6.415178,1.410764 -2.289214,-2e-6 -4.471964,-0.519002 -6.454954,-1.410766 -1.996448,-0.931683 -4.259046,-1.450823 -6.601487,-1.450826 -2.355752,-2e-6 -4.618356,0.519148 -6.628105,1.450831 -1.969835,0.89177 -4.152581,1.410758 -6.441793,1.410756 -2.289213,-2e-6 -4.471822,-0.519 -6.42834,-1.410762 -2.023064,-0.931682 -4.285662,-1.450826 -6.628104,-1.450828 -2.355754,10e-7 -4.618353,0.519147 -6.628103,1.45083 -1.969677,0.891742 -4.152437,1.410759 -6.428343,1.41076 -2.289214,0 -4.471967,-0.519 -6.415184,-1.410757 -2.036368,-0.931686 -4.272204,-1.45083 -6.641266,-1.450831 -2.355896,1e-6 -4.618348,0.519146 -6.6281,1.45083 -1.943169,0.89166 -4.152582,1.410759 -6.441795,1.41076 l 1e-6,9.635931 z" /><path
   d="m 10.38304,55.471763 c 2.289212,4e-6 4.498581,-0.519001 6.441792,-1.397451 2.009746,-0.931665 4.272204,-1.477299 6.628104,-1.477301 2.369062,2e-6 4.6049,0.545617 6.641266,1.477303 1.943213,0.878453 4.125965,1.397453 6.415181,1.397453 2.275906,0 4.458658,-0.519001 6.42834,-1.39745 2.009765,-0.931712 4.272349,-1.477301 6.6281,-1.477298 2.342451,-1.2e-5 4.605048,0.545609 6.628108,1.477291 1.956522,0.878454 4.139128,1.397455 6.428343,1.397456 2.289215,-5e-6 4.471964,-0.519 6.441793,-1.397455 2.00977,-0.931714 4.27235,-1.477296 6.628099,-1.477298 2.342447,1e-6 4.605048,0.545615 6.601488,1.477302 1.982992,0.878451 4.165747,1.397455 6.45496,1.397447 2.289213,1e-6 4.471967,-0.519001 6.415184,-1.397455 2.036316,-0.93189 4.285507,-1.477292 6.627952,-1.477292 2.36906,-2e-6 4.63166,0.545612 6.6281,1.477299 1.95653,0.878447 4.1659,1.397449 6.4551,1.397454 l 0,-9.635937 c -2.28921,2e-6 -4.49858,-0.518993 -6.45509,-1.410755 -1.99645,-0.931684 -4.25905,-1.450831 -6.62811,-1.450829 -2.34244,-3e-6 -4.591732,0.519142 -6.627958,1.450824 -1.94317,0.891662 -4.125961,1.410758 -6.415178,1.410764 -2.289214,-2e-6 -4.471965,-0.519002 -6.454956,-1.410765 -1.996447,-0.931684 -4.259047,-1.450824 -6.601485,-1.450829 -2.355751,-2e-6 -4.618355,0.519149 -6.628104,1.450831 -1.969836,0.891771 -4.152584,1.410764 -6.441796,1.410762 -2.289213,-2e-6 -4.471822,-0.519001 -6.42834,-1.410763 -2.023062,-0.931686 -4.285663,-1.450826 -6.628105,-1.450829 -2.355754,1e-6 -4.618353,0.519147 -6.628102,1.45083 -1.969677,0.891742 -4.152436,1.410759 -6.428342,1.410759 -2.289214,0 -4.471967,-0.519 -6.415183,-1.410758 -2.036368,-0.931686 -4.272204,-1.450829 -6.641266,-1.450831 -2.355896,1e-6 -4.618348,0.519146 -6.6281,1.45083 -1.943169,0.89166 -4.152583,1.410759 -6.441795,1.41076 l 0,9.635931 z"
   style="fill:#000000;fill-opacity:1;fill-rule:nonzero;stroke:none"
   id="path4084"
   inkscape:connector-curvature="0" /><path
   style="fill:#000000;fill-opacity:1;stroke:none"
   d="M 48.9375,91.5625 33.75,103.9375 z m -15.1875,12.375 15.1875,-12.375 -0.1875,0 c 0,0 -4.61525,0.505817 -6.625,1.4375 -1.969677,0.891741 -4.161594,1.40625 -6.4375,1.40625 -2.289214,0 -4.463034,-0.514493 -6.40625,-1.40625 -2.036369,-0.931686 -4.255939,-1.437499 -6.625,-1.4375 -2.355896,0 -4.646498,0.505817 -6.65625,1.4375 -1.943169,0.89166 -4.148288,1.40625 -6.4375,1.40625 l 0,9.65625 c 2.289211,0 4.494291,-0.5278 6.4375,-1.40625 2.009747,-0.93166 4.300351,-1.46874 6.65625,-1.46875 2.369062,1e-5 4.588634,0.53706 6.625,1.46875 1.383275,0.62532 4.46875,1.28125 4.46875,1.28125 z"
   id="rect2996"
   inkscape:connector-curvature="0"
   sodipodi:nodetypes="cccccccscsccccscc"
   transform="translate(0.81199896,-0.5819978)" /><path
   style="fill:#000000;fill-opacity:1;fill-rule:nonzero;stroke:none"
   d="M 22.65625,59.5625 C 20.300354,59.562501 18.009752,60.068316 16,61 c -1.943169,0.89166 -4.148287,1.40625 -6.4375,1.40625 l 0,9.65625 c 2.289212,3e-6 4.49429,-0.5278 6.4375,-1.40625 2.009747,-0.931665 4.30035,-1.468747 6.65625,-1.46875 2.369062,2e-6 4.588635,0.537065 6.625,1.46875 1.943212,0.878454 4.117034,1.40625 6.40625,1.40625 2.275906,0 4.467817,-0.527801 6.4375,-1.40625 2.009766,-0.931713 4.269249,-1.468752 6.625,-1.46875 2.342451,-1.2e-5 4.60194,0.537068 6.625,1.46875 1.956522,0.878454 4.148284,1.406249 6.4375,1.40625 2.289215,-5e-6 4.467672,-0.527795 6.4375,-1.40625 2.00977,-0.931714 4.269251,-1.468748 6.625,-1.46875 0.49123,0 0.986261,0.01598 1.46875,0.0625 l 5.4375,-4.40625 2.614685,-2.143463 L 81.46875,61 C 79.563675,59.893417 77.217438,59.562505 74.875,59.5625 72.519249,59.562498 70.259749,60.068318 68.25,61 66.280164,61.891771 64.101713,62.406251 61.8125,62.40625 59.523288,62.406247 57.331518,61.891762 55.375,61 53.351938,60.068314 51.092442,59.562502 48.75,59.5625 c -2.355756,10e-7 -4.61525,0.505818 -6.625,1.4375 -1.969676,0.891742 -4.161594,1.40625 -6.4375,1.40625 -2.289213,0 -4.463035,-0.514493 -6.40625,-1.40625 -2.036369,-0.931687 -4.255938,-1.437499 -6.625,-1.4375 z"
   id="path3767"
   inkscape:connector-curvature="0"
   sodipodi:nodetypes="sccccscscscscscccsscscscscs"
   transform="translate(0.81199896,-0.5819978)" /><path
   style="fill:#000000;fill-opacity:1;fill-rule:nonzero;stroke:none"
   d="M 22.65625 75.5625 C 20.300354 75.562501 18.009752 76.068316 16 77 C 14.056831 77.89166 11.851713 78.40625 9.5625 78.40625 L 9.5625 88.0625 C 11.851712 88.062503 14.05679 87.5347 16 86.65625 C 18.009747 85.724585 20.30035 85.187503 22.65625 85.1875 C 25.025312 85.187502 27.244885 85.724565 29.28125 86.65625 C 31.224462 87.534704 33.398284 88.0625 35.6875 88.0625 C 37.963406 88.0625 40.155317 87.534699 42.125 86.65625 C 44.134766 85.724537 46.394249 85.187498 48.75 85.1875 C 50.989464 85.187489 53.139793 85.704529 55.09375 86.5625 L 65.78125 77.84375 C 64.509908 78.184405 63.183 78.406251 61.8125 78.40625 C 59.523288 78.406247 57.331518 77.891762 55.375 77 C 53.351938 76.068314 51.092442 75.562502 48.75 75.5625 C 46.394244 75.562501 44.13475 76.068318 42.125 77 C 40.155324 77.891742 37.963406 78.40625 35.6875 78.40625 C 33.398287 78.40625 31.224465 77.891757 29.28125 77 C 27.244881 76.068313 25.025312 75.562501 22.65625 75.5625 z "
   id="path2998"
   transform="translate(0.81199896,-0.5819978)" /><path
   style="fill:#000000;fill-opacity:1;stroke:none"
   d="m 94.59623,62.27231 20.27872,4e-6 0,45.541916 -76.27872,0 z"
   id="path3008"
   inkscape:connector-curvature="0"
   sodipodi:nodetypes="ccccc" /></g>
</svg>