<?xml version="1.0" encoding="UTF-8" standalone="no"?>
<!-- Generator: Adobe Illustrator 13.0.2, SVG Export Plug-In . SVG Version: 6.00 Build 14948)  -->

<svg
   xmlns:dc="http://purl.org/dc/elements/1.1/"
   xmlns:cc="http://creativecommons.org/ns#"
   xmlns:rdf="http://www.w3.org/1999/02/22-rdf-syntax-ns#"
   xmlns:svg="http://www.w3.org/2000/svg"
   xmlns="http://www.w3.org/2000/svg"
   xmlns:sodipodi="http://sodipodi.sourceforge.net/DTD/sodipodi-0.dtd"
   xmlns:inkscape="http://www.inkscape.org/namespaces/inkscape"
   version="1.1"
   id="Layer_1"
   x="0px"
   y="0px"
   width="123.634"
   height="123.61"
   viewBox="-0.258 -0.548 123.634 123.61"
   xml:space="preserve"
   inkscape:version="0.48.4 r9939"
   sodipodi:docname="sweet_water.svg"><metadata
   id="metadata19"><rdf:RDF><cc:Work
       rdf:about=""><dc:format>image/svg+xml</dc:format><dc:type
         rdf:resource="http://purl.org/dc/dcmitype/StillImage" /><dc:title /></cc:Work></rdf:RDF></metadata><defs
   id="defs17"><inkscape:path-effect
     effect="spiro"
     id="path-effect4006"
     is_visible="true" /><inkscape:perspective
     sodipodi:type="inkscape:persp3d"
     inkscape:vp_x="0 : 61.805 : 1"
     inkscape:vp_y="0 : 1000 : 0"
     inkscape:vp_z="123.634 : 61.805 : 1"
     inkscape:persp3d-origin="61.817001 : 41.203334 : 1"
     id="perspective3956" /><inkscape:path-effect
     effect="spiro"
     id="path-effect3954"
     is_visible="true" /><inkscape:path-effect
     effect="spiro"
     id="path-effect3950"
     is_visible="true" /><clipPath
     clipPathUnits="userSpaceOnUse"
     id="clipPath954"><path
       inkscape:connector-curvature="0"
       d="m 0,0 1785.827,0 0,841.89 L 0,841.89 0,0 z"
       id="path956" /></clipPath><clipPath
     clipPathUnits="userSpaceOnUse"
     id="clipPath954-4"><path
       inkscape:connector-curvature="0"
       d="m 0,0 1785.827,0 0,841.89 L 0,841.89 0,0 z"
       id="path956-0" /></clipPath></defs><sodipodi:namedview
   pagecolor="#ffffff"
   bordercolor="#666666"
   borderopacity="1"
   objecttolerance="10"
   gridtolerance="10"
   guidetolerance="10"
   inkscape:pageopacity="0"
   inkscape:pageshadow="2"
   inkscape:window-width="1807"
   inkscape:window-height="807"
   id="namedview15"
   showgrid="false"
   fit-margin-top="0"
   fit-margin-left="0"
   fit-margin-right="0"
   fit-margin-bottom="0"
   inkscape:zoom="1.3508058"
   inkscape:cx="-190.53911"
   inkscape:cy="45.007146"
   inkscape:window-x="1652"
   inkscape:window-y="52"
   inkscape:window-maximized="0"
   inkscape:current-layer="flowRoot3802" />
<g
   id="g3"
   transform="translate(-1.07,0.0339978)">
	<path
   style="fill:#000000"
   d="M 15.578,123.027 C 7.422,123.027 0.812,116.41 0.812,108.23 V 14.184 c 0,-8.148 6.609,-14.766 14.766,-14.766 h 94.102 c 8.156,0 14.766,6.617 14.766,14.766 v 94.047 c 0,8.18 -6.609,14.797 -14.766,14.797 H 15.578 z"
   id="path5"
   inkscape:connector-curvature="0" />
	<path
   style="fill:#ffffff"
   d="M 15.578,1.91 C 8.812,1.91 3.312,7.426 3.312,14.183 v 94.047 c 0,6.758 5.5,12.281 12.266,12.281 h 94.102 c 6.758,0 12.25,-5.523 12.25,-12.281 V 14.184 c 0,-6.758 -5.492,-12.273 -12.25,-12.273 H 15.578 z"
   id="path7"
   inkscape:connector-curvature="0" />
	
	
	
<g
   id="g3926"
   transform="matrix(0.70046151,-0.32131682,-0.32131682,0.70046151,46.404152,39.451937)"><path
     d="m -25.301435,56.948232 c 4.139128,1.898712 7.70342,2.792783 10.48834,2.816184 2.861088,-0.01763 6.4992822,0.872325 10.7589834,2.826339 4.28350284,1.964938 8.7786641,4.805903 13.2333709,8.179475 4.2421267,3.200059 8.6192287,5.948871 12.7583637,7.84758 4.115068,1.88767 7.631236,2.75967 10.464022,2.80503 2.861083,-0.0177 6.499543,0.87244 10.758981,2.82634 4.235377,1.94285 8.778926,4.80602 13.209573,8.16855 4.266191,3.2111 8.643029,5.959789 12.782162,7.8585 4.139127,1.8987 7.655295,2.77071 10.48834,2.81618 2.861089,-0.0177 6.499553,0.87245 10.758982,2.82634 4.23538,1.94286 8.778927,4.80602 13.161447,8.14648 4.31405,3.23305 8.69116,5.98187 12.83028,7.88056 4.13913,1.89871 7.6553,2.77071 10.44023,2.79411 2.90894,0.004 6.52334,0.88337 10.75872,2.82623 4.2835,1.96493 8.82705,4.82809 13.20957,8.16855 4.26619,3.21109 8.69142,5.98198 12.83054,7.88069 l -7.99219,-17.42274 c -4.13912,-1.8987 -8.56435,-4.66958 -12.84157,-7.90474 -4.38253,-3.34046 -8.90412,-6.15576 -13.18762,-8.12069 -4.23537,-1.94286 -7.87173,-2.86979 -10.78068,-2.87409 -2.77389,5.2e-4 -6.29005,-0.87134 -10.42918,-2.77004 C 104.2601,102.62436 99.883,99.875549 95.557913,96.618429 91.175383,93.27797 86.653795,90.46268 82.418423,88.51982 78.158985,86.56592 74.498561,85.62796 71.637483,85.64562 68.81547,85.62422 65.299302,84.7522 61.160174,82.85349 57.021046,80.95478 52.644203,78.20609 48.366981,74.970931 43.936326,71.608396 39.414734,68.793099 35.179361,66.85024 30.919919,64.896344 27.2595,63.95838 24.398421,63.97604 21.576671,63.95472 18.060502,63.082742 13.945435,61.195072 9.8063063,59.296365 5.4292031,56.547553 1.1760373,53.323434 -3.278676,49.949857 -7.7518768,47.156758 -12.035379,45.191821 c -4.259697,-1.954014 -7.919851,-2.891859 -10.780933,-2.874199 -2.773889,5.18e-4 -6.338182,-0.893418 -10.477309,-2.792124 l 7.992186,17.422734 z"
     style="fill:#231f20;fill-opacity:1;fill-rule:nonzero;stroke:none"
     id="path8620"
     inkscape:connector-curvature="0" /><path
     inkscape:connector-curvature="0"
     id="path4084"
     style="fill:#231f20;fill-opacity:1;fill-rule:nonzero;stroke:none"
     d="m -12.030795,85.87784 c 4.1391272,1.898712 7.7034184,2.792783 10.4883376,2.816184 2.8610877,-0.01763 6.4992815,0.872325 10.7589827,2.826339 4.2835037,1.964938 8.7786657,4.805903 13.2333737,8.179476 4.242127,3.200061 8.619229,5.948871 12.758364,7.847581 4.115068,1.88767 7.631236,2.75967 10.464022,2.80503 2.861083,-0.0177 6.499543,0.87244 10.758981,2.82634 4.235377,1.94284 8.778926,4.80601 13.209573,8.16854 4.266191,3.2111 8.643029,5.95979 12.782162,7.8585 4.139127,1.8987 7.655295,2.77071 10.48834,2.81618 2.861089,-0.0177 6.499549,0.87245 10.758979,2.82634 4.23538,1.94286 8.77893,4.80602 13.16145,8.14648 4.31405,3.23305 8.69116,5.98187 12.83028,7.88056 4.13913,1.89871 7.6553,2.77071 10.44023,2.79411 2.90894,0.004 6.52334,0.88337 10.75872,2.82623 4.2835,1.96493 8.82705,4.82809 13.20957,8.16855 4.26619,3.21109 8.69142,5.98198 12.83054,7.88069 l -7.99219,-17.42274 c -4.13912,-1.8987 -8.56435,-4.66958 -12.84157,-7.90474 -4.38253,-3.34046 -8.90412,-6.15576 -13.18762,-8.12069 -4.23537,-1.94286 -7.87173,-2.86979 -10.78068,-2.87409 -2.77389,5.2e-4 -6.29005,-0.87134 -10.42918,-2.77004 -4.13913,-1.89871 -8.51623,-4.64752 -12.84132,-7.90464 -4.38253,-3.34046 -8.90412,-6.15575 -13.139487,-8.09861 -4.259438,-1.9539 -7.919862,-2.89186 -10.78094,-2.8742 -2.822013,-0.0214 -6.338181,-0.89341 -10.477309,-2.79212 -4.139128,-1.89871 -8.515971,-4.6474 -12.793193,-7.88256 -4.430655,-3.36254 -8.952247,-6.177831 -13.18762,-8.120692 -4.259442,-1.953896 -7.919861,-2.89186 -10.78094,-2.8742 C 34.847311,92.884328 31.331142,92.01235 27.216075,90.12468 23.076946,88.225973 18.699842,85.477161 14.446675,82.253042 9.9919609,78.879465 5.5187601,76.086366 1.2352583,74.121429 -3.024438,72.167415 -6.6845908,71.22957 -9.5456724,71.24723 -12.319561,71.247748 -15.883854,70.353812 -20.022981,68.455106 l 7.992186,17.422734 z" /><g
     transform="matrix(1.7909358,0.82154098,0.82154098,1.7909358,-117.57246,-104.12138)"
     style="font-size:40px;font-style:normal;font-weight:normal;line-height:125%;letter-spacing:0px;word-spacing:0px;fill:#000000;fill-opacity:1;stroke:none;font-family:Sans"
     id="flowRoot3802"><path
       d="m 13.023438,58.204189 0,-5.214844 15.039062,-18.574218 -13.339844,0 0,-4.84375 20.957031,0 0,4.492187 -15.683593,19.316406 16.289062,0 0,4.824219 z"
       style="font-weight:bold"
       id="path3000" /><path
       d="m 38.785156,44.063564 c -10e-7,-2.91665 0.436196,-5.364564 1.308594,-7.34375 0.651038,-1.45831 1.539709,-2.766903 2.666016,-3.925781 1.126295,-1.158828 2.360018,-2.018202 3.701171,-2.578125 1.783843,-0.75518 3.841133,-1.132784 6.171875,-1.132813 4.218731,2.9e-5 7.594378,1.308622 10.126954,3.925782 2.532523,2.61721 3.798798,6.256529 3.798828,10.917968 -3e-5,4.622406 -1.256539,8.238939 -3.769532,10.84961 -2.513044,2.610678 -5.872415,3.916015 -10.078125,3.916015 -4.257823,0 -7.643237,-1.298827 -10.15625,-3.896484 -2.513023,-2.59765 -3.769532,-6.175121 -3.769531,-10.732422 z m 5.957031,-0.195312 c -7e-6,3.242198 0.74869,5.699878 2.246094,7.373046 1.497385,1.673183 3.398424,2.509771 5.703125,2.509766 2.30467,5e-6 4.195944,-0.830073 5.673828,-2.490234 1.477842,-1.660148 2.216774,-4.15038 2.216797,-7.470703 -2.3e-5,-3.281233 -0.719424,-5.729147 -2.158203,-7.34375 -1.438822,-1.61456 -3.349627,-2.421851 -5.732422,-2.421875 -2.382826,2.4e-5 -4.303397,0.81708 -5.761719,2.451171 -1.458341,1.634135 -2.187507,4.098325 -2.1875,7.392579 z"
       style="font-weight:bold"
       id="path3002" /><path
       d="m 71.050781,58.204189 0,-28.632812 21.230469,0 0,4.84375 -15.449219,0 0,6.347656 14.375,0 0,4.824219 -14.375,0 0,7.792968 15.996094,0 0,4.824219 z"
       style="font-weight:bold"
       id="path3004" /><path
       d="m 104.21484,58.204189 0,-23.789062 -8.49609,0 0,-4.84375 22.75391,0 0,4.84375 -8.47657,0 0,23.789062 z"
       style="font-weight:bold"
       id="path3006" /></g></g></g>
</svg>