<?xml version="1.0" encoding="UTF-8" standalone="no"?>
<svg
   xmlns:dc="http://purl.org/dc/elements/1.1/"
   xmlns:cc="http://creativecommons.org/ns#"
   xmlns:rdf="http://www.w3.org/1999/02/22-rdf-syntax-ns#"
   xmlns:svg="http://www.w3.org/2000/svg"
   xmlns="http://www.w3.org/2000/svg"
   xmlns:sodipodi="http://sodipodi.sourceforge.net/DTD/sodipodi-0.dtd"
   xmlns:inkscape="http://www.inkscape.org/namespaces/inkscape"
   width="169.96875"
   height="169.9375"
   id="svg3163"
   version="1.1"
   inkscape:version="1.0.1 (c497b03c, 2020-09-10)"
   sodipodi:docname="swim_icon_further_investigation_border.svg">
  <defs
     id="defs18">
    <filter
       style="color-interpolation-filters:sRGB;"
       inkscape:label="Drop Shadow"
       id="filter330">
      <feFlood
         flood-opacity="0.85098"
         flood-color="rgb(0,0,0)"
         result="flood"
         id="feFlood320" />
      <feComposite
         in="flood"
         in2="SourceGraphic"
         operator="in"
         result="composite1"
         id="feComposite322" />
      <feGaussianBlur
         in="composite1"
         stdDeviation="1.5"
         result="blur"
         id="feGaussianBlur324" />
      <feOffset
         dx="1"
         dy="1"
         result="offset"
         id="feOffset326" />
      <feComposite
         in="SourceGraphic"
         in2="offset"
         operator="over"
         result="composite2"
         id="feComposite328" />
    </filter>
  </defs>
  <sodipodi:namedview
     id="base"
     pagecolor="#ffffff"
     bordercolor="#666666"
     borderopacity="1.0"
     inkscape:pageopacity="0.0"
     inkscape:pageshadow="2"
     inkscape:zoom="1.9284906"
     inkscape:cx="31.85223"
     inkscape:cy="78.168785"
     inkscape:document-units="px"
     inkscape:current-layer="svg3163"
     showgrid="false"
     fit-margin-top="0"
     fit-margin-left="0"
     fit-margin-right="0"
     fit-margin-bottom="0"
     inkscape:window-width="1252"
     inkscape:window-height="752"
     inkscape:window-x="87"
     inkscape:window-y="25"
     inkscape:window-maximized="0"
     inkscape:document-rotation="0" />
  <metadata
     id="metadata3168">
    <rdf:RDF>
      <cc:Work
         rdf:about="">
        <dc:format>image/svg+xml</dc:format>
        <dc:type
           rdf:resource="http://purl.org/dc/dcmitype/StillImage" />
        <dc:title></dc:title>
      </cc:Work>
    </rdf:RDF>
  </metadata>
  <path
     style="opacity:1;fill:#ffffff;fill-opacity:1;stroke:#ffffff;stroke-width:8.91391;stroke-linejoin:miter;stroke-miterlimit:4;stroke-dasharray:none;stroke-opacity:1"
     d="m 27.95447,13.676726 114.05981,-2.8e-4 c 7.15585,-1.2e-5 14.26227,7.10642 14.26227,14.262265 v 22.377857 91.681922 c 0,7.15584 -7.10642,14.26224 -14.26227,14.26226 l -114.05981,3e-4 c -7.155922,10e-6 -14.262264,-7.10664 -14.262264,-14.26256 V 27.938711 c 0,-7.155782 7.106483,-14.261962 14.262264,-14.261985 z"
     id="statusIconBorder-4"
     class="statusIconBorder" />
  <path
     style="fill:#ffffff;fill-opacity:1;stroke:none;stroke-width:8.86027;stroke-linejoin:miter;stroke-miterlimit:4;stroke-dasharray:none;stroke-opacity:1"
     d="m 28.297689,14.105769 113.373371,-2.78e-4 c 7.11279,-1.2e-5 14.17643,7.063653 14.17643,14.176433 v 22.243184 91.130182 c 0,7.11277 -7.06364,14.1764 -14.17643,14.17642 l -113.373371,3e-4 c -7.112857,1e-5 -14.176433,-7.06387 -14.176433,-14.17672 V 28.281924 c 0,-7.112718 7.063716,-14.176132 14.176433,-14.176155 z"
     id="statusIconBorderBackground"
     inkscape:label="#statusIconBorderBackground" />
  <path
     style="fill:#ffffff;fill-opacity:1;stroke:#0098c9;stroke-width:8.57107;stroke-linejoin:miter;stroke-miterlimit:4;stroke-dasharray:none;stroke-opacity:1"
     d="m 30.147928,16.418726 109.672892,-2.69e-4 c 6.88063,-1.2e-5 13.71372,6.833096 13.71372,13.713716 v 21.51717 88.155697 c 0,6.88061 -6.83309,13.71369 -13.71372,13.71371 l -109.672892,2.9e-4 c -6.880694,1e-5 -13.713715,-6.83331 -13.713715,-13.714 V 30.132173 c 0,-6.88056 6.833156,-13.713425 13.713715,-13.713447 z"
     id="statusIconBorder"
     class="statusIconBorder" />
  <g
     id="g2216"
     transform="translate(-1.5877205,0.321075)">
    <path
       id="path9-5-5-12-1"
       d="m 130.34632,115.90171 c -1.91767,0 -3.74516,-0.43211 -5.38428,-1.17845 -1.67394,-0.76064 -3.57108,-1.22042 -5.55213,-1.22042 -1.9882,0 -3.88533,0.46068 -5.55928,1.22042 -1.63912,0.74634 -3.46661,1.17845 -5.38428,1.17845 -1.91767,0 -3.7523,-0.43211 -5.38429,-1.17845 -1.70161,-0.76064 -3.598751,-1.22042 -5.559265,-1.22042 -1.981052,0 -3.878192,0.46068 -5.559275,1.22042 -1.631975,0.74634 -3.487153,1.17845 -5.384281,1.17845 -1.917665,0 -3.745171,-0.43211 -5.398572,-1.17845 -1.681083,-0.76064 -3.571077,-1.22042 -5.53785,-1.22042 -1.981052,0 -3.878179,0.46068 -5.559263,1.22042 -1.631987,0.74634 -3.487153,1.17845 -5.405717,1.17845 -1.889982,0 -3.74516,-0.43211 -5.377147,-1.17845 -1.681083,-0.76064 -3.578211,-1.22042 -5.559263,-1.22042 -1.966773,0 -3.856767,0.46068 -5.53785,1.22042 -1.659647,0.74634 -3.487153,1.17845 -5.405706,1.17845 v -8.08401 c 1.917665,0 3.74516,-0.43925 5.405706,-1.15793 1.681083,-0.78116 3.571077,-1.24184 5.53785,-1.24184 1.981052,0 3.87818,0.46068 5.559263,1.24184 1.631987,0.71868 3.487165,1.15793 5.377147,1.15793 1.917665,0 3.77373,-0.43925 5.405717,-1.15793 1.681084,-0.78116 3.578211,-1.24184 5.559263,-1.24184 1.966773,0 3.856767,0.46068 5.53785,1.24184 1.653401,0.71868 3.480008,1.15793 5.398572,1.15793 1.897128,0 3.752306,-0.43925 5.384281,-1.15793 1.681083,-0.78116 3.578223,-1.24184 5.559275,-1.24184 1.959627,0 3.856755,0.46068 5.559265,1.24184 1.63198,0.71868 3.46662,1.15793 5.38429,1.15793 1.91767,0 3.74516,-0.43925 5.38428,-1.15793 1.67395,-0.78116 3.57108,-1.24184 5.55928,-1.24184 1.98105,0 3.87819,0.46068 5.55213,1.24184 1.63912,0.71868 3.46661,1.15793 5.38428,1.15793 z"
       style="fill:#0098c9;fill-opacity:1;stroke:none;stroke-width:0.892769" />
    <path
       id="path11-5-7-3-9"
       d="m 117.66634,93.03791 c 5.74763,0 10.41325,-4.68703 10.41325,-10.44092 0,-5.7539 -4.66651,-10.4204 -10.41325,-10.4204 -5.76104,0 -10.4204,4.6665 -10.4204,10.4204 0,5.75389 4.24779,10.44092 10.4204,10.44092 z"
       style="fill:#0098c9;fill-opacity:1;stroke:none;stroke-width:0.892769" />
    <path
       id="path13-1-6-3-8"
       d="m 57.007176,98.9043 c 0.808849,0.19551 1.569488,0.47405 2.294413,0.8017 1.631975,0.73922 3.487153,1.17845 5.377147,1.17845 1.917665,0 3.77373,-0.43923 5.405706,-1.17845 1.681083,-0.76064 3.578223,-1.24184 5.559274,-1.24184 1.966773,0 3.856755,0.4812 5.537839,1.24184 1.653412,0.73922 3.480019,1.17845 5.398572,1.17845 1.897139,0 3.752305,-0.43923 5.384292,-1.17845 1.681084,-0.76064 3.578211,-1.24184 5.559263,-1.24184 1.959627,0 3.856768,0.4812 5.559278,1.24184 1.63197,0.73922 3.46661,1.17845 5.38428,1.17845 1.3945,0 2.7408,-0.23747 4.01032,-0.63475 L 95.102497,68.89209 115.30853,65.20228 c 2.96399,-0.56512 5.11914,-2.89436 5.11914,-5.87976 0,-3.29254 -2.67831,-5.92888 -5.94942,-5.92888 -0.23747,0 -0.45352,0 -0.67671,0.0205 L 82.589453,59.0984 c -2.189963,0.50173 -5.091458,3.71034 -3.438945,7.65102 0.09107,0.21606 0.174094,0.41871 0.265152,0.63477 l 8.14651,14.71014 z"
       style="fill:#0098c9;fill-opacity:1;stroke:none;stroke-width:0.892769" />
  </g>
  <path
     id="path32-5"
     style="fill:#ff0000;fill-opacity:1;stroke:none;stroke-width:1.57394;filter:url(#filter330)"
     d="m 139.21221,56.003332 c 0.958,-13.5025 1.007,-27.0957 2.804,-40.5219 1.539,-6.0037199 10.69,-8.6582199 14.557,-3.4037 2.814,4.47 1.36,10.0394 0.704,14.922 -1.98,10.5171 -4.496,20.9257 -6.617,31.4136 -0.641,3.8647 -2.718,10.0739 -7.873,8.0963 -3.927,-1.3217 -3.784,-5.6387 -3.549,-8.9602 -0.002,-0.5154 -0.006,-1.031 -0.026,-1.5461 z m 1.671,37.1638 c -6.503,-0.1626 -10.084,-9.2257 -5.465,-13.8219 3.859,-4.4121 12.268,-3.4257 14.257,2.3675 1.999,4.7897 -1.28,11.366 -6.78,11.483 -0.669,0.0673 -1.345,0.0569 -2.012,-0.0286 z" />
</svg>
