<?xml version="1.0" encoding="UTF-8" standalone="no"?>
<!-- Generator: Adobe Illustrator 13.0.2, SVG Export Plug-In . SVG Version: 6.00 Build 14948)  -->

<svg
   xmlns:dc="http://purl.org/dc/elements/1.1/"
   xmlns:cc="http://creativecommons.org/ns#"
   xmlns:rdf="http://www.w3.org/1999/02/22-rdf-syntax-ns#"
   xmlns:svg="http://www.w3.org/2000/svg"
   xmlns="http://www.w3.org/2000/svg"
   xmlns:sodipodi="http://sodipodi.sourceforge.net/DTD/sodipodi-0.dtd"
   xmlns:inkscape="http://www.inkscape.org/namespaces/inkscape"
   version="1.1"
   id="Layer_1"
   x="0px"
   y="0px"
   width="123.634"
   height="123.61"
   viewBox="-0.258 -0.548 123.634 123.61"
   xml:space="preserve"
   inkscape:version="0.48.4 r9939"
   sodipodi:docname="tidal_water.svg"><metadata
   id="metadata19"><rdf:RDF><cc:Work
       rdf:about=""><dc:format>image/svg+xml</dc:format><dc:type
         rdf:resource="http://purl.org/dc/dcmitype/StillImage" /><dc:title /></cc:Work></rdf:RDF></metadata><defs
   id="defs17"><inkscape:path-effect
     effect="spiro"
     id="path-effect4006"
     is_visible="true" /><inkscape:perspective
     sodipodi:type="inkscape:persp3d"
     inkscape:vp_x="0 : 61.805 : 1"
     inkscape:vp_y="0 : 1000 : 0"
     inkscape:vp_z="123.634 : 61.805 : 1"
     inkscape:persp3d-origin="61.817001 : 41.203334 : 1"
     id="perspective3956" /><inkscape:path-effect
     effect="spiro"
     id="path-effect3954"
     is_visible="true" /><inkscape:path-effect
     effect="spiro"
     id="path-effect3950"
     is_visible="true" /><clipPath
     clipPathUnits="userSpaceOnUse"
     id="clipPath954"><path
       inkscape:connector-curvature="0"
       d="m 0,0 1785.827,0 0,841.89 L 0,841.89 0,0 z"
       id="path956" /></clipPath><clipPath
     clipPathUnits="userSpaceOnUse"
     id="clipPath954-4"><path
       inkscape:connector-curvature="0"
       d="m 0,0 1785.827,0 0,841.89 L 0,841.89 0,0 z"
       id="path956-0" /></clipPath></defs><sodipodi:namedview
   pagecolor="#ffffff"
   bordercolor="#666666"
   borderopacity="1"
   objecttolerance="10"
   gridtolerance="10"
   guidetolerance="10"
   inkscape:pageopacity="0"
   inkscape:pageshadow="2"
   inkscape:window-width="1807"
   inkscape:window-height="807"
   id="namedview15"
   showgrid="false"
   fit-margin-top="0"
   fit-margin-left="0"
   fit-margin-right="0"
   fit-margin-bottom="0"
   inkscape:zoom="1.9103279"
   inkscape:cx="-157.54751"
   inkscape:cy="29.4825"
   inkscape:window-x="1652"
   inkscape:window-y="52"
   inkscape:window-maximized="0"
   inkscape:current-layer="g3926" />
<g
   id="g3"
   transform="translate(-1.07,0.0339978)">
	<path
   style="fill:#000000"
   d="M 15.578,123.027 C 7.422,123.027 0.812,116.41 0.812,108.23 V 14.184 c 0,-8.148 6.609,-14.766 14.766,-14.766 h 94.102 c 8.156,0 14.766,6.617 14.766,14.766 v 94.047 c 0,8.18 -6.609,14.797 -14.766,14.797 H 15.578 z"
   id="path5"
   inkscape:connector-curvature="0" />
	<path
   style="fill:#ffffff"
   d="M 15.578,1.91 C 8.812,1.91 3.312,7.426 3.312,14.183 v 94.047 c 0,6.758 5.5,12.281 12.266,12.281 h 94.102 c 6.758,0 12.25,-5.523 12.25,-12.281 V 14.184 c 0,-6.758 -5.492,-12.273 -12.25,-12.273 H 15.578 z"
   id="path7"
   inkscape:connector-curvature="0" />
	
	
	
<g
   id="g3926"
   transform="matrix(0.70046151,-0.32131682,-0.32131682,0.70046151,46.404152,39.451937)"><path
     d="m -23.642605,60.564433 c 4.139128,1.898712 7.70342,2.792783 10.48834,2.816184 2.861088,-0.01763 6.4992818,0.872325 10.758983,2.826339 4.2835029,1.964938 8.7786641,4.805903 13.233371,8.179475 4.242127,3.200059 8.619229,5.948871 12.758364,7.84758 4.115068,1.88767 7.631236,2.75967 10.464022,2.80503 2.861083,-0.0177 6.499543,0.87244 10.758981,2.82634 4.235377,1.94285 8.778926,4.80602 13.209573,8.16855 4.266191,3.2111 8.643029,5.959789 12.782162,7.858499 4.139127,1.8987 7.655295,2.77071 10.48834,2.81618 2.861089,-0.0177 6.499553,0.87245 10.758982,2.82634 4.23538,1.94286 8.778927,4.80602 13.161447,8.14648 4.31405,3.23305 8.69116,5.98187 12.83028,7.88056 4.13913,1.89871 7.6553,2.77071 10.44023,2.79411 2.90894,0.004 6.52334,0.88337 10.75872,2.82623 4.2835,1.96493 8.82705,4.82809 13.20957,8.16855 4.26619,3.21109 8.69142,5.98198 12.83054,7.88069 l -7.99219,-17.42274 c -4.13912,-1.8987 -8.56435,-4.66958 -12.84157,-7.90474 -4.38253,-3.34046 -8.90412,-6.15576 -13.18762,-8.12069 -4.23537,-1.94286 -7.87173,-2.86979 -10.78068,-2.87409 -2.77389,5.2e-4 -6.29005,-0.87134 -10.42918,-2.77004 -4.13913,-1.89871 -8.51623,-4.64752 -12.841317,-7.90464 -4.38253,-3.340459 -8.904118,-6.155749 -13.13949,-8.098609 -4.259438,-1.9539 -7.919862,-2.89186 -10.78094,-2.8742 -2.822013,-0.0214 -6.338181,-0.89342 -10.477309,-2.79213 -4.139128,-1.89871 -8.515971,-4.6474 -12.793193,-7.882559 -4.430655,-3.362535 -8.952247,-6.177832 -13.18762,-8.120691 -4.259442,-1.953896 -7.919861,-2.89186 -10.78094,-2.8742 -2.82175,-0.02132 -6.337919,-0.893298 -10.452986,-2.780968 -4.139129,-1.898707 -8.5162323,-4.647519 -12.7693981,-7.871638 -4.4547133,-3.373577 -8.9279141,-6.166676 -13.2114159,-8.131613 -4.259697,-1.954014 -7.919851,-2.891859 -10.780933,-2.874199 -2.773889,5.18e-4 -6.338182,-0.893418 -10.477309,-2.792124 l 7.992186,17.422734 z"
     style="fill:#231f20;fill-opacity:1;fill-rule:nonzero;stroke:none"
     id="path8620"
     inkscape:connector-curvature="0" /><path
     inkscape:connector-curvature="0"
     id="path4084"
     style="fill:#231f20;fill-opacity:1;fill-rule:nonzero;stroke:none"
     d="m -10.371965,89.494041 c 4.1391268,1.898712 7.703418,2.792783 10.48833724,2.816184 2.86108766,-0.01763 6.49928146,0.872325 10.75898276,2.826339 4.283504,1.964938 8.778666,4.805903 13.233374,8.179476 4.242127,3.20006 8.619229,5.94887 12.758364,7.84758 4.115068,1.88767 7.631236,2.75967 10.464022,2.80503 2.861083,-0.0177 6.499543,0.87244 10.758981,2.82634 4.235377,1.94284 8.778926,4.80601 13.209573,8.16854 4.266191,3.2111 8.643029,5.95979 12.782162,7.8585 4.139127,1.8987 7.655295,2.77071 10.48834,2.81618 2.861089,-0.0177 6.499549,0.87245 10.758979,2.82634 4.23538,1.94286 8.77893,4.80602 13.16145,8.14648 4.31405,3.23305 8.69116,5.98187 12.83028,7.88056 4.13913,1.89871 7.6553,2.77071 10.44023,2.79411 2.90894,0.004 6.52334,0.88337 10.75872,2.82623 4.2835,1.96493 8.82705,4.82809 13.20957,8.16855 4.26619,3.21109 8.69142,5.98198 12.83054,7.88069 l -7.99219,-17.42274 c -4.13912,-1.8987 -8.56435,-4.66958 -12.84157,-7.90474 -4.38253,-3.34046 -8.90412,-6.15576 -13.18762,-8.12069 -4.23537,-1.94286 -7.87173,-2.86979 -10.78068,-2.87409 -2.77389,5.2e-4 -6.29005,-0.87134 -10.42918,-2.77004 -4.13913,-1.89871 -8.51623,-4.64752 -12.84132,-7.90464 -4.38253,-3.34046 -8.90412,-6.15575 -13.139487,-8.09861 -4.259438,-1.9539 -7.919862,-2.89186 -10.78094,-2.8742 -2.822013,-0.0214 -6.338181,-0.89341 -10.477309,-2.79212 -4.139128,-1.89871 -8.515971,-4.6474 -12.793193,-7.88256 -4.430655,-3.36254 -8.952247,-6.17783 -13.18762,-8.120691 -4.259442,-1.953896 -7.919861,-2.89186 -10.78094,-2.8742 -2.82175,-0.02132 -6.337919,-0.893298 -10.452986,-2.780968 -4.139129,-1.898707 -8.516233,-4.647519 -12.7694,-7.871638 C 11.650791,82.495666 7.1775897,79.702567 2.8940879,77.73763 -1.3656084,75.783616 -5.0257612,74.845771 -7.8868428,74.863431 -10.660731,74.863949 -14.225024,73.970013 -18.364151,72.071307 l 7.992186,17.422734 z" /><path
     inkscape:connector-curvature="0"
     style="fill:#000000"
     d="M 97.535229,45.886498 C 79.305429,37.524088 57.761533,15.974171 49.404221,-2.2445102 46.65182,-8.2446723 45.826729,-13.005642 46.406227,-16.563273 33.223141,-19.151067 28.398056,-10.43197 36.013886,6.1703431 45.237257,26.277005 69.014551,50.059126 89.123455,59.283506 c 16.602315,7.615843 25.327245,2.78816 22.742525,-10.38824 -3.57285,0.565485 -8.33057,-0.256355 -14.330751,-3.008768 z"
     id="path8" /></g></g>
</svg>