<?xml version="1.0" encoding="UTF-8" standalone="no"?>
<!-- Generator: Adobe Illustrator 13.0.2, SVG Export Plug-In . SVG Version: 6.00 Build 14948)  -->

<svg
   xmlns:dc="http://purl.org/dc/elements/1.1/"
   xmlns:cc="http://creativecommons.org/ns#"
   xmlns:rdf="http://www.w3.org/1999/02/22-rdf-syntax-ns#"
   xmlns:svg="http://www.w3.org/2000/svg"
   xmlns="http://www.w3.org/2000/svg"
   xmlns:sodipodi="http://sodipodi.sourceforge.net/DTD/sodipodi-0.dtd"
   xmlns:inkscape="http://www.inkscape.org/namespaces/inkscape"
   version="1.1"
   id="Layer_1"
   x="0px"
   y="0px"
   width="123.548"
   height="123.555"
   viewBox="-0.258 -0.548 123.548 123.555"
   xml:space="preserve"
   inkscape:version="0.48.4 r9939"
   sodipodi:docname="toezicht_d.svg"><metadata
   id="metadata21"><rdf:RDF><cc:Work
       rdf:about=""><dc:format>image/svg+xml</dc:format><dc:type
         rdf:resource="http://purl.org/dc/dcmitype/StillImage" /><dc:title></dc:title></cc:Work></rdf:RDF></metadata><defs
   id="defs19" /><sodipodi:namedview
   pagecolor="#ffffff"
   bordercolor="#666666"
   borderopacity="1"
   objecttolerance="10"
   gridtolerance="10"
   guidetolerance="10"
   inkscape:pageopacity="0"
   inkscape:pageshadow="2"
   inkscape:window-width="1920"
   inkscape:window-height="1017"
   id="namedview17"
   showgrid="false"
   inkscape:zoom="1.9103279"
   inkscape:cx="38.838192"
   inkscape:cy="71.092297"
   inkscape:window-x="3512"
   inkscape:window-y="-8"
   inkscape:window-maximized="1"
   inkscape:current-layer="g3"
   fit-margin-top="0"
   fit-margin-left="0"
   fit-margin-right="0"
   fit-margin-bottom="0" />
<g
   id="g3"
   transform="translate(-1.117,-0.7000022)">
	<path
   style="fill:#231f20"
   d="m 109.641,123.707 c 8.156,0 14.766,-6.617 14.766,-14.766 V 14.918 c 0,-8.148 -6.609,-14.766 -14.766,-14.766 H 15.617 C 7.461,0.152 0.859,6.769 0.859,14.918 v 94.023 c 0,8.148 6.602,14.766 14.758,14.766 h 94.024 z"
   id="path5"
   inkscape:connector-curvature="0" />
	<path
   style="fill:#ffffff"
   d="M 15.617,2.637 C 8.859,2.637 3.359,8.16 3.359,14.918 v 94.023 c 0,6.758 5.5,12.25 12.258,12.25 h 94.023 c 6.758,0 12.25,-5.492 12.25,-12.25 V 14.918 C 121.89,8.16 116.398,2.637 109.64,2.637 H 15.617 z"
   id="path7"
   inkscape:connector-curvature="0" />
	
	
	<path
   style="fill:#231f20"
   d="M 48.117,81.170748 z"
   id="path3024"
   inkscape:connector-curvature="0" /><path
   style="fill:#231f20"
   d="m 40.96075,74.983248 1,-0.34375"
   id="path3020"
   inkscape:connector-curvature="0" />
	
<path
   id="path4030"
   style="font-size:medium;font-style:normal;font-variant:normal;font-weight:normal;font-stretch:normal;text-indent:0;text-align:start;text-decoration:none;line-height:normal;letter-spacing:normal;word-spacing:normal;text-transform:none;direction:ltr;block-progression:tb;writing-mode:lr-tb;text-anchor:start;baseline-shift:baseline;color:#000000;fill:#000000;fill-opacity:1;stroke:none;stroke-width:46.59999847;marker:none;visibility:visible;display:inline;overflow:visible;enable-background:accumulate;font-family:Sans;-inkscape-font-specification:Sans"
   d="m 21.685417,48.457417 c 0.17083,0.06178 0.341394,0.117282 0.488767,0.162919 3.597545,1.113931 9.522758,2.166109 14.074598,2.878281 2.625879,-8.026734 8.926747,-14.335445 16.95287,-16.961935 C 52.489496,29.985946 51.445643,24.066351 50.332428,20.471133 50.28744,20.326025 50.221091,20.15934 50.160451,19.99144 36.473953,23.936971 25.633189,34.773142 21.685417,48.457417 z M 70.74893,18.832888 c -0.04292,0.126106 -0.08982,0.251894 -0.126718,0.371081 -1.171969,3.78499 -2.204215,9.5918 -2.914483,14.119856 -4.168428,-0.903107 -8.380149,-0.882167 -12.264368,0 -0.710268,-4.528056 -1.751563,-10.334866 -2.923531,-14.119856 -0.03688,-0.119015 -0.0748,-0.245172 -0.117662,-0.371081 6.238057,-1.33905 12.538323,-1.297282 18.346762,0 z m 1.407454,-3.371581 c -0.567969,1.224404 -1.189375,2.639201 -1.529648,3.738146 -1.4748,4.763008 -2.739732,12.724785 -3.394202,17.26967 -1.808428,-0.436461 -3.702807,-0.669792 -5.656989,-0.669792 -1.951098,0 -3.842519,0.234754 -5.64794,0.669792 -0.654462,-4.544885 -1.928452,-12.506662 -3.403251,-17.26967 -0.340264,-1.098945 -0.952623,-2.513742 -1.520592,-3.738146 3.393901,-0.825034 6.935407,-1.267173 10.571783,-1.267173 3.639866,0 7.183733,0.440399 10.580839,1.267173 z m 29.321336,32.99611 c -0.17084,0.06178 -0.3414,0.117282 -0.48877,0.162919 -3.597554,1.113931 -9.522773,2.166101 -14.074603,2.878273 -2.625879,-8.026726 -8.926757,-14.335428 -16.952871,-16.961927 0.712155,-4.550736 1.75601,-10.470331 2.869225,-14.065541 0.04499,-0.145116 0.111336,-0.311801 0.171967,-0.479701 13.686498,3.945531 24.527268,14.781702 28.475052,28.465977 z M 21.685417,71.317092 c 0.17083,-0.06179 0.341394,-0.117281 0.488767,-0.162918 3.597545,-1.113932 9.522758,-2.166101 14.074598,-2.878282 2.625879,8.026743 8.926747,14.335445 16.95287,16.961944 -0.712156,4.550734 -1.756009,10.470318 -2.869224,14.065538 -0.04499,0.14511 -0.111337,0.31179 -0.171977,0.47971 C 36.473953,95.837534 25.633189,85.001376 21.685417,71.317092 z M 20.526866,50.707537 c 0.129993,0.04438 0.25746,0.09777 0.380154,0.135765 3.787498,1.172745 9.599599,2.204189 14.128904,2.914483 -0.907932,4.169677 -0.875445,8.380511 0.009,12.264368 -4.53052,0.710312 -10.347938,1.750012 -14.137953,2.923531 -0.119885,0.03714 -0.244232,0.08351 -0.371097,0.126718 -1.347116,-6.244606 -1.308838,-12.548714 -0.009,-18.364865 z m -3.353468,-1.380302 c 1.221957,0.566556 2.633385,1.181327 3.729089,1.520592 4.759467,1.473704 12.713901,2.730243 17.260613,3.385145 -0.436796,1.808092 -0.669783,3.702815 -0.669783,5.656997 0,1.959284 0.230747,3.85411 0.669783,5.666046 -4.546712,0.65491 -12.501146,1.920497 -17.260613,3.394193 -1.095704,0.339273 -2.507132,0.944988 -3.729089,1.511552 -0.82506,-3.394943 -1.267164,-6.934984 -1.267164,-10.571791 0,-3.633799 0.443389,-7.170807 1.267164,-10.562734 z M 70.74893,100.94162 c -0.04292,-0.12611 -0.08982,-0.2519 -0.126718,-0.37108 -1.171969,-3.784986 -2.204215,-9.591796 -2.914483,-14.119854 -13.130722,0.517324 -11.338124,1.389938 -15.187899,14.119854 -0.03688,0.11901 -0.0748,0.24518 -0.117662,0.37108 6.238057,1.33905 12.538323,1.29728 18.346762,0 z m 1.407454,3.37159 c -0.567969,-1.22443 -1.189375,-2.63922 -1.529648,-3.73816 -1.4748,-4.763006 -2.739732,-12.724773 -3.394202,-17.269655 -1.808428,0.436452 -3.702807,0.669784 -5.656989,0.669784 -1.951098,0 -3.842519,-0.234746 -5.64794,-0.669784 -0.654462,4.544882 -1.928452,12.506649 -3.403251,17.269655 -0.340264,1.09894 -0.952623,2.51373 -1.520592,3.73816 3.393901,0.82503 6.935407,1.26716 10.571783,1.26716 3.639866,0 7.183733,-0.4404 10.580839,-1.26716 z M 101.47772,71.317101 c -0.17084,-0.06178 -0.3414,-0.11729 -0.48877,-0.162927 -3.597554,-1.113932 -9.522773,-2.166101 -14.074603,-2.878273 -2.625879,8.026725 -8.926757,14.335436 -16.952871,16.961927 0.712155,4.550742 1.75601,10.470326 2.869225,14.065546 0.04499,0.14511 0.111336,0.31179 0.171967,0.47969 13.686498,-3.94553 24.527268,-14.781697 28.475052,-28.465963 z m 1.15855,-20.609564 c -0.13,0.04438 -0.25747,0.09778 -0.38016,0.135765 -3.787514,1.172745 -9.599609,2.204198 -14.128907,2.914483 0.907933,4.169677 0.875446,8.38052 -0.009,12.264368 4.53052,0.710312 10.347939,1.750012 14.137947,2.923531 0.11988,0.03714 0.24424,0.08351 0.3711,0.126718 1.34711,-6.244606 1.30884,-12.548714 0.008,-18.364865 z m 3.35345,-1.380302 c -1.22194,0.566565 -2.63337,1.181327 -3.72909,1.5206 -4.759454,1.473696 -12.71389,2.730235 -17.260611,3.385146 0.436806,1.808091 0.669793,3.702814 0.669793,5.656988 0,1.959284 -0.230747,3.85411 -0.669793,5.666046 4.546721,0.65491 12.501157,1.920497 17.260611,3.394201 1.09572,0.339265 2.50715,0.94498 3.72909,1.511544 0.82507,-3.394943 1.26717,-6.934984 1.26717,-10.571791 0,-3.63379 -0.44338,-7.170807 -1.26717,-10.562734 z"
   inkscape:connector-curvature="0"
   sodipodi:nodetypes="cccccccccccccccscscscscccccccccccccccccccscccscscscsccccccccscscscsccccccccccccscccscscscsc" /><g
   style="font-size:40px;font-style:normal;font-weight:normal;line-height:125%;letter-spacing:0px;word-spacing:0px;fill:#000000;fill-opacity:1;stroke:none;font-family:Sans"
   id="text4075"><path
     d="m 51.869049,45.289085 10.566406,0 c 2.382797,2.9e-5 4.199201,0.182321 5.449219,0.546875 1.679667,0.49482 3.118468,1.373725 4.316406,2.636719 1.197893,1.263045 2.10935,2.809268 2.734375,4.638672 0.624974,1.829446 0.937473,4.085303 0.9375,6.767578 -2.7e-5,2.356783 -0.292995,4.388031 -0.878906,6.09375 -0.716171,2.083339 -1.738305,3.769536 -3.066406,5.058594 -1.002626,0.976564 -2.356792,1.738282 -4.0625,2.285156 -1.276059,0.403646 -2.981787,0.605469 -5.117188,0.605469 l -10.878906,0 z m 5.78125,4.84375 0,18.964844 4.316406,0 c 1.614569,5e-6 2.779932,-0.09114 3.496094,-0.273437 0.937483,-0.23437 1.715477,-0.631505 2.333984,-1.191407 0.618471,-0.559889 1.123027,-1.481112 1.513672,-2.763671 0.390605,-1.282542 0.585917,-3.030587 0.585938,-5.244141 -2.1e-5,-2.213525 -0.195333,-3.912742 -0.585938,-5.097656 -0.390645,-1.184876 -0.937519,-2.109354 -1.640625,-2.773438 -0.703143,-0.66404 -1.595069,-1.113258 -2.675781,-1.347656 -0.807307,-0.182268 -2.389336,-0.273414 -4.746094,-0.273438 z"
     style="font-weight:bold"
     id="path2990" /></g>
</g>
</svg>