<?xml version="1.0" encoding="UTF-8" standalone="no"?>
<!-- Generator: Adobe Illustrator 13.0.2, SVG Export Plug-In . SVG Version: 6.00 Build 14948)  -->

<svg
   xmlns:dc="http://purl.org/dc/elements/1.1/"
   xmlns:cc="http://creativecommons.org/ns#"
   xmlns:rdf="http://www.w3.org/1999/02/22-rdf-syntax-ns#"
   xmlns:svg="http://www.w3.org/2000/svg"
   xmlns="http://www.w3.org/2000/svg"
   xmlns:sodipodi="http://sodipodi.sourceforge.net/DTD/sodipodi-0.dtd"
   xmlns:inkscape="http://www.inkscape.org/namespaces/inkscape"
   version="1.1"
   id="Layer_1"
   x="0px"
   y="0px"
   width="123.547px"
   height="123.539px"
   viewBox="-0.258 -0.548 123.547 123.539"
   style="enable-background:new -0.258 -0.548 123.547 123.539;"
   xml:space="preserve"
   inkscape:version="0.48.4 r9939"
   sodipodi:docname="toilet.svg"><metadata
   id="metadata23"><rdf:RDF><cc:Work
       rdf:about=""><dc:format>image/svg+xml</dc:format><dc:type
         rdf:resource="http://purl.org/dc/dcmitype/StillImage" /></cc:Work></rdf:RDF></metadata><defs
   id="defs21" /><sodipodi:namedview
   pagecolor="#ffffff"
   bordercolor="#666666"
   borderopacity="1"
   objecttolerance="10"
   gridtolerance="10"
   guidetolerance="10"
   inkscape:pageopacity="0"
   inkscape:pageshadow="2"
   inkscape:window-width="1920"
   inkscape:window-height="1017"
   id="namedview19"
   showgrid="false"
   inkscape:zoom="1.9103279"
   inkscape:cx="-65.677466"
   inkscape:cy="29.919027"
   inkscape:window-x="1592"
   inkscape:window-y="-8"
   inkscape:window-maximized="1"
   inkscape:current-layer="g3" />
<g
   id="g3"
   transform="translate(-1.1215,-0.501)">
	<path
   style="fill:#231f20"
   d="m 109.648,123.488 c 8.148,0 14.766,-6.594 14.766,-14.742 V 14.723 c 0,-8.156 -6.617,-14.766 -14.766,-14.766 H 15.633 C 7.477,-0.043 0.86,6.566 0.86,14.723 v 94.023 c 0,8.148 6.617,14.742 14.773,14.742 h 94.015 z"
   id="path5"
   inkscape:connector-curvature="0" />
	<path
   style="fill:#ffffff"
   d="M 15.637,2.457 C 8.871,2.457 3.371,7.98 3.371,14.738 v 94.023 c 0,6.734 5.5,12.227 12.266,12.227 h 94.016 c 6.758,0 12.25,-5.492 12.25,-12.227 V 14.739 c 0,-6.758 -5.492,-12.281 -12.25,-12.281 H 15.637 z"
   id="path7"
   inkscape:connector-curvature="0" />
	
	
	
	
	<g
   id="g3000"
   transform="translate(1.3934208,1.113001)"
   style="fill:#000000;fill-opacity:1"><rect
     id="rect9"
     height="82.445"
     width="6.539"
     style="fill:#000000;fill-opacity:1"
     y="19.386999"
     x="60.039001" /><path
     inkscape:connector-curvature="0"
     id="path11"
     d="m 36.664,34.473 c 4.688,0 8.047,3.859 8.75,5.961 l 5.742,18.898 c 1.148,4.047 -4.016,5.734 -5.25,1.781 L 40.742,43.777 h -2.977 l 8.656,30.812 h -8.258 v 24.047 c 0,4.102 -6.164,4.078 -6.164,0 V 74.441 H 28.866 V 98.59 c 0,4.148 -6.195,4.148 -6.195,0 v -24 h -8.273 l 8.57,-30.812 h -2.844 l -5.18,17.383 c -1.219,3.781 -6.43,2.25 -5.242,-1.828 l 5.742,-18.898 c 0.617,-2.148 3.336,-5.961 8.047,-5.961 h 13.173 z"
     style="fill:#000000;fill-opacity:1" /><path
     inkscape:connector-curvature="0"
     id="path13"
     d="m 30.43,33.059 c 3.695,0 6.695,-3 6.695,-6.688 0,-3.711 -3,-6.711 -6.695,-6.711 -3.703,0 -6.695,3 -6.695,6.711 -10e-4,3.688 2.992,6.688 6.695,6.688 z"
     style="fill:#000000;fill-opacity:1" /><path
     inkscape:connector-curvature="0"
     id="path15"
     d="m 95.484,32.941 c 3.711,0 6.711,-2.984 6.711,-6.695 0,-3.688 -3,-6.688 -6.711,-6.688 -3.688,0 -6.688,3 -6.688,6.688 10e-4,3.711 3.001,6.695 6.688,6.695 z"
     style="fill:#000000;fill-opacity:1" /><path
     inkscape:connector-curvature="0"
     id="path17"
     d="m 86.43,97.879 c 0,2.078 1.656,3.758 3.734,3.758 2.07,0 3.758,-1.68 3.758,-3.758 V 66.387 h 3.148 v 31.492 c 0,2.078 1.688,3.758 3.758,3.758 2.078,0 3.742,-1.68 3.742,-3.758 l 0.023,-54.297 h 3.125 v 20.016 c 0,4.031 5.242,4.031 5.242,0 V 43.145 c 0,-4.445 -3.461,-8.789 -8.664,-8.789 l -17.75,-0.023 c -4.758,0 -8.57,3.875 -8.57,8.688 v 20.578 c 0,3.984 5.273,3.984 5.273,0 V 43.582 h 3.18 v 54.297 z"
     style="fill:#000000;fill-opacity:1" /></g>
</g>
</svg>