<?xml version="1.0" encoding="UTF-8" standalone="no"?>
<!-- Generator: Adobe Illustrator 13.0.2, SVG Export Plug-In . SVG Version: 6.00 Build 14948)  -->

<svg
   xmlns:dc="http://purl.org/dc/elements/1.1/"
   xmlns:cc="http://creativecommons.org/ns#"
   xmlns:rdf="http://www.w3.org/1999/02/22-rdf-syntax-ns#"
   xmlns:svg="http://www.w3.org/2000/svg"
   xmlns="http://www.w3.org/2000/svg"
   xmlns:sodipodi="http://sodipodi.sourceforge.net/DTD/sodipodi-0.dtd"
   xmlns:inkscape="http://www.inkscape.org/namespaces/inkscape"
   version="1.1"
   id="Layer_1"
   x="0px"
   y="0px"
   width="123.634"
   height="123.61"
   viewBox="-0.258 -0.548 123.634 123.61"
   xml:space="preserve"
   inkscape:version="0.48.4 r9939"
   sodipodi:docname="changing_room_v2.svg"
   inkscape:export-filename="C:\Users\MaartenPieter\Dropbox\YellowBytes\waterschapp\graphics_app\icons\voorzieningen\hdpi\changing_room_v2.png"
   inkscape:export-xdpi="37.849998"
   inkscape:export-ydpi="37.849998"><metadata
   id="metadata19"><rdf:RDF><cc:Work
       rdf:about=""><dc:format>image/svg+xml</dc:format><dc:type
         rdf:resource="http://purl.org/dc/dcmitype/StillImage" /><dc:title></dc:title></cc:Work></rdf:RDF></metadata><defs
   id="defs17"><inkscape:path-effect
     effect="spiro"
     id="path-effect4095"
     is_visible="true" /><inkscape:path-effect
     effect="spiro"
     id="path-effect4006"
     is_visible="true" /><inkscape:perspective
     sodipodi:type="inkscape:persp3d"
     inkscape:vp_x="0 : 61.805 : 1"
     inkscape:vp_y="0 : 1000 : 0"
     inkscape:vp_z="123.634 : 61.805 : 1"
     inkscape:persp3d-origin="61.817001 : 41.203334 : 1"
     id="perspective3956" /><inkscape:path-effect
     effect="spiro"
     id="path-effect3954"
     is_visible="true" /><inkscape:path-effect
     effect="spiro"
     id="path-effect3950"
     is_visible="true" /><clipPath
     clipPathUnits="userSpaceOnUse"
     id="clipPath954"><path
       inkscape:connector-curvature="0"
       d="m 0,0 1785.827,0 0,841.89 L 0,841.89 0,0 z"
       id="path956" /></clipPath><clipPath
     clipPathUnits="userSpaceOnUse"
     id="clipPath954-4"><path
       inkscape:connector-curvature="0"
       d="m 0,0 1785.827,0 0,841.89 L 0,841.89 0,0 z"
       id="path956-0" /></clipPath><inkscape:path-effect
     effect="spiro"
     id="path-effect4095-4"
     is_visible="true" /></defs><sodipodi:namedview
   pagecolor="#ffffff"
   bordercolor="#666666"
   borderopacity="1"
   objecttolerance="10"
   gridtolerance="10"
   guidetolerance="10"
   inkscape:pageopacity="0"
   inkscape:pageshadow="2"
   inkscape:window-width="1600"
   inkscape:window-height="837"
   id="namedview15"
   showgrid="false"
   fit-margin-top="0"
   fit-margin-left="0"
   fit-margin-right="0"
   fit-margin-bottom="0"
   inkscape:zoom="1.3508058"
   inkscape:cx="-62.717993"
   inkscape:cy="40.41573"
   inkscape:window-x="-8"
   inkscape:window-y="-8"
   inkscape:window-maximized="1"
   inkscape:current-layer="g3" />
<g
   id="g3"
   transform="translate(-1.07,0.0339978)">
	<path
   style="fill:#000000"
   d="M 15.578,123.027 C 7.422,123.027 0.812,116.41 0.812,108.23 V 14.184 c 0,-8.148 6.609,-14.766 14.766,-14.766 h 94.102 c 8.156,0 14.766,6.617 14.766,14.766 v 94.047 c 0,8.18 -6.609,14.797 -14.766,14.797 H 15.578 z"
   id="path5"
   inkscape:connector-curvature="0" />
	<path
   style="fill:#ffffff"
   d="M 15.578,1.91 C 8.812,1.91 3.312,7.426 3.312,14.183 v 94.047 c 0,6.758 5.5,12.281 12.266,12.281 h 94.102 c 6.758,0 12.25,-5.523 12.25,-12.281 V 14.184 c 0,-6.758 -5.492,-12.273 -12.25,-12.273 H 15.578 z"
   id="path7"
   inkscape:connector-curvature="0" />
	
	
	
<g
   style="overflow:visible"
   transform="matrix(0.28568337,0,0,0.28568274,-1.0872477,-5.0730825)"
   id="g2980"><path
     inkscape:connector-curvature="0"
     d="m 75.153,157.78 -0.008,0.028 c 6.293,76.533 70.242,135.44 147.032,135.44 76.989,0 141.032,-59.202 147.073,-135.953 l 33.811,0.004 C 395.665,251.262 317.258,323.74 223.006,323.74 128.994,323.74 50.704,251.622 43.001,157.927 l 32.152,-0.147 z"
     id="path99"
     style="fill:#000000;fill-rule:evenodd" /><path
     inkscape:connector-curvature="0"
     d="m 361.533,212.68 c -10.477,6.588 -19.225,9.972 -26.676,10.152 -7.453,0.144 -13.32,-2.916 -17.748,-9.18 -5.725,6.696 -12.24,10.296 -19.549,11.088 -7.451,0.648 -15.408,-1.512 -24.443,-6.768 -8.496,6.012 -16.309,9.072 -24.012,9.18 -7.74,0.072 -14.797,-2.772 -21.744,-8.676 -4.429,5.616 -10.369,8.46 -18.217,8.676 -7.813,0.108 -17.244,-2.412 -28.439,-7.704 -9.072,5.688 -17.316,8.424 -24.877,8.208 -7.596,-0.324 -14.363,-3.456 -20.447,-9.684 -8.641,4.284 -16.74,6.264 -24.444,5.796 -7.739,-0.54 -14.94,-3.384 -21.743,-8.676 29.303,47.305 54.647,76.752 133.703,87.192 77.328,-9 110.195,-37.944 138.636,-89.604 z"
     id="path101"
     style="fill:#000000;fill-rule:evenodd" /><path
     inkscape:connector-curvature="0"
     d="m 347.313,225.712 c -5.688,2.736 -10.908,3.672 -15.984,2.88 -5.076,-0.828 -9.756,-3.348 -14.219,-7.704 -7.057,6.696 -13.896,10.333 -20.881,11.088 -6.984,0.719 -13.787,-1.513 -20.736,-6.732 -8.424,6.048 -16.271,9.072 -23.975,9.145 -7.705,0.071 -14.832,-2.772 -21.781,-8.677 -4.427,5.652 -10.367,8.496 -18.215,8.677 -7.848,0.18 -17.172,-2.377 -28.44,-7.705 -8.531,5.724 -16.703,8.423 -24.875,8.208 -8.172,-0.289 -15.912,-3.457 -23.725,-9.648 -4.824,3.275 -10.08,4.896 -15.984,4.824 -5.903,-0.108 -12.168,-1.836 -19.08,-5.328 21.744,26.063 46.188,61.775 125.281,70.452 77.289,-5.292 94.174,-33.768 122.614,-69.48 z"
     id="path103"
     style="fill:#ffffff;fill-rule:evenodd" /><path
     inkscape:connector-curvature="0"
     d="m 223.593,78.668 c 19.872,0 35.999,13.709 35.999,30.6 0,16.891 -16.127,30.6 -35.999,30.6 -19.872,0 -36,-13.709 -36,-30.6 0,-16.891 16.128,-30.6 36,-30.6"
     id="path105"
     style="fill:#000000;fill-rule:evenodd" /><path
     inkscape:connector-curvature="0"
     d="m 219.405,155.152 c -10.764,-0.108 -19.908,-1.584 -27.72,-4.428 -7.884,-2.916 -11.124,-5.4 -18.899,-12.852 -7.957,-7.668 -19.369,-23.112 -27.721,-32.148 -8.352,-9.036 -15.084,-18.9 -21.708,-21.672 -6.804,-2.808 -15.048,1.332 -18.071,4.788 -3.024,3.24 -5.256,6.444 0.396,15.3 5.76,8.964 20.16,23.868 33.336,37.764 13.067,13.86 36.036,30.024 44.604,44.604 8.279,14.508 5.58,28.476 5.651,41.364 0.036,12.672 -1.655,23.832 -5.22,34.164 -13.645,-0.252 -20.809,2.124 -30.168,7.236 -9.288,5.147 -14.328,7.344 -21.275,23.327 -6.949,16.057 -18.973,56.196 -20.089,71.893 -1.044,15.516 8.063,20.268 13.644,20.916 5.652,0.54 12.385,-3.384 19.692,-17.28 7.308,-14.112 14.761,-54.72 23.724,-65.916 9,-10.944 20.521,0.18 29.736,0 l 22.896,2.412 c 8.351,-0.18 5.328,-0.576 25.308,-2.412 9.18,0.18 20.734,-10.944 29.734,0 8.965,11.196 16.416,51.804 23.725,65.916 7.271,13.896 14.041,17.82 19.691,17.28 5.58,-0.648 14.652,-5.4 13.645,-20.916 -1.115,-15.696 -13.141,-55.836 -20.088,-71.893 -6.984,-15.983 -12.023,-18.18 -21.313,-23.327 -9.324,-5.112 -16.883,-9.108 -30.527,-8.82 -3.42,-9.468 -4.896,-20.232 -4.824,-32.58 0.107,-12.528 -2.879,-26.964 5.615,-41.364 8.461,-14.58 31.43,-30.744 44.605,-44.604 13.031,-13.896 27.576,-28.8 33.371,-37.764 5.58,-8.856 3.313,-12.06 0.396,-15.3 -3.133,-3.456 -11.377,-7.596 -18.072,-4.788 -6.732,2.772 -13.463,12.636 -21.707,21.672 -8.461,9.036 -19.836,24.48 -27.721,32.148 -7.885,7.452 -11.125,9.936 -18.9,12.852 -7.848,2.844 -16.992,4.32 -27.718,4.428 h -8.028 z"
     id="path107"
     style="fill:#000000;fill-rule:evenodd" /></g></g>
</svg>