<?xml version="1.0" encoding="UTF-8" standalone="no"?>
<!-- Generator: Adobe Illustrator 13.0.2, SVG Export Plug-In . SVG Version: 6.00 Build 14948)  -->

<svg
   xmlns:dc="http://purl.org/dc/elements/1.1/"
   xmlns:cc="http://creativecommons.org/ns#"
   xmlns:rdf="http://www.w3.org/1999/02/22-rdf-syntax-ns#"
   xmlns:svg="http://www.w3.org/2000/svg"
   xmlns="http://www.w3.org/2000/svg"
   xmlns:sodipodi="http://sodipodi.sourceforge.net/DTD/sodipodi-0.dtd"
   xmlns:inkscape="http://www.inkscape.org/namespaces/inkscape"
   version="1.1"
   id="Layer_1"
   x="0px"
   y="0px"
   width="123.634"
   height="123.61"
   viewBox="-0.258 -0.548 123.634 123.61"
   xml:space="preserve"
   inkscape:version="0.48.4 r9939"
   sodipodi:docname="water_level.svg"><metadata
   id="metadata19"><rdf:RDF><cc:Work
       rdf:about=""><dc:format>image/svg+xml</dc:format><dc:type
         rdf:resource="http://purl.org/dc/dcmitype/StillImage" /><dc:title /></cc:Work></rdf:RDF></metadata><defs
   id="defs17"><clipPath
     clipPathUnits="userSpaceOnUse"
     id="clipPath954"><path
       inkscape:connector-curvature="0"
       d="m 0,0 1785.827,0 0,841.89 L 0,841.89 0,0 z"
       id="path956" /></clipPath><clipPath
     clipPathUnits="userSpaceOnUse"
     id="clipPath954-4"><path
       inkscape:connector-curvature="0"
       d="m 0,0 1785.827,0 0,841.89 L 0,841.89 0,0 z"
       id="path956-0" /></clipPath></defs><sodipodi:namedview
   pagecolor="#ffffff"
   bordercolor="#666666"
   borderopacity="1"
   objecttolerance="10"
   gridtolerance="10"
   guidetolerance="10"
   inkscape:pageopacity="0"
   inkscape:pageshadow="2"
   inkscape:window-width="1920"
   inkscape:window-height="1017"
   id="namedview15"
   showgrid="false"
   fit-margin-top="0"
   fit-margin-left="0"
   fit-margin-right="0"
   fit-margin-bottom="0"
   inkscape:zoom="1.9103279"
   inkscape:cx="-95.375043"
   inkscape:cy="-36.69197"
   inkscape:window-x="1592"
   inkscape:window-y="-8"
   inkscape:window-maximized="1"
   inkscape:current-layer="g3926" />
<g
   id="g3"
   transform="translate(-1.07,0.0339978)">
	<path
   style="fill:#000000"
   d="M 15.578,123.027 C 7.422,123.027 0.812,116.41 0.812,108.23 V 14.184 c 0,-8.148 6.609,-14.766 14.766,-14.766 h 94.102 c 8.156,0 14.766,6.617 14.766,14.766 v 94.047 c 0,8.18 -6.609,14.797 -14.766,14.797 H 15.578 z"
   id="path5"
   inkscape:connector-curvature="0" />
	<path
   style="fill:#ffffff"
   d="M 15.578,1.91 C 8.812,1.91 3.312,7.426 3.312,14.183 v 94.047 c 0,6.758 5.5,12.281 12.266,12.281 h 94.102 c 6.758,0 12.25,-5.523 12.25,-12.281 V 14.184 c 0,-6.758 -5.492,-12.273 -12.25,-12.273 H 15.578 z"
   id="path7"
   inkscape:connector-curvature="0" />
	
	
	
<g
   id="g3926"
   transform="translate(-1.9844225,-1.7362163)"><path
     sodipodi:nodetypes="ccscsccscsccc"
     inkscape:connector-curvature="0"
     style="fill:#000000"
     d="m 111.74887,93.904861 c -6.63065,0 -12.949537,-1.061419 -18.617119,-2.894834 -5.787929,-1.868577 -12.347572,-2.997986 -19.197395,-2.997986 -6.874508,0 -13.434227,1.131636 -19.222168,2.997986 -5.66752,1.833415 -11.986433,2.894834 -18.617038,2.894834 -6.630742,0 -18.617175,-2.894834 -18.617175,-2.894834 l 0,-8.521126 c 0,0 11.986433,2.844457 18.617175,2.844457 6.630605,0 12.949518,-1.078968 18.617038,-2.844457 5.787941,-1.918954 12.34766,-3.050612 19.222168,-3.050612 6.849823,0 13.409466,1.131658 19.197395,3.050612 5.667582,1.765489 11.986469,2.844457 18.617119,2.844457 z"
     id="path9456-6" /><path
     sodipodi:nodetypes="cccsccccccccccccccc"
     inkscape:connector-curvature="0"
     id="path9456-6-1"
     d="m 42.755493,24.013593 0,54.311831 c 4.196632,-0.455396 8.194304,-1.272966 11.923622,-2.434679 5.787941,-1.918975 12.353122,-3.05895 19.227656,-3.05895 0.626644,0 1.251397,0.04387 1.872802,0.06243 l 0,-8.307491 -11.301675,0 0,-4.806912 11.301675,0 0,-8.005266 -11.301675,0 0,-4.869345 11.301675,0 c 0,0 0,3.789788 0,-8.355994 l -11.301675,0 0,-4.869336 11.301675,0 0,-9.666305 z"
     style="fill:#000000" /><path
     id="path2991"
     d="m 111.74887,107.90486 c -6.63065,0 -12.949537,-1.06142 -18.617119,-2.89483 -5.787929,-1.86858 -12.347572,-2.99799 -19.197395,-2.99799 -6.874508,0 -13.434227,1.13164 -19.222168,2.99799 -5.66752,1.83341 -11.986433,2.89483 -18.617038,2.89483 -6.630742,0 -18.617175,-2.89483 -18.617175,-2.89483 l 0,-8.521129 c 0,0 11.986433,2.844457 18.617175,2.844457 6.630605,0 12.949518,-1.078968 18.617038,-2.844457 5.787941,-1.918954 12.34766,-3.050612 19.222168,-3.050612 6.849823,0 13.409466,1.131658 19.197395,3.050612 5.667582,1.765489 11.986469,2.844457 18.617119,2.844457 z"
     style="fill:#000000"
     inkscape:connector-curvature="0"
     sodipodi:nodetypes="ccscsccscsccc" /></g></g>
</svg>